  0
SECTION
  2
HEADER
  9
$ACADVER
  1
AC1009
  9
$FILLMODE
 70
0
  9
$EXTMIN
 10
-2.3250
 20
-6.3250
 30
0.0000
  9
$EXTMAX
 10
130.3250
 20
86.3250
 30
0.0000
  0
ENDSEC
  0
SECTION
  2
TABLES
  0
TABLE
  2
LTYPE
 70
1
  0
LTYPE
  2
CONTINUOUS
 70
64
  3
Solid line
 72
65
 73
0
 40
0
  0
ENDTAB
  0
TABLE
  2
LAYER
 70
255
  0
LAYER
  2
1
 70
64
 62
12
  6
CONTINUOUS
  0
LAYER
  2
16
 70
64
 62
132
  6
CONTINUOUS
  0
LAYER
  2
17
 70
64
 62
110
  6
CONTINUOUS
  0
LAYER
  2
18
 70
64
 62
110
  6
CONTINUOUS
  0
LAYER
  2
19
 70
64
 62
53
  6
CONTINUOUS
  0
LAYER
  2
20
 70
64
 62
31
  6
CONTINUOUS
  0
LAYER
  2
21
 70
64
 62
253
  6
CONTINUOUS
  0
LAYER
  2
22
 70
64
 62
253
  6
CONTINUOUS
  0
LAYER
  2
23
 70
64
 62
53
  6
CONTINUOUS
  0
LAYER
  2
24
 70
64
 62
53
  6
CONTINUOUS
  0
LAYER
  2
25
 70
64
 62
253
  6
CONTINUOUS
  0
LAYER
  2
26
 70
64
 62
253
  6
CONTINUOUS
  0
LAYER
  2
27
 70
64
 62
253
  6
CONTINUOUS
  0
LAYER
  2
28
 70
64
 62
253
  6
CONTINUOUS
  0
LAYER
  2
39
 70
64
 62
12
  6
CONTINUOUS
  0
LAYER
  2
40
 70
64
 62
132
  6
CONTINUOUS
  0
LAYER
  2
41
 70
64
 62
12
  6
CONTINUOUS
  0
LAYER
  2
42
 70
64
 62
132
  6
CONTINUOUS
  0
LAYER
  2
43
 70
64
 62
110
  6
CONTINUOUS
  0
LAYER
  2
45
 70
64
 62
253
  6
CONTINUOUS
  0
LAYER
  2
48
 70
64
 62
253
  6
CONTINUOUS
  0
LAYER
  2
49
 70
64
 62
253
  6
CONTINUOUS
  0
LAYER
  2
51
 70
64
 62
253
  6
CONTINUOUS
  0
LAYER
  2
52
 70
64
 62
253
  6
CONTINUOUS
  0
LAYER
  2
101
 70
64
 62
1
  6
CONTINUOUS
  0
LAYER
  2
102
 70
64
 62
253
  6
CONTINUOUS
  0
LAYER
  2
103
 70
64
 62
253
  6
CONTINUOUS
  0
LAYER
  2
104
 70
64
 62
41
  6
CONTINUOUS
  0
LAYER
  2
105
 70
64
 62
253
  6
CONTINUOUS
  0
LAYER
  2
106
 70
64
 62
253
  6
CONTINUOUS
  0
LAYER
  2
107
 70
64
 62
253
  6
CONTINUOUS
  0
LAYER
  2
108
 70
64
 62
3
  6
CONTINUOUS
  0
LAYER
  2
109
 70
64
 62
4
  6
CONTINUOUS
  0
LAYER
  2
115
 70
64
 62
253
  6
CONTINUOUS
  0
LAYER
  2
116
 70
64
 62
5
  6
CONTINUOUS
  0
LAYER
  2
118
 70
64
 62
253
  6
CONTINUOUS
  0
LAYER
  2
121
 70
64
 62
253
  6
CONTINUOUS
  0
LAYER
  2
122
 70
64
 62
253
  6
CONTINUOUS
  0
LAYER
  2
125
 70
64
 62
253
  6
CONTINUOUS
  0
LAYER
  2
129
 70
64
 62
253
  6
CONTINUOUS
  0
LAYER
  2
144
 70
64
 62
253
  6
CONTINUOUS
  0
LAYER
  2
151
 70
64
 62
253
  6
CONTINUOUS
  0
LAYER
  2
199
 70
64
 62
253
  6
CONTINUOUS
  0
LAYER
  2
200
 70
64
 62
132
  6
CONTINUOUS
  0
LAYER
  2
201
 70
64
 62
110
  6
CONTINUOUS
  0
LAYER
  2
202
 70
64
 62
140
  6
CONTINUOUS
  0
LAYER
  2
203
 70
64
 62
12
  6
CONTINUOUS
  0
LAYER
  2
204
 70
64
 62
40
  6
CONTINUOUS
  0
LAYER
  2
205
 70
64
 62
53
  6
CONTINUOUS
  0
LAYER
  2
206
 70
64
 62
253
  6
CONTINUOUS
  0
LAYER
  2
207
 70
64
 62
59
  6
CONTINUOUS
  0
LAYER
  2
208
 70
64
 62
5
  6
CONTINUOUS
  0
LAYER
  2
209
 70
64
 62
253
  6
CONTINUOUS
  0
LAYER
  2
210
 70
64
 62
253
  6
CONTINUOUS
  0
LAYER
  2
211
 70
64
 62
253
  6
CONTINUOUS
  0
LAYER
  2
212
 70
64
 62
253
  6
CONTINUOUS
  0
LAYER
  2
213
 70
64
 62
253
  6
CONTINUOUS
  0
LAYER
  2
214
 70
64
 62
253
  6
CONTINUOUS
  0
LAYER
  2
215
 70
64
 62
253
  6
CONTINUOUS
  0
LAYER
  2
216
 70
64
 62
253
  6
CONTINUOUS
  0
LAYER
  2
225
 70
64
 62
253
  6
CONTINUOUS
  0
LAYER
  2
226
 70
64
 62
253
  6
CONTINUOUS
  0
LAYER
  2
227
 70
64
 62
253
  6
CONTINUOUS
  0
LAYER
  2
228
 70
64
 62
253
  6
CONTINUOUS
  0
LAYER
  2
229
 70
64
 62
253
  6
CONTINUOUS
  0
LAYER
  2
230
 70
64
 62
253
  6
CONTINUOUS
  0
LAYER
  2
231
 70
64
 62
253
  6
CONTINUOUS
  0
LAYER
  2
254
 70
64
 62
253
  6
CONTINUOUS
  0
LAYER
  2
255
 70
64
 62
253
  6
CONTINUOUS
  0
ENDTAB
  0
ENDSEC
  0
SECTION
  2
BLOCKS
  0
BLOCK
  8
0
  2
RECT
 70
64
 10
0.0000
 20
0.0000
 30
0.0000
  3
RECT
  0
SOLID
  8
0
 10
-0.5000
 20
-0.5000
 30
0.0000
 11
0.5000
 21
-0.5000
 31
0.0000
 12
-0.5000
 22
0.5000
 32
0.0000
 13
0.5000
 23
0.5000
 33
0.0000
  0
ENDBLK
  8
0
  0
BLOCK
  8
0
  2
PIE
 70
64
 10
0.0000
 20
0.0000
 30
0.0000
  3
PIE
  0
CIRCLE
  8
0
 10
0.0000
 20
0.0000
 30
0.0000
 40
0.5000
  0
ENDBLK
  8
0
  0
BLOCK
  8
0
  2
OCTAGONP
 70
64
 10
0.0000
 20
0.0000
 30
0.0000
  3
OCTAGONP
  0
POLYLINE
  8
0
 66
1
 10
0.0000
 20
0.0000
 30
0.0000
 40
0.0000
 41
0.0000
 70
1
  0
VERTEX
  8
0
 10
-0.5000
 20
-0.2071
 30
0.0000
  0
VERTEX
  8
0
 10
-0.5000
 20
0.2071
 30
0.0000
  0
VERTEX
  8
0
 10
-0.2071
 20
0.5000
 30
0.0000
  0
VERTEX
  8
0
 10
0.2071
 20
0.5000
 30
0.0000
  0
VERTEX
  8
0
 10
0.5000
 20
0.2071
 30
0.0000
  0
VERTEX
  8
0
 10
0.5000
 20
-0.2071
 30
0.0000
  0
VERTEX
  8
0
 10
0.2071
 20
-0.5000
 30
0.0000
  0
VERTEX
  8
0
 10
-0.2071
 20
-0.5000
 30
0.0000
  0
SEQEND
  8
0
  0
ENDBLK
  8
0
  0
BLOCK
  8
0
  2
SQUAREP
 70
64
 10
0.0000
 20
0.0000
 30
0.0000
  3
SQUAREP
  0
SOLID
  8
0
 10
-0.5000
 20
-0.5000
 30
0.0000
 11
0.5000
 21
-0.5000
 31
0.0000
 12
-0.5000
 22
0.5000
 32
0.0000
 13
0.5000
 23
0.5000
 33
0.0000
  0
ENDBLK
  8
0
  0
BLOCK
  8
0
  2
ROUNDP
 70
64
 10
0.0000
 20
0.0000
 30
0.0000
  3
ROUNDP
  0
CIRCLE
  8
0
 10
0.0000
 20
0.0000
 30
0.0000
 40
0.5000
  0
ENDBLK
  8
0
  0
BLOCK
  8
0
  2
ANNULUSP
 70
64
 10
0.0000
 20
0.0000
 30
0.0000
  3
ANNULUSP
  0
CIRCLE
  8
0
 10
0.0000
 20
0.0000
 30
0.0000
 40
0.5000
  0
ENDBLK
  8
0
  0
BLOCK
  8
0
  2
THERMALP
 70
64
 10
0.0000
 20
0.0000
 30
0.0000
  3
THERMALP
  0
LINE
  8
0
 10
-0.2379
 20
0.4500
 30
0.0000
 11
0.2379
 21
0.4500
 31
0.0000
  0
LINE
  8
0
 10
0.4500
 20
0.2379
 30
0.0000
 11
0.4500
 21
-0.2379
 31
0.0000
  0
LINE
  8
0
 10
0.2379
 20
-0.4500
 30
0.0000
 11
-0.2379
 21
-0.4500
 31
0.0000
  0
LINE
  8
0
 10
-0.4500
 20
-0.2379
 30
0.0000
 11
-0.4500
 21
0.2379
 31
0.0000
  0
ENDBLK
  8
0
  0
BLOCK
  8
0
  2
OCTAGONV
 70
64
 10
0.0000
 20
0.0000
 30
0.0000
  3
OCTAGONV
  0
POLYLINE
  8
0
 66
1
 10
0.0000
 20
0.0000
 30
0.0000
 40
0.0000
 41
0.0000
 70
1
  0
VERTEX
  8
0
 10
-0.5000
 20
-0.2071
 30
0.0000
  0
VERTEX
  8
0
 10
-0.5000
 20
0.2071
 30
0.0000
  0
VERTEX
  8
0
 10
-0.2071
 20
0.5000
 30
0.0000
  0
VERTEX
  8
0
 10
0.2071
 20
0.5000
 30
0.0000
  0
VERTEX
  8
0
 10
0.5000
 20
0.2071
 30
0.0000
  0
VERTEX
  8
0
 10
0.5000
 20
-0.2071
 30
0.0000
  0
VERTEX
  8
0
 10
0.2071
 20
-0.5000
 30
0.0000
  0
VERTEX
  8
0
 10
-0.2071
 20
-0.5000
 30
0.0000
  0
SEQEND
  8
0
  0
ENDBLK
  8
0
  0
BLOCK
  8
0
  2
SQUAREV
 70
64
 10
0.0000
 20
0.0000
 30
0.0000
  3
SQUAREV
  0
SOLID
  8
0
 10
-0.5000
 20
-0.5000
 30
0.0000
 11
0.5000
 21
-0.5000
 31
0.0000
 12
-0.5000
 22
0.5000
 32
0.0000
 13
0.5000
 23
0.5000
 33
0.0000
  0
ENDBLK
  8
0
  0
BLOCK
  8
0
  2
ROUNDV
 70
64
 10
0.0000
 20
0.0000
 30
0.0000
  3
ROUNDV
  0
CIRCLE
  8
0
 10
0.0000
 20
0.0000
 30
0.0000
 40
0.5000
  0
ENDBLK
  8
0
  0
BLOCK
  8
0
  2
ANNULUSV
 70
64
 10
0.0000
 20
0.0000
 30
0.0000
  3
ANNULUSV
  0
CIRCLE
  8
0
 10
0.0000
 20
0.0000
 30
0.0000
 40
0.5000
  0
ENDBLK
  8
0
  0
BLOCK
  8
0
  2
THERMALV
 70
64
 10
0.0000
 20
0.0000
 30
0.0000
  3
THERMALV
  0
LINE
  8
0
 10
-0.2379
 20
0.4500
 30
0.0000
 11
0.2379
 21
0.4500
 31
0.0000
  0
LINE
  8
0
 10
0.4500
 20
0.2379
 30
0.0000
 11
0.4500
 21
-0.2379
 31
0.0000
  0
LINE
  8
0
 10
0.2379
 20
-0.4500
 30
0.0000
 11
-0.2379
 21
-0.4500
 31
0.0000
  0
LINE
  8
0
 10
-0.4500
 20
-0.2379
 30
0.0000
 11
-0.4500
 21
0.2379
 31
0.0000
  0
ENDBLK
  8
0
  0
BLOCK
  8
0
  2
LONGP100
 70
64
 10
0.0000
 20
0.0000
 30
0.0000
  3
LONGP100
  0
POLYLINE
  8
0
 66
1
 10
0.0000
 20
0.0000
 30
0.0000
 40
0.0000
 41
0.0000
 70
1
  0
VERTEX
  8
0
 10
-0.5000
 20
-0.5000
 30
0.0000
  0
VERTEX
  8
0
 10
0.5000
 20
-0.5000
 30
0.0000
 42
1.0000
  0
VERTEX
  8
0
 10
0.5000
 20
0.5000
 30
0.0000
  0
VERTEX
  8
0
 10
-0.5000
 20
0.5000
 30
0.0000
 42
1.0000
  0
SEQEND
  8
0
  0
ENDBLK
  8
0
  0
ENDSEC
  0
SECTION
  2
ENTITIES
  0
LINE
  8
20
 10
0.0000
 20
0.0000
 30
0.0000
 11
122.8400
 21
0.0000
 31
0.0000
  0
LINE
  8
20
 10
122.8400
 20
0.0000
 30
0.0000
 11
122.8400
 21
80.6800
 31
0.0000
  0
LINE
  8
20
 10
122.8400
 20
80.6800
 30
0.0000
 11
0.0000
 21
80.6800
 31
0.0000
  0
LINE
  8
20
 10
0.0000
 20
0.0000
 30
0.0000
 11
0.0000
 21
43.0000
 31
0.0000
  0
LINE
  8
20
 10
0.0000
 20
43.0000
 30
0.0000
 11
12.0000
 21
43.0000
 31
0.0000
  0
LINE
  8
20
 10
12.0000
 20
43.0000
 30
0.0000
 11
12.0000
 21
67.0000
 31
0.0000
  0
LINE
  8
20
 10
12.0000
 20
67.0000
 30
0.0000
 11
0.0000
 21
67.0000
 31
0.0000
  0
LINE
  8
20
 10
0.0000
 20
67.0000
 30
0.0000
 11
0.0000
 21
81.0000
 31
0.0000
  0
TEXT
  7
ISOCP
  8
21
 10
74.6000
 20
2.8000
 30
0.0000
 40
1.7780
  1
Standard Control Surface v0.1
  0
TEXT
  7
ISOCP
  8
21
 10
82.0000
 20
6.5000
 30
0.0000
 40
1.7780
  1
Jan 2019
  0
TEXT
  7
ISOCP
  8
22
 10
79.5000
 20
14.5000
 30
0.0000
 40
0.6096
  1
EncSw
 71
2
  0
TEXT
  7
ISOCP
  8
22
 10
71.7000
 20
14.6000
 30
0.0000
 40
0.6096
  1
Gnd
 71
2
  0
CIRCLE
  8
20
 10
4.0000
 20
77.0000
 30
0.0000
 40
1.5000
  0
CIRCLE
  8
20
 10
119.0000
 20
77.0000
 30
0.0000
 40
1.5000
  0
CIRCLE
  8
20
 10
119.0000
 20
4.0000
 30
0.0000
 40
1.5000
  0
CIRCLE
  8
20
 10
4.0000
 20
4.0000
 30
0.0000
 40
1.5000
  0
CIRCLE
  8
20
 10
36.5000
 20
28.0000
 30
0.0000
 40
1.5000
  0
CIRCLE
  8
20
 10
86.5000
 20
28.0000
 30
0.0000
 40
1.5000
  0
POINT
  8
23
 10
28.9000
 20
17.4000
 30
0.0000
  0
LINE
  8
39
 10
27.3000
 20
18.1000
 30
0.0000
 11
30.5000
 21
18.1000
 31
0.0000
  0
LINE
  8
39
 10
30.5000
 20
18.1000
 30
0.0000
 11
30.5000
 21
16.7000
 31
0.0000
  0
LINE
  8
39
 10
30.5000
 20
16.7000
 30
0.0000
 11
27.3000
 21
16.7000
 31
0.0000
  0
LINE
  8
39
 10
27.3000
 20
16.7000
 30
0.0000
 11
27.3000
 21
18.1000
 31
0.0000
  0
LINE
  8
51
 10
28.5440
 20
17.8320
 30
0.0000
 11
29.2560
 21
17.8320
 31
0.0000
  0
LINE
  8
51
 10
28.5440
 20
16.9810
 30
0.0000
 11
29.2560
 21
16.9810
 31
0.0000
  0
INSERT
  8
51
  2
RECT
 10
28.3118
 20
17.4051
 30
0.0000
 41
0.5001
 42
0.9500
 43
1.0000
 50
0.0000
  0
INSERT
  8
51
  2
RECT
 10
29.4803
 20
17.4051
 30
0.0000
 41
0.5001
 42
0.9500
 43
1.0000
 50
0.0000
  0
INSERT
  8
1
  2
RECT
 10
28.0500
 20
17.4000
 30
0.0000
 41
1.1000
 42
1.0000
 43
1.0000
 50
0.0000
  0
INSERT
  8
1
  2
RECT
 10
29.7500
 20
17.4000
 30
0.0000
 41
1.1000
 42
1.0000
 43
1.0000
 50
0.0000
  0
LINE
  8
25
 10
31.2504
 20
17.2255
 30
0.0000
 11
31.1432
 21
17.2255
 31
0.0000
  0
ARC
  8
25
 10
31.1432
 20
17.3327
 30
0.0000
 40
0.1072
 50
180.0000
 51
270.0000
  0
LINE
  8
25
 10
31.0359
 20
17.3327
 30
0.0000
 11
31.0359
 21
17.6009
 31
0.0000
  0
ARC
  8
25
 10
31.1432
 20
17.6009
 30
0.0000
 40
0.1072
 50
90.0017
 51
180.0000
  0
LINE
  8
25
 10
31.1432
 20
17.7081
 30
0.0000
 11
31.2504
 21
17.7081
 31
0.0000
  0
LINE
  8
25
 10
31.4960
 20
17.6009
 30
0.0000
 11
31.6300
 21
17.7081
 31
0.0000
  0
LINE
  8
25
 10
31.6300
 20
17.7081
 30
0.0000
 11
31.6300
 21
17.2255
 31
0.0000
  0
LINE
  8
25
 10
31.4960
 20
17.2255
 30
0.0000
 11
31.7641
 21
17.2255
 31
0.0000
  0
POINT
  8
23
 10
60.0000
 20
55.0000
 30
0.0000
  0
LINE
  8
21
 10
2.1000
 20
73.4000
 30
0.0000
 11
117.9000
 21
73.4000
 31
0.0000
  0
LINE
  8
21
 10
117.9000
 20
73.4000
 30
0.0000
 11
117.9000
 21
36.6000
 31
0.0000
  0
LINE
  8
21
 10
117.9000
 20
36.6000
 30
0.0000
 11
2.1000
 21
36.6000
 31
0.0000
  0
LINE
  8
21
 10
2.1000
 20
36.6000
 30
0.0000
 11
2.1000
 21
73.4000
 31
0.0000
  0
LINE
  8
21
 10
19.6000
 20
64.1500
 30
0.0000
 11
102.4000
 21
64.1500
 31
0.0000
  0
LINE
  8
21
 10
102.4000
 20
64.1500
 30
0.0000
 11
102.4000
 21
45.8500
 31
0.0000
  0
LINE
  8
21
 10
102.4000
 20
45.8500
 30
0.0000
 11
19.6000
 21
45.8500
 31
0.0000
  0
LINE
  8
21
 10
19.6000
 20
45.8500
 30
0.0000
 11
19.6000
 21
64.1500
 31
0.0000
  0
LINE
  8
21
 10
15.5000
 20
70.5000
 30
0.0000
 11
106.5000
 21
70.5000
 31
0.0000
  0
LINE
  8
21
 10
106.5000
 20
70.5000
 30
0.0000
 11
106.5000
 21
39.5000
 31
0.0000
  0
LINE
  8
21
 10
106.5000
 20
39.5000
 30
0.0000
 11
15.5000
 21
39.5000
 31
0.0000
  0
LINE
  8
21
 10
15.5000
 20
39.5000
 30
0.0000
 11
15.5000
 21
70.5000
 31
0.0000
  0
INSERT
  8
21
  2
RECT
 10
25.8500
 20
57.9750
 30
0.0000
 41
3.2000
 42
5.5500
 43
1.0000
 50
0.0000
  0
INSERT
  8
21
  2
RECT
 10
25.8500
 20
52.0250
 30
0.0000
 41
3.2000
 42
5.5500
 43
1.0000
 50
0.0000
  0
INSERT
  8
21
  2
RECT
 10
29.5500
 20
57.9750
 30
0.0000
 41
3.2000
 42
5.5500
 43
1.0000
 50
0.0000
  0
INSERT
  8
21
  2
RECT
 10
29.5500
 20
52.0250
 30
0.0000
 41
3.2000
 42
5.5500
 43
1.0000
 50
0.0000
  0
INSERT
  8
21
  2
RECT
 10
33.2500
 20
57.9750
 30
0.0000
 41
3.2000
 42
5.5500
 43
1.0000
 50
0.0000
  0
INSERT
  8
21
  2
RECT
 10
33.2500
 20
52.0250
 30
0.0000
 41
3.2000
 42
5.5500
 43
1.0000
 50
0.0000
  0
INSERT
  8
21
  2
RECT
 10
36.9500
 20
57.9750
 30
0.0000
 41
3.2000
 42
5.5500
 43
1.0000
 50
0.0000
  0
INSERT
  8
21
  2
RECT
 10
36.9500
 20
52.0250
 30
0.0000
 41
3.2000
 42
5.5500
 43
1.0000
 50
0.0000
  0
INSERT
  8
21
  2
RECT
 10
40.6500
 20
57.9750
 30
0.0000
 41
3.2000
 42
5.5500
 43
1.0000
 50
0.0000
  0
INSERT
  8
21
  2
RECT
 10
40.6500
 20
52.0250
 30
0.0000
 41
3.2000
 42
5.5500
 43
1.0000
 50
0.0000
  0
INSERT
  8
21
  2
RECT
 10
44.3500
 20
57.9750
 30
0.0000
 41
3.2000
 42
5.5500
 43
1.0000
 50
0.0000
  0
INSERT
  8
21
  2
RECT
 10
44.3500
 20
52.0250
 30
0.0000
 41
3.2000
 42
5.5500
 43
1.0000
 50
0.0000
  0
INSERT
  8
21
  2
RECT
 10
48.0500
 20
57.9750
 30
0.0000
 41
3.2000
 42
5.5500
 43
1.0000
 50
0.0000
  0
INSERT
  8
21
  2
RECT
 10
48.0500
 20
52.0250
 30
0.0000
 41
3.2000
 42
5.5500
 43
1.0000
 50
0.0000
  0
INSERT
  8
21
  2
RECT
 10
51.7500
 20
57.9750
 30
0.0000
 41
3.2000
 42
5.5500
 43
1.0000
 50
0.0000
  0
INSERT
  8
21
  2
RECT
 10
51.7500
 20
52.0250
 30
0.0000
 41
3.2000
 42
5.5500
 43
1.0000
 50
0.0000
  0
INSERT
  8
21
  2
RECT
 10
55.4500
 20
57.9750
 30
0.0000
 41
3.2000
 42
5.5500
 43
1.0000
 50
0.0000
  0
INSERT
  8
21
  2
RECT
 10
55.4500
 20
52.0250
 30
0.0000
 41
3.2000
 42
5.5500
 43
1.0000
 50
0.0000
  0
INSERT
  8
21
  2
RECT
 10
59.1500
 20
57.9750
 30
0.0000
 41
3.2000
 42
5.5500
 43
1.0000
 50
0.0000
  0
INSERT
  8
21
  2
RECT
 10
59.1500
 20
52.0250
 30
0.0000
 41
3.2000
 42
5.5500
 43
1.0000
 50
0.0000
  0
INSERT
  8
21
  2
RECT
 10
62.8500
 20
57.9750
 30
0.0000
 41
3.2000
 42
5.5500
 43
1.0000
 50
0.0000
  0
INSERT
  8
21
  2
RECT
 10
62.8500
 20
52.0250
 30
0.0000
 41
3.2000
 42
5.5500
 43
1.0000
 50
0.0000
  0
INSERT
  8
21
  2
RECT
 10
66.5500
 20
57.9750
 30
0.0000
 41
3.2000
 42
5.5500
 43
1.0000
 50
0.0000
  0
INSERT
  8
21
  2
RECT
 10
66.5500
 20
52.0250
 30
0.0000
 41
3.2000
 42
5.5500
 43
1.0000
 50
0.0000
  0
INSERT
  8
21
  2
RECT
 10
70.2500
 20
57.9750
 30
0.0000
 41
3.2000
 42
5.5500
 43
1.0000
 50
0.0000
  0
INSERT
  8
21
  2
RECT
 10
70.2500
 20
52.0250
 30
0.0000
 41
3.2000
 42
5.5500
 43
1.0000
 50
0.0000
  0
INSERT
  8
21
  2
RECT
 10
73.9500
 20
57.9750
 30
0.0000
 41
3.2000
 42
5.5500
 43
1.0000
 50
0.0000
  0
INSERT
  8
21
  2
RECT
 10
73.9500
 20
52.0250
 30
0.0000
 41
3.2000
 42
5.5500
 43
1.0000
 50
0.0000
  0
INSERT
  8
21
  2
RECT
 10
77.6500
 20
57.9750
 30
0.0000
 41
3.2000
 42
5.5500
 43
1.0000
 50
0.0000
  0
INSERT
  8
21
  2
RECT
 10
77.6500
 20
52.0250
 30
0.0000
 41
3.2000
 42
5.5500
 43
1.0000
 50
0.0000
  0
INSERT
  8
21
  2
RECT
 10
81.3500
 20
57.9750
 30
0.0000
 41
3.2000
 42
5.5500
 43
1.0000
 50
0.0000
  0
INSERT
  8
21
  2
RECT
 10
81.3500
 20
52.0250
 30
0.0000
 41
3.2000
 42
5.5500
 43
1.0000
 50
0.0000
  0
INSERT
  8
21
  2
RECT
 10
85.0500
 20
57.9750
 30
0.0000
 41
3.2000
 42
5.5500
 43
1.0000
 50
0.0000
  0
INSERT
  8
21
  2
RECT
 10
85.0500
 20
52.0250
 30
0.0000
 41
3.2000
 42
5.5500
 43
1.0000
 50
0.0000
  0
INSERT
  8
21
  2
RECT
 10
88.7500
 20
57.9750
 30
0.0000
 41
3.2000
 42
5.5500
 43
1.0000
 50
0.0000
  0
INSERT
  8
21
  2
RECT
 10
88.7500
 20
52.0250
 30
0.0000
 41
3.2000
 42
5.5500
 43
1.0000
 50
0.0000
  0
INSERT
  8
21
  2
RECT
 10
92.4500
 20
57.9750
 30
0.0000
 41
3.2000
 42
5.5500
 43
1.0000
 50
0.0000
  0
INSERT
  8
21
  2
RECT
 10
92.4500
 20
52.0250
 30
0.0000
 41
3.2000
 42
5.5500
 43
1.0000
 50
0.0000
  0
INSERT
  8
21
  2
RECT
 10
96.1500
 20
57.9750
 30
0.0000
 41
3.2000
 42
5.5500
 43
1.0000
 50
0.0000
  0
INSERT
  8
21
  2
RECT
 10
96.1500
 20
52.0250
 30
0.0000
 41
3.2000
 42
5.5500
 43
1.0000
 50
0.0000
  0
CIRCLE
  8
20
 10
6.0000
 20
40.5000
 30
0.0000
 40
1.7500
  0
CIRCLE
  8
20
 10
114.0000
 20
40.5000
 30
0.0000
 40
1.7500
  0
CIRCLE
  8
20
 10
6.0000
 20
69.5000
 30
0.0000
 40
1.7500
  0
CIRCLE
  8
20
 10
114.0000
 20
69.5000
 30
0.0000
 40
1.7500
  0
INSERT
  8
17
  2
ROUNDP
 10
7.2700
 20
47.3800
 30
0.0000
 41
1.6764
 42
1.6764
 43
1.0000
 50
0.0000
  0
INSERT
  8
17
  2
ROUNDP
 10
7.2700
 20
47.3800
 30
0.0000
 41
1.6764
 42
1.6764
 43
1.0000
 50
0.0000
  0
INSERT
  8
17
  2
ROUNDP
 10
4.7300
 20
47.3800
 30
0.0000
 41
1.6764
 42
1.6764
 43
1.0000
 50
0.0000
  0
INSERT
  8
17
  2
ROUNDP
 10
4.7300
 20
47.3800
 30
0.0000
 41
1.6764
 42
1.6764
 43
1.0000
 50
0.0000
  0
INSERT
  8
17
  2
ROUNDP
 10
7.2700
 20
49.9200
 30
0.0000
 41
1.6764
 42
1.6764
 43
1.0000
 50
0.0000
  0
INSERT
  8
17
  2
ROUNDP
 10
7.2700
 20
49.9200
 30
0.0000
 41
1.6764
 42
1.6764
 43
1.0000
 50
0.0000
  0
INSERT
  8
17
  2
ROUNDP
 10
4.7300
 20
49.9200
 30
0.0000
 41
1.6764
 42
1.6764
 43
1.0000
 50
0.0000
  0
INSERT
  8
17
  2
ROUNDP
 10
4.7300
 20
49.9200
 30
0.0000
 41
1.6764
 42
1.6764
 43
1.0000
 50
0.0000
  0
INSERT
  8
17
  2
ROUNDP
 10
7.2700
 20
52.4600
 30
0.0000
 41
1.6764
 42
1.6764
 43
1.0000
 50
0.0000
  0
INSERT
  8
17
  2
ROUNDP
 10
7.2700
 20
52.4600
 30
0.0000
 41
1.6764
 42
1.6764
 43
1.0000
 50
0.0000
  0
INSERT
  8
17
  2
ROUNDP
 10
4.7300
 20
52.4600
 30
0.0000
 41
1.6764
 42
1.6764
 43
1.0000
 50
0.0000
  0
INSERT
  8
17
  2
ROUNDP
 10
4.7300
 20
52.4600
 30
0.0000
 41
1.6764
 42
1.6764
 43
1.0000
 50
0.0000
  0
INSERT
  8
17
  2
ROUNDP
 10
7.2700
 20
55.0000
 30
0.0000
 41
1.6764
 42
1.6764
 43
1.0000
 50
0.0000
  0
INSERT
  8
17
  2
ROUNDP
 10
7.2700
 20
55.0000
 30
0.0000
 41
1.6764
 42
1.6764
 43
1.0000
 50
0.0000
  0
INSERT
  8
17
  2
ROUNDP
 10
4.7300
 20
55.0000
 30
0.0000
 41
1.6764
 42
1.6764
 43
1.0000
 50
0.0000
  0
INSERT
  8
17
  2
ROUNDP
 10
4.7300
 20
55.0000
 30
0.0000
 41
1.6764
 42
1.6764
 43
1.0000
 50
0.0000
  0
INSERT
  8
17
  2
ROUNDP
 10
7.2700
 20
57.5400
 30
0.0000
 41
1.6764
 42
1.6764
 43
1.0000
 50
0.0000
  0
INSERT
  8
17
  2
ROUNDP
 10
7.2700
 20
57.5400
 30
0.0000
 41
1.6764
 42
1.6764
 43
1.0000
 50
0.0000
  0
INSERT
  8
17
  2
ROUNDP
 10
4.7300
 20
57.5400
 30
0.0000
 41
1.6764
 42
1.6764
 43
1.0000
 50
0.0000
  0
INSERT
  8
17
  2
ROUNDP
 10
4.7300
 20
57.5400
 30
0.0000
 41
1.6764
 42
1.6764
 43
1.0000
 50
0.0000
  0
INSERT
  8
17
  2
ROUNDP
 10
7.2700
 20
60.0800
 30
0.0000
 41
1.6764
 42
1.6764
 43
1.0000
 50
0.0000
  0
INSERT
  8
17
  2
ROUNDP
 10
7.2700
 20
60.0800
 30
0.0000
 41
1.6764
 42
1.6764
 43
1.0000
 50
0.0000
  0
INSERT
  8
17
  2
ROUNDP
 10
4.7300
 20
60.0800
 30
0.0000
 41
1.6764
 42
1.6764
 43
1.0000
 50
0.0000
  0
INSERT
  8
17
  2
ROUNDP
 10
4.7300
 20
60.0800
 30
0.0000
 41
1.6764
 42
1.6764
 43
1.0000
 50
0.0000
  0
INSERT
  8
17
  2
ROUNDP
 10
7.2700
 20
62.6200
 30
0.0000
 41
1.6764
 42
1.6764
 43
1.0000
 50
0.0000
  0
INSERT
  8
17
  2
ROUNDP
 10
7.2700
 20
62.6200
 30
0.0000
 41
1.6764
 42
1.6764
 43
1.0000
 50
0.0000
  0
INSERT
  8
17
  2
ROUNDP
 10
4.7300
 20
62.6200
 30
0.0000
 41
1.6764
 42
1.6764
 43
1.0000
 50
0.0000
  0
INSERT
  8
17
  2
ROUNDP
 10
4.7300
 20
62.6200
 30
0.0000
 41
1.6764
 42
1.6764
 43
1.0000
 50
0.0000
  0
INSERT
  8
17
  2
ROUNDP
 10
7.2700
 20
65.1600
 30
0.0000
 41
1.6764
 42
1.6764
 43
1.0000
 50
0.0000
  0
INSERT
  8
17
  2
ROUNDP
 10
7.2700
 20
65.1600
 30
0.0000
 41
1.6764
 42
1.6764
 43
1.0000
 50
0.0000
  0
INSERT
  8
17
  2
ROUNDP
 10
4.7300
 20
65.1600
 30
0.0000
 41
1.6764
 42
1.6764
 43
1.0000
 50
0.0000
  0
INSERT
  8
17
  2
ROUNDP
 10
4.7300
 20
65.1600
 30
0.0000
 41
1.6764
 42
1.6764
 43
1.0000
 50
0.0000
  0
TEXT
  7
ISOCP
  8
25
 10
6.6600
 20
34.6800
 30
0.0000
 40
1.2700
  1
DIS1
  0
POINT
  8
23
 10
61.5000
 20
10.0000
 30
0.0000
  0
LINE
  8
21
 10
55.3000
 20
3.4000
 30
0.0000
 11
67.7000
 21
3.4000
 31
0.0000
  0
LINE
  8
21
 10
67.7000
 20
3.4000
 30
0.0000
 11
67.7000
 21
16.6000
 31
0.0000
  0
LINE
  8
21
 10
67.7000
 20
16.6000
 30
0.0000
 11
55.3000
 21
16.6000
 31
0.0000
  0
LINE
  8
21
 10
55.3000
 20
16.6000
 30
0.0000
 11
55.3000
 21
3.4000
 31
0.0000
  0
LINE
  8
21
 10
58.9000
 20
11.5000
 30
0.0000
 11
64.1000
 21
11.5000
 31
0.0000
  0
CIRCLE
  8
21
 10
61.5000
 20
10.0000
 30
0.0000
 40
3.0000
  0
INSERT
  8
17
  2
SQUAREP
 10
59.0000
 20
2.5000
 30
0.0000
 41
1.5080
 42
1.5080
 43
1.0000
 50
0.0000
  0
INSERT
  8
17
  2
SQUAREP
 10
59.0000
 20
2.5000
 30
0.0000
 41
1.5080
 42
1.5080
 43
1.0000
 50
0.0000
  0
INSERT
  8
17
  2
SQUAREP
 10
64.0000
 20
2.5000
 30
0.0000
 41
1.5080
 42
1.5080
 43
1.0000
 50
0.0000
  0
INSERT
  8
17
  2
SQUAREP
 10
64.0000
 20
2.5000
 30
0.0000
 41
1.5080
 42
1.5080
 43
1.0000
 50
0.0000
  0
INSERT
  8
17
  2
SQUAREP
 10
61.5000
 20
2.5000
 30
0.0000
 41
1.5080
 42
1.5080
 43
1.0000
 50
0.0000
  0
INSERT
  8
17
  2
SQUAREP
 10
61.5000
 20
2.5000
 30
0.0000
 41
1.5080
 42
1.5080
 43
1.0000
 50
0.0000
  0
INSERT
  8
17
  2
SQUAREP
 10
59.0000
 20
17.0000
 30
0.0000
 41
1.5080
 42
1.5080
 43
1.0000
 50
0.0000
  0
INSERT
  8
17
  2
SQUAREP
 10
59.0000
 20
17.0000
 30
0.0000
 41
1.5080
 42
1.5080
 43
1.0000
 50
0.0000
  0
INSERT
  8
17
  2
SQUAREP
 10
64.0000
 20
17.0000
 30
0.0000
 41
1.5080
 42
1.5080
 43
1.0000
 50
0.0000
  0
INSERT
  8
17
  2
SQUAREP
 10
64.0000
 20
17.0000
 30
0.0000
 41
1.5080
 42
1.5080
 43
1.0000
 50
0.0000
  0
INSERT
  8
17
  2
SQUAREP
 10
55.4000
 20
10.0000
 30
0.0000
 41
3.2160
 42
3.2160
 43
1.0000
 50
0.0000
  0
INSERT
  8
17
  2
SQUAREP
 10
55.4000
 20
10.0000
 30
0.0000
 41
3.2160
 42
3.2160
 43
1.0000
 50
0.0000
  0
INSERT
  8
17
  2
SQUAREP
 10
67.6000
 20
10.0000
 30
0.0000
 41
3.2160
 42
3.2160
 43
1.0000
 50
0.0000
  0
INSERT
  8
17
  2
SQUAREP
 10
67.6000
 20
10.0000
 30
0.0000
 41
3.2160
 42
3.2160
 43
1.0000
 50
0.0000
  0
TEXT
  7
ISOCP
  8
25
 10
59.3000
 20
18.7600
 30
0.0000
 40
1.2700
  1
ENC1
  0
POINT
  8
23
 10
29.0000
 20
9.9000
 30
0.0000
  0
LINE
  8
51
 10
27.0442
 20
14.5990
 30
0.0000
 11
27.0442
 21
5.2010
 31
0.0000
  0
ARC
  8
21
 10
30.5748
 20
14.5990
 30
0.0000
 40
0.3810
 50
0.0000
 51
90.0000
  0
ARC
  8
21
 10
27.4252
 20
5.2010
 30
0.0000
 40
0.3810
 50
180.0000
 51
270.0000
  0
ARC
  8
21
 10
27.4252
 20
14.5990
 30
0.0000
 40
0.3810
 50
90.0000
 51
180.0000
  0
ARC
  8
21
 10
30.5748
 20
5.2010
 30
0.0000
 40
0.3810
 50
270.0000
 51
0.0000
  0
LINE
  8
51
 10
30.9558
 20
5.2010
 30
0.0000
 11
30.9558
 21
14.5990
 31
0.0000
  0
LINE
  8
21
 10
30.5748
 20
14.9800
 30
0.0000
 11
27.4252
 21
14.9800
 31
0.0000
  0
LINE
  8
21
 10
27.4252
 20
4.8200
 30
0.0000
 11
28.4920
 21
4.8200
 31
0.0000
  0
LINE
  8
21
 10
28.4920
 20
4.8200
 30
0.0000
 11
29.5080
 21
4.8200
 31
0.0000
  0
LINE
  8
21
 10
29.5080
 20
4.8200
 30
0.0000
 11
30.5748
 21
4.8200
 31
0.0000
  0
ARC
  8
21
 10
29.0000
 20
4.8200
 30
0.0000
 40
0.5080
 50
0.0000
 51
180.0000
  0
LINE
  8
21
 10
30.6002
 20
4.8200
 30
0.0000
 11
30.6002
 21
14.9800
 31
0.0000
  0
INSERT
  8
51
  2
RECT
 10
26.4727
 20
9.2650
 30
0.0000
 41
0.5080
 42
1.1430
 43
1.0000
 50
90.0000
  0
INSERT
  8
51
  2
RECT
 10
31.5273
 20
5.4550
 30
0.0000
 41
0.5080
 42
1.1430
 43
1.0000
 50
90.0000
  0
INSERT
  8
51
  2
RECT
 10
31.5273
 20
6.7250
 30
0.0000
 41
0.5080
 42
1.1430
 43
1.0000
 50
90.0000
  0
INSERT
  8
51
  2
RECT
 10
31.5019
 20
7.9950
 30
0.0000
 41
0.5080
 42
1.1430
 43
1.0000
 50
90.0000
  0
INSERT
  8
51
  2
RECT
 10
31.5273
 20
9.2650
 30
0.0000
 41
0.5080
 42
1.1430
 43
1.0000
 50
90.0000
  0
INSERT
  8
51
  2
RECT
 10
26.4727
 20
7.9950
 30
0.0000
 41
0.5080
 42
1.1430
 43
1.0000
 50
90.0000
  0
INSERT
  8
51
  2
RECT
 10
26.4727
 20
6.7250
 30
0.0000
 41
0.5080
 42
1.1430
 43
1.0000
 50
90.0000
  0
INSERT
  8
51
  2
RECT
 10
26.4727
 20
5.4550
 30
0.0000
 41
0.5080
 42
1.1430
 43
1.0000
 50
90.0000
  0
INSERT
  8
51
  2
RECT
 10
31.5273
 20
10.5350
 30
0.0000
 41
0.5080
 42
1.1430
 43
1.0000
 50
90.0000
  0
INSERT
  8
51
  2
RECT
 10
31.5273
 20
11.8050
 30
0.0000
 41
0.5080
 42
1.1430
 43
1.0000
 50
90.0000
  0
INSERT
  8
51
  2
RECT
 10
31.5273
 20
13.0750
 30
0.0000
 41
0.5080
 42
1.1430
 43
1.0000
 50
90.0000
  0
INSERT
  8
51
  2
RECT
 10
31.5273
 20
14.3450
 30
0.0000
 41
0.5080
 42
1.1430
 43
1.0000
 50
90.0000
  0
INSERT
  8
51
  2
RECT
 10
26.4727
 20
10.5350
 30
0.0000
 41
0.5080
 42
1.1430
 43
1.0000
 50
90.0000
  0
INSERT
  8
51
  2
RECT
 10
26.4727
 20
11.8050
 30
0.0000
 41
0.5080
 42
1.1430
 43
1.0000
 50
90.0000
  0
INSERT
  8
51
  2
RECT
 10
26.4727
 20
13.0750
 30
0.0000
 41
0.5080
 42
1.1430
 43
1.0000
 50
90.0000
  0
INSERT
  8
51
  2
RECT
 10
26.4727
 20
14.3450
 30
0.0000
 41
0.5080
 42
1.1430
 43
1.0000
 50
90.0000
  0
INSERT
  8
1
  2
RECT
 10
32.0734
 20
5.4550
 30
0.0000
 41
0.6604
 42
2.0320
 43
1.0000
 50
90.0000
  0
INSERT
  8
1
  2
RECT
 10
32.0734
 20
6.7250
 30
0.0000
 41
0.6604
 42
2.0320
 43
1.0000
 50
90.0000
  0
INSERT
  8
1
  2
RECT
 10
32.0734
 20
7.9950
 30
0.0000
 41
0.6604
 42
2.0320
 43
1.0000
 50
90.0000
  0
INSERT
  8
1
  2
RECT
 10
32.0734
 20
9.2650
 30
0.0000
 41
0.6604
 42
2.0320
 43
1.0000
 50
90.0000
  0
INSERT
  8
1
  2
RECT
 10
32.0734
 20
10.5350
 30
0.0000
 41
0.6604
 42
2.0320
 43
1.0000
 50
90.0000
  0
INSERT
  8
1
  2
RECT
 10
32.0734
 20
11.8050
 30
0.0000
 41
0.6604
 42
2.0320
 43
1.0000
 50
90.0000
  0
INSERT
  8
1
  2
RECT
 10
32.0734
 20
13.0750
 30
0.0000
 41
0.6604
 42
2.0320
 43
1.0000
 50
90.0000
  0
INSERT
  8
1
  2
RECT
 10
32.0734
 20
14.3450
 30
0.0000
 41
0.6604
 42
2.0320
 43
1.0000
 50
90.0000
  0
INSERT
  8
1
  2
RECT
 10
25.9266
 20
14.3450
 30
0.0000
 41
0.6604
 42
2.0320
 43
1.0000
 50
90.0000
  0
INSERT
  8
1
  2
RECT
 10
25.9266
 20
13.0750
 30
0.0000
 41
0.6604
 42
2.0320
 43
1.0000
 50
90.0000
  0
INSERT
  8
1
  2
RECT
 10
25.9266
 20
11.8050
 30
0.0000
 41
0.6604
 42
2.0320
 43
1.0000
 50
90.0000
  0
INSERT
  8
1
  2
RECT
 10
25.9266
 20
10.5350
 30
0.0000
 41
0.6604
 42
2.0320
 43
1.0000
 50
90.0000
  0
INSERT
  8
1
  2
RECT
 10
25.9266
 20
9.2650
 30
0.0000
 41
0.6604
 42
2.0320
 43
1.0000
 50
90.0000
  0
INSERT
  8
1
  2
RECT
 10
25.9266
 20
7.9950
 30
0.0000
 41
0.6604
 42
2.0320
 43
1.0000
 50
90.0000
  0
INSERT
  8
1
  2
RECT
 10
25.9266
 20
6.7250
 30
0.0000
 41
0.6604
 42
2.0320
 43
1.0000
 50
90.0000
  0
INSERT
  8
1
  2
RECT
 10
25.9266
 20
5.4550
 30
0.0000
 41
0.6604
 42
2.0320
 43
1.0000
 50
90.0000
  0
TEXT
  7
ISOCP
  8
25
 10
30.9050
 20
4.4390
 30
0.0000
 40
1.2700
  1
IC1
 72
2
 73
3
 11
30.9050
 21
4.4390
 31
0.0000
  0
POINT
  8
24
 10
73.2000
 20
16.3000
 30
0.0000
  0
LINE
  8
22
 10
72.5650
 20
15.0300
 30
0.0000
 11
73.8350
 21
15.0300
 31
0.0000
  0
LINE
  8
22
 10
73.8350
 20
15.0300
 30
0.0000
 11
74.4700
 21
15.6650
 31
0.0000
  0
LINE
  8
22
 10
74.4700
 20
16.9350
 30
0.0000
 11
73.8350
 21
17.5700
 31
0.0000
  0
LINE
  8
22
 10
74.4700
 20
15.6650
 30
0.0000
 11
75.1050
 21
15.0300
 31
0.0000
  0
LINE
  8
22
 10
75.1050
 20
15.0300
 30
0.0000
 11
76.3750
 21
15.0300
 31
0.0000
  0
LINE
  8
22
 10
76.3750
 20
15.0300
 30
0.0000
 11
77.0100
 21
15.6650
 31
0.0000
  0
LINE
  8
22
 10
77.0100
 20
16.9350
 30
0.0000
 11
76.3750
 21
17.5700
 31
0.0000
  0
LINE
  8
22
 10
76.3750
 20
17.5700
 30
0.0000
 11
75.1050
 21
17.5700
 31
0.0000
  0
LINE
  8
22
 10
75.1050
 20
17.5700
 30
0.0000
 11
74.4700
 21
16.9350
 31
0.0000
  0
LINE
  8
22
 10
71.9300
 20
15.6650
 30
0.0000
 11
71.9300
 21
16.9350
 31
0.0000
  0
LINE
  8
22
 10
72.5650
 20
15.0300
 30
0.0000
 11
71.9300
 21
15.6650
 31
0.0000
  0
LINE
  8
22
 10
71.9300
 20
16.9350
 30
0.0000
 11
72.5650
 21
17.5700
 31
0.0000
  0
LINE
  8
22
 10
73.8350
 20
17.5700
 30
0.0000
 11
72.5650
 21
17.5700
 31
0.0000
  0
LINE
  8
22
 10
77.0100
 20
15.6650
 30
0.0000
 11
77.0100
 21
16.9350
 31
0.0000
  0
INSERT
  8
52
  2
RECT
 10
75.7400
 20
16.3000
 30
0.0000
 41
0.5080
 42
0.5080
 43
1.0000
 50
0.0000
  0
INSERT
  8
52
  2
RECT
 10
73.2000
 20
16.3000
 30
0.0000
 41
0.5080
 42
0.5080
 43
1.0000
 50
0.0000
  0
INSERT
  8
17
  2
ROUNDP
 10
73.2000
 20
16.3000
 30
0.0000
 41
1.8796
 42
1.8796
 43
1.0000
 50
270.0000
  0
INSERT
  8
17
  2
ROUNDP
 10
73.2000
 20
16.3000
 30
0.0000
 41
1.8796
 42
1.8796
 43
1.0000
 50
270.0000
  0
INSERT
  8
17
  2
ROUNDP
 10
75.7400
 20
16.3000
 30
0.0000
 41
1.8796
 42
1.8796
 43
1.0000
 50
270.0000
  0
INSERT
  8
17
  2
ROUNDP
 10
75.7400
 20
16.3000
 30
0.0000
 41
1.8796
 42
1.8796
 43
1.0000
 50
270.0000
  0
POINT
  8
24
 10
46.0400
 20
10.7100
 30
0.0000
  0
LINE
  8
22
 10
48.8150
 20
16.4250
 30
0.0000
 11
48.8150
 21
15.1550
 31
0.0000
  0
LINE
  8
22
 10
41.5400
 20
20.8100
 30
0.0000
 11
41.5400
 21
0.6100
 31
0.0000
  0
LINE
  8
22
 10
50.5400
 20
0.6100
 30
0.0000
 11
50.5400
 21
8.5100
 31
0.0000
  0
LINE
  8
22
 10
50.5400
 20
8.5100
 30
0.0000
 11
50.5400
 21
12.9100
 31
0.0000
  0
LINE
  8
22
 10
50.5400
 20
12.9100
 30
0.0000
 11
50.5400
 21
20.8100
 31
0.0000
  0
LINE
  8
22
 10
50.5400
 20
20.8100
 30
0.0000
 11
41.6400
 21
20.8100
 31
0.0000
  0
LINE
  8
22
 10
41.5400
 20
0.6100
 30
0.0000
 11
50.5400
 21
0.6100
 31
0.0000
  0
LINE
  8
52
 10
49.4400
 20
19.7100
 30
0.0000
 11
42.6400
 21
19.7100
 31
0.0000
  0
LINE
  8
52
 10
42.6400
 20
19.7100
 30
0.0000
 11
42.6400
 21
1.7100
 31
0.0000
  0
LINE
  8
52
 10
49.4400
 20
1.7100
 30
0.0000
 11
42.6400
 21
1.7100
 31
0.0000
  0
LINE
  8
22
 10
50.5400
 20
12.9100
 30
0.0000
 11
49.0400
 21
12.9100
 31
0.0000
  0
LINE
  8
22
 10
49.0400
 20
12.9100
 30
0.0000
 11
49.0400
 21
8.5100
 31
0.0000
  0
LINE
  8
22
 10
49.0400
 20
8.5100
 30
0.0000
 11
50.5400
 21
8.5100
 31
0.0000
  0
LINE
  8
52
 10
49.4400
 20
19.7100
 30
0.0000
 11
49.4400
 21
12.9100
 31
0.0000
  0
LINE
  8
52
 10
49.4400
 20
1.7100
 30
0.0000
 11
49.4400
 21
8.5100
 31
0.0000
  0
LINE
  8
21
 10
48.8530
 20
16.4250
 30
0.0000
 11
48.8530
 21
15.1550
 31
0.0000
  0
INSERT
  8
52
  2
RECT
 10
47.3100
 20
15.7900
 30
0.0000
 41
0.5080
 42
0.5080
 43
1.0000
 50
270.0000
  0
INSERT
  8
52
  2
RECT
 10
44.7700
 20
15.7900
 30
0.0000
 41
0.5080
 42
0.5080
 43
1.0000
 50
270.0000
  0
INSERT
  8
52
  2
RECT
 10
44.7700
 20
13.2500
 30
0.0000
 41
0.5080
 42
0.5080
 43
1.0000
 50
270.0000
  0
INSERT
  8
52
  2
RECT
 10
47.3100
 20
13.2500
 30
0.0000
 41
0.5080
 42
0.5080
 43
1.0000
 50
270.0000
  0
INSERT
  8
52
  2
RECT
 10
44.7700
 20
10.7100
 30
0.0000
 41
0.5080
 42
0.5080
 43
1.0000
 50
270.0000
  0
INSERT
  8
52
  2
RECT
 10
47.3100
 20
10.7100
 30
0.0000
 41
0.5080
 42
0.5080
 43
1.0000
 50
270.0000
  0
INSERT
  8
52
  2
RECT
 10
44.7700
 20
8.1700
 30
0.0000
 41
0.5080
 42
0.5080
 43
1.0000
 50
270.0000
  0
INSERT
  8
52
  2
RECT
 10
47.3100
 20
8.1700
 30
0.0000
 41
0.5080
 42
0.5080
 43
1.0000
 50
270.0000
  0
INSERT
  8
52
  2
RECT
 10
44.7700
 20
5.6300
 30
0.0000
 41
0.5080
 42
0.5080
 43
1.0000
 50
270.0000
  0
INSERT
  8
52
  2
RECT
 10
47.3100
 20
5.6300
 30
0.0000
 41
0.5080
 42
0.5080
 43
1.0000
 50
270.0000
  0
INSERT
  8
52
  2
RECT
 10
47.3100
 20
8.1700
 30
0.0000
 41
0.5080
 42
0.5080
 43
1.0000
 50
270.0000
  0
INSERT
  8
52
  2
RECT
 10
44.7700
 20
8.1700
 30
0.0000
 41
0.5080
 42
0.5080
 43
1.0000
 50
270.0000
  0
INSERT
  8
17
  2
ROUNDP
 10
47.4370
 20
15.7900
 30
0.0000
 41
1.8796
 42
1.8796
 43
1.0000
 50
270.0000
  0
INSERT
  8
17
  2
ROUNDP
 10
47.4370
 20
15.7900
 30
0.0000
 41
1.8796
 42
1.8796
 43
1.0000
 50
270.0000
  0
INSERT
  8
17
  2
ROUNDP
 10
44.6430
 20
15.7900
 30
0.0000
 41
1.8796
 42
1.8796
 43
1.0000
 50
270.0000
  0
INSERT
  8
17
  2
ROUNDP
 10
44.6430
 20
15.7900
 30
0.0000
 41
1.8796
 42
1.8796
 43
1.0000
 50
270.0000
  0
INSERT
  8
17
  2
ROUNDP
 10
47.4370
 20
13.2500
 30
0.0000
 41
1.8796
 42
1.8796
 43
1.0000
 50
270.0000
  0
INSERT
  8
17
  2
ROUNDP
 10
47.4370
 20
13.2500
 30
0.0000
 41
1.8796
 42
1.8796
 43
1.0000
 50
270.0000
  0
INSERT
  8
17
  2
ROUNDP
 10
44.6430
 20
13.2500
 30
0.0000
 41
1.8796
 42
1.8796
 43
1.0000
 50
270.0000
  0
INSERT
  8
17
  2
ROUNDP
 10
44.6430
 20
13.2500
 30
0.0000
 41
1.8796
 42
1.8796
 43
1.0000
 50
270.0000
  0
INSERT
  8
17
  2
ROUNDP
 10
47.4370
 20
10.7100
 30
0.0000
 41
1.8796
 42
1.8796
 43
1.0000
 50
270.0000
  0
INSERT
  8
17
  2
ROUNDP
 10
47.4370
 20
10.7100
 30
0.0000
 41
1.8796
 42
1.8796
 43
1.0000
 50
270.0000
  0
INSERT
  8
17
  2
ROUNDP
 10
44.6430
 20
10.7100
 30
0.0000
 41
1.8796
 42
1.8796
 43
1.0000
 50
270.0000
  0
INSERT
  8
17
  2
ROUNDP
 10
44.6430
 20
10.7100
 30
0.0000
 41
1.8796
 42
1.8796
 43
1.0000
 50
270.0000
  0
INSERT
  8
17
  2
ROUNDP
 10
47.4370
 20
8.1700
 30
0.0000
 41
1.8796
 42
1.8796
 43
1.0000
 50
270.0000
  0
INSERT
  8
17
  2
ROUNDP
 10
47.4370
 20
8.1700
 30
0.0000
 41
1.8796
 42
1.8796
 43
1.0000
 50
270.0000
  0
INSERT
  8
17
  2
ROUNDP
 10
44.6430
 20
8.1700
 30
0.0000
 41
1.8796
 42
1.8796
 43
1.0000
 50
270.0000
  0
INSERT
  8
17
  2
ROUNDP
 10
44.6430
 20
8.1700
 30
0.0000
 41
1.8796
 42
1.8796
 43
1.0000
 50
270.0000
  0
INSERT
  8
17
  2
ROUNDP
 10
47.4370
 20
5.6300
 30
0.0000
 41
1.8796
 42
1.8796
 43
1.0000
 50
270.0000
  0
INSERT
  8
17
  2
ROUNDP
 10
47.4370
 20
5.6300
 30
0.0000
 41
1.8796
 42
1.8796
 43
1.0000
 50
270.0000
  0
INSERT
  8
17
  2
ROUNDP
 10
44.6430
 20
5.6300
 30
0.0000
 41
1.8796
 42
1.8796
 43
1.0000
 50
270.0000
  0
INSERT
  8
17
  2
ROUNDP
 10
44.6430
 20
5.6300
 30
0.0000
 41
1.8796
 42
1.8796
 43
1.0000
 50
270.0000
  0
LINE
  8
26
 10
40.5066
 20
6.7971
 30
0.0000
 11
40.5066
 21
6.4217
 31
0.0000
  0
ARC
  8
26
 10
40.6139
 20
6.4217
 30
0.0000
 40
0.1072
 50
180.0000
 51
270.0000
  0
LINE
  8
26
 10
40.6139
 20
6.3145
 30
0.0000
 11
40.6675
 21
6.3145
 31
0.0000
  0
ARC
  8
26
 10
40.0778
 20
6.4486
 30
0.0000
 40
0.1341
 50
0.0000
 51
180.0000
  0
ARC
  8
26
 10
40.0778
 20
6.4486
 30
0.0000
 40
0.1341
 50
180.0000
 51
0.0000
  0
ARC
  8
26
 10
40.0778
 20
6.6899
 30
0.0000
 40
0.1072
 50
0.0000
 51
180.0000
  0
ARC
  8
26
 10
40.0778
 20
6.6899
 30
0.0000
 40
0.1072
 50
180.0000
 51
0.0000
  0
LINE
  8
26
 10
39.6913
 20
6.2609
 30
0.0000
 11
39.4768
 21
6.8507
 31
0.0000
  0
LINE
  8
26
 10
38.9562
 20
6.5290
 30
0.0000
 11
39.1171
 21
6.5290
 31
0.0000
  0
ARC
  8
26
 10
39.1171
 20
6.6362
 30
0.0000
 40
0.1072
 50
270.0000
 51
0.0000
  0
LINE
  8
26
 10
39.2243
 20
6.6362
 30
0.0000
 11
39.2243
 21
6.6630
 31
0.0000
  0
ARC
  8
26
 10
39.0902
 20
6.6630
 30
0.0000
 40
0.1341
 50
0.0000
 51
180.0000
  0
LINE
  8
26
 10
38.9562
 20
6.6630
 30
0.0000
 11
38.9562
 21
6.5290
 31
0.0000
  0
ARC
  8
26
 10
39.1707
 20
6.5290
 30
0.0000
 40
0.2145
 50
180.0000
 51
270.0000
  0
POINT
  8
23
 10
21.2000
 20
16.3000
 30
0.0000
  0
LINE
  8
39
 10
19.6000
 20
17.0000
 30
0.0000
 11
22.8000
 21
17.0000
 31
0.0000
  0
LINE
  8
39
 10
22.8000
 20
17.0000
 30
0.0000
 11
22.8000
 21
15.6000
 31
0.0000
  0
LINE
  8
39
 10
22.8000
 20
15.6000
 30
0.0000
 11
19.6000
 21
15.6000
 31
0.0000
  0
LINE
  8
39
 10
19.6000
 20
15.6000
 30
0.0000
 11
19.6000
 21
17.0000
 31
0.0000
  0
LINE
  8
51
 10
20.8440
 20
16.7320
 30
0.0000
 11
21.5560
 21
16.7320
 31
0.0000
  0
LINE
  8
51
 10
20.8440
 20
15.8810
 30
0.0000
 11
21.5560
 21
15.8810
 31
0.0000
  0
INSERT
  8
51
  2
RECT
 10
20.6119
 20
16.3051
 30
0.0000
 41
0.5001
 42
0.9500
 43
1.0000
 50
0.0000
  0
INSERT
  8
51
  2
RECT
 10
21.7803
 20
16.3051
 30
0.0000
 41
0.5001
 42
0.9500
 43
1.0000
 50
0.0000
  0
INSERT
  8
1
  2
RECT
 10
20.3500
 20
16.3000
 30
0.0000
 41
1.1000
 42
1.0000
 43
1.0000
 50
0.0000
  0
INSERT
  8
1
  2
RECT
 10
22.0500
 20
16.3000
 30
0.0000
 41
1.1000
 42
1.0000
 43
1.0000
 50
0.0000
  0
LINE
  8
25
 10
18.2948
 20
16.1255
 30
0.0000
 11
18.2948
 21
16.6081
 31
0.0000
  0
LINE
  8
25
 10
18.2948
 20
16.6081
 30
0.0000
 11
18.4289
 21
16.6081
 31
0.0000
  0
ARC
  8
25
 10
18.4289
 20
16.4740
 30
0.0000
 40
0.1341
 50
270.0000
 51
90.0000
  0
LINE
  8
25
 10
18.4289
 20
16.3400
 30
0.0000
 11
18.2948
 21
16.3400
 31
0.0000
  0
LINE
  8
25
 10
18.5629
 20
16.1255
 30
0.0000
 11
18.4557
 21
16.3400
 31
0.0000
  0
LINE
  8
25
 10
18.8371
 20
16.5009
 30
0.0000
 11
18.9711
 21
16.6081
 31
0.0000
  0
LINE
  8
25
 10
18.9711
 20
16.6081
 30
0.0000
 11
18.9711
 21
16.1255
 31
0.0000
  0
LINE
  8
25
 10
18.8371
 20
16.1255
 30
0.0000
 11
19.1052
 21
16.1255
 31
0.0000
  0
POINT
  8
23
 10
21.1000
 20
12.0000
 30
0.0000
  0
LINE
  8
39
 10
19.5000
 20
12.7000
 30
0.0000
 11
22.7000
 21
12.7000
 31
0.0000
  0
LINE
  8
39
 10
22.7000
 20
12.7000
 30
0.0000
 11
22.7000
 21
11.3000
 31
0.0000
  0
LINE
  8
39
 10
22.7000
 20
11.3000
 30
0.0000
 11
19.5000
 21
11.3000
 31
0.0000
  0
LINE
  8
39
 10
19.5000
 20
11.3000
 30
0.0000
 11
19.5000
 21
12.7000
 31
0.0000
  0
LINE
  8
51
 10
20.7440
 20
12.4320
 30
0.0000
 11
21.4560
 21
12.4320
 31
0.0000
  0
LINE
  8
51
 10
20.7440
 20
11.5810
 30
0.0000
 11
21.4560
 21
11.5810
 31
0.0000
  0
INSERT
  8
51
  2
RECT
 10
20.5119
 20
12.0051
 30
0.0000
 41
0.5001
 42
0.9500
 43
1.0000
 50
0.0000
  0
INSERT
  8
51
  2
RECT
 10
21.6803
 20
12.0051
 30
0.0000
 41
0.5001
 42
0.9500
 43
1.0000
 50
0.0000
  0
INSERT
  8
1
  2
RECT
 10
20.2500
 20
12.0000
 30
0.0000
 41
1.1000
 42
1.0000
 43
1.0000
 50
0.0000
  0
INSERT
  8
1
  2
RECT
 10
21.9500
 20
12.0000
 30
0.0000
 41
1.1000
 42
1.0000
 43
1.0000
 50
0.0000
  0
LINE
  8
25
 10
18.1948
 20
12.3255
 30
0.0000
 11
18.1948
 21
12.8081
 31
0.0000
  0
LINE
  8
25
 10
18.1948
 20
12.8081
 30
0.0000
 11
18.3289
 21
12.8081
 31
0.0000
  0
ARC
  8
25
 10
18.3289
 20
12.6740
 30
0.0000
 40
0.1341
 50
270.0000
 51
90.0000
  0
LINE
  8
25
 10
18.3289
 20
12.5400
 30
0.0000
 11
18.1948
 21
12.5400
 31
0.0000
  0
LINE
  8
25
 10
18.4629
 20
12.3255
 30
0.0000
 11
18.3557
 21
12.5400
 31
0.0000
  0
ARC
  8
25
 10
18.8845
 20
12.6874
 30
0.0000
 40
0.1207
 50
0.0000
 51
90.0000
  0
ARC
  8
25
 10
18.8845
 20
12.6531
 30
0.0000
 40
0.1550
 50
90.0003
 51
162.0552
  0
ARC
  8
25
 10
18.8756
 20
12.6874
 30
0.0000
 40
0.1296
 50
313.6035
 51
359.9998
  0
LINE
  8
25
 10
18.9650
 20
12.5936
 30
0.0000
 11
18.7371
 21
12.3255
 31
0.0000
  0
LINE
  8
25
 10
18.7371
 20
12.3255
 30
0.0000
 11
19.0052
 21
12.3255
 31
0.0000
  0
POINT
  8
23
 10
20.3000
 20
8.2000
 30
0.0000
  0
LINE
  8
39
 10
18.7000
 20
8.9000
 30
0.0000
 11
21.9000
 21
8.9000
 31
0.0000
  0
LINE
  8
39
 10
21.9000
 20
8.9000
 30
0.0000
 11
21.9000
 21
7.5000
 31
0.0000
  0
LINE
  8
39
 10
21.9000
 20
7.5000
 30
0.0000
 11
18.7000
 21
7.5000
 31
0.0000
  0
LINE
  8
39
 10
18.7000
 20
7.5000
 30
0.0000
 11
18.7000
 21
8.9000
 31
0.0000
  0
LINE
  8
51
 10
19.9440
 20
8.6320
 30
0.0000
 11
20.6560
 21
8.6320
 31
0.0000
  0
LINE
  8
51
 10
19.9440
 20
7.7810
 30
0.0000
 11
20.6560
 21
7.7810
 31
0.0000
  0
INSERT
  8
51
  2
RECT
 10
19.7119
 20
8.2051
 30
0.0000
 41
0.5001
 42
0.9500
 43
1.0000
 50
0.0000
  0
INSERT
  8
51
  2
RECT
 10
20.8803
 20
8.2051
 30
0.0000
 41
0.5001
 42
0.9500
 43
1.0000
 50
0.0000
  0
INSERT
  8
1
  2
RECT
 10
19.4500
 20
8.2000
 30
0.0000
 41
1.1000
 42
1.0000
 43
1.0000
 50
0.0000
  0
INSERT
  8
1
  2
RECT
 10
21.1500
 20
8.2000
 30
0.0000
 41
1.1000
 42
1.0000
 43
1.0000
 50
0.0000
  0
LINE
  8
25
 10
17.3948
 20
7.0255
 30
0.0000
 11
17.3948
 21
7.5081
 31
0.0000
  0
LINE
  8
25
 10
17.3948
 20
7.5081
 30
0.0000
 11
17.5289
 21
7.5081
 31
0.0000
  0
ARC
  8
25
 10
17.5289
 20
7.3740
 30
0.0000
 40
0.1341
 50
270.0000
 51
90.0000
  0
LINE
  8
25
 10
17.5289
 20
7.2400
 30
0.0000
 11
17.3948
 21
7.2400
 31
0.0000
  0
LINE
  8
25
 10
17.6629
 20
7.0255
 30
0.0000
 11
17.5557
 21
7.2400
 31
0.0000
  0
LINE
  8
25
 10
17.9371
 20
7.0255
 30
0.0000
 11
18.0711
 21
7.0255
 31
0.0000
  0
ARC
  8
25
 10
18.0711
 20
7.1596
 30
0.0000
 40
0.1341
 50
270.0000
 51
90.0000
  0
LINE
  8
25
 10
17.9371
 20
7.5081
 30
0.0000
 11
18.0979
 21
7.5081
 31
0.0000
  0
ARC
  8
25
 10
18.0979
 20
7.4009
 30
0.0000
 40
0.1072
 50
270.0000
 51
90.0000
  0
LINE
  8
25
 10
18.0979
 20
7.2936
 30
0.0000
 11
17.9907
 21
7.2936
 31
0.0000
  0
POINT
  8
23
 10
21.4000
 20
4.2000
 30
0.0000
  0
LINE
  8
39
 10
19.8000
 20
4.9000
 30
0.0000
 11
23.0000
 21
4.9000
 31
0.0000
  0
LINE
  8
39
 10
23.0000
 20
4.9000
 30
0.0000
 11
23.0000
 21
3.5000
 31
0.0000
  0
LINE
  8
39
 10
23.0000
 20
3.5000
 30
0.0000
 11
19.8000
 21
3.5000
 31
0.0000
  0
LINE
  8
39
 10
19.8000
 20
3.5000
 30
0.0000
 11
19.8000
 21
4.9000
 31
0.0000
  0
LINE
  8
51
 10
21.0440
 20
4.6320
 30
0.0000
 11
21.7560
 21
4.6320
 31
0.0000
  0
LINE
  8
51
 10
21.0440
 20
3.7810
 30
0.0000
 11
21.7560
 21
3.7810
 31
0.0000
  0
INSERT
  8
51
  2
RECT
 10
20.8118
 20
4.2051
 30
0.0000
 41
0.5001
 42
0.9500
 43
1.0000
 50
0.0000
  0
INSERT
  8
51
  2
RECT
 10
21.9803
 20
4.2051
 30
0.0000
 41
0.5001
 42
0.9500
 43
1.0000
 50
0.0000
  0
INSERT
  8
1
  2
RECT
 10
20.5500
 20
4.2000
 30
0.0000
 41
1.1000
 42
1.0000
 43
1.0000
 50
0.0000
  0
INSERT
  8
1
  2
RECT
 10
22.2500
 20
4.2000
 30
0.0000
 41
1.1000
 42
1.0000
 43
1.0000
 50
0.0000
  0
LINE
  8
25
 10
18.4948
 20
3.5255
 30
0.0000
 11
18.4948
 21
4.0081
 31
0.0000
  0
LINE
  8
25
 10
18.4948
 20
4.0081
 30
0.0000
 11
18.6289
 21
4.0081
 31
0.0000
  0
ARC
  8
25
 10
18.6289
 20
3.8740
 30
0.0000
 40
0.1341
 50
270.0000
 51
90.0000
  0
LINE
  8
25
 10
18.6289
 20
3.7400
 30
0.0000
 11
18.4948
 21
3.7400
 31
0.0000
  0
LINE
  8
25
 10
18.7629
 20
3.5255
 30
0.0000
 11
18.6557
 21
3.7400
 31
0.0000
  0
LINE
  8
25
 10
19.1443
 20
4.0081
 30
0.0000
 11
19.0371
 21
3.6327
 31
0.0000
  0
LINE
  8
25
 10
19.0371
 20
3.6327
 30
0.0000
 11
19.3052
 21
3.6327
 31
0.0000
  0
LINE
  8
25
 10
19.2248
 20
3.7400
 30
0.0000
 11
19.2248
 21
3.5255
 31
0.0000
  0
POINT
  8
23
 10
37.5000
 20
4.0000
 30
0.0000
  0
LINE
  8
39
 10
39.1000
 20
3.3000
 30
0.0000
 11
35.9000
 21
3.3000
 31
0.0000
  0
LINE
  8
39
 10
35.9000
 20
3.3000
 30
0.0000
 11
35.9000
 21
4.7000
 31
0.0000
  0
LINE
  8
39
 10
35.9000
 20
4.7000
 30
0.0000
 11
39.1000
 21
4.7000
 31
0.0000
  0
LINE
  8
39
 10
39.1000
 20
4.7000
 30
0.0000
 11
39.1000
 21
3.3000
 31
0.0000
  0
LINE
  8
51
 10
37.8560
 20
3.5680
 30
0.0000
 11
37.1440
 21
3.5680
 31
0.0000
  0
LINE
  8
51
 10
37.8560
 20
4.4190
 30
0.0000
 11
37.1440
 21
4.4190
 31
0.0000
  0
INSERT
  8
51
  2
RECT
 10
38.0881
 20
3.9949
 30
0.0000
 41
0.5001
 42
0.9500
 43
1.0000
 50
180.0000
  0
INSERT
  8
51
  2
RECT
 10
36.9198
 20
3.9949
 30
0.0000
 41
0.5001
 42
0.9500
 43
1.0000
 50
180.0000
  0
INSERT
  8
1
  2
RECT
 10
38.3500
 20
4.0000
 30
0.0000
 41
1.1000
 42
1.0000
 43
1.0000
 50
180.0000
  0
INSERT
  8
1
  2
RECT
 10
36.6500
 20
4.0000
 30
0.0000
 41
1.1000
 42
1.0000
 43
1.0000
 50
180.0000
  0
LINE
  8
25
 10
37.0948
 20
2.6919
 30
0.0000
 11
37.0948
 21
3.1745
 31
0.0000
  0
LINE
  8
25
 10
37.0948
 20
3.1745
 30
0.0000
 11
37.2289
 21
3.1745
 31
0.0000
  0
ARC
  8
25
 10
37.2289
 20
3.0404
 30
0.0000
 40
0.1341
 50
270.0000
 51
90.0000
  0
LINE
  8
25
 10
37.2289
 20
2.9064
 30
0.0000
 11
37.0948
 21
2.9064
 31
0.0000
  0
LINE
  8
25
 10
37.3629
 20
2.6919
 30
0.0000
 11
37.2557
 21
2.9064
 31
0.0000
  0
LINE
  8
25
 10
37.6371
 20
2.6919
 30
0.0000
 11
37.7979
 21
2.6919
 31
0.0000
  0
ARC
  8
25
 10
37.7979
 20
2.7991
 30
0.0000
 40
0.1072
 50
270.0000
 51
0.0000
  0
LINE
  8
25
 10
37.9052
 20
2.7991
 30
0.0000
 11
37.9052
 21
2.8528
 31
0.0000
  0
ARC
  8
25
 10
37.7979
 20
2.8528
 30
0.0000
 40
0.1072
 50
0.0000
 51
90.0000
  0
LINE
  8
25
 10
37.7979
 20
2.9600
 30
0.0000
 11
37.6371
 21
2.9600
 31
0.0000
  0
LINE
  8
25
 10
37.6371
 20
2.9600
 30
0.0000
 11
37.6371
 21
3.1745
 31
0.0000
  0
LINE
  8
25
 10
37.6371
 20
3.1745
 30
0.0000
 11
37.9052
 21
3.1745
 31
0.0000
  0
POINT
  8
23
 10
37.5000
 20
8.0000
 30
0.0000
  0
LINE
  8
39
 10
39.1000
 20
7.3000
 30
0.0000
 11
35.9000
 21
7.3000
 31
0.0000
  0
LINE
  8
39
 10
35.9000
 20
7.3000
 30
0.0000
 11
35.9000
 21
8.7000
 31
0.0000
  0
LINE
  8
39
 10
35.9000
 20
8.7000
 30
0.0000
 11
39.1000
 21
8.7000
 31
0.0000
  0
LINE
  8
39
 10
39.1000
 20
8.7000
 30
0.0000
 11
39.1000
 21
7.3000
 31
0.0000
  0
LINE
  8
51
 10
37.8560
 20
7.5680
 30
0.0000
 11
37.1440
 21
7.5680
 31
0.0000
  0
LINE
  8
51
 10
37.8560
 20
8.4190
 30
0.0000
 11
37.1440
 21
8.4190
 31
0.0000
  0
INSERT
  8
51
  2
RECT
 10
38.0881
 20
7.9949
 30
0.0000
 41
0.5001
 42
0.9500
 43
1.0000
 50
180.0000
  0
INSERT
  8
51
  2
RECT
 10
36.9198
 20
7.9949
 30
0.0000
 41
0.5001
 42
0.9500
 43
1.0000
 50
180.0000
  0
INSERT
  8
1
  2
RECT
 10
38.3500
 20
8.0000
 30
0.0000
 41
1.1000
 42
1.0000
 43
1.0000
 50
180.0000
  0
INSERT
  8
1
  2
RECT
 10
36.6500
 20
8.0000
 30
0.0000
 41
1.1000
 42
1.0000
 43
1.0000
 50
180.0000
  0
LINE
  8
25
 10
36.6948
 20
5.8919
 30
0.0000
 11
36.6948
 21
6.3745
 31
0.0000
  0
LINE
  8
25
 10
36.6948
 20
6.3745
 30
0.0000
 11
36.8289
 21
6.3745
 31
0.0000
  0
ARC
  8
25
 10
36.8289
 20
6.2404
 30
0.0000
 40
0.1341
 50
270.0000
 51
90.0000
  0
LINE
  8
25
 10
36.8289
 20
6.1064
 30
0.0000
 11
36.6948
 21
6.1064
 31
0.0000
  0
LINE
  8
25
 10
36.9629
 20
5.8919
 30
0.0000
 11
36.8557
 21
6.1064
 31
0.0000
  0
LINE
  8
25
 10
37.2371
 20
6.1600
 30
0.0000
 11
37.3979
 21
6.1600
 31
0.0000
  0
ARC
  8
25
 10
37.3979
 20
6.0528
 30
0.0000
 40
0.1072
 50
0.0000
 51
90.0000
  0
LINE
  8
25
 10
37.5052
 20
6.0528
 30
0.0000
 11
37.5052
 21
6.0260
 31
0.0000
  0
ARC
  8
25
 10
37.3711
 20
6.0260
 30
0.0000
 40
0.1341
 50
180.0000
 51
0.0000
  0
LINE
  8
25
 10
37.2371
 20
6.0260
 30
0.0000
 11
37.2371
 21
6.1600
 31
0.0000
  0
ARC
  8
25
 10
37.4516
 20
6.1600
 30
0.0000
 40
0.2145
 50
90.0008
 51
180.0000
  0
LINE
  8
27
 10
36.8340
 20
8.2009
 30
0.0000
 11
36.9681
 21
8.3081
 31
0.0000
  0
LINE
  8
27
 10
36.9681
 20
8.3081
 30
0.0000
 11
36.9681
 21
7.8255
 31
0.0000
  0
LINE
  8
27
 10
36.8340
 20
7.8255
 30
0.0000
 11
37.1021
 21
7.8255
 31
0.0000
  0
ARC
  8
27
 10
37.7803
 20
8.0668
 30
0.0000
 40
0.3977
 50
154.0111
 51
180.0003
  0
ARC
  8
27
 10
37.5167
 20
8.2089
 30
0.0000
 40
0.0992
 50
90.0003
 51
161.0762
  0
ARC
  8
27
 10
37.5167
 20
8.2089
 30
0.0000
 40
0.0992
 50
18.9253
 51
90.0001
  0
ARC
  8
27
 10
37.2530
 20
8.0668
 30
0.0000
 40
0.3977
 50
359.9998
 51
25.9888
  0
ARC
  8
27
 10
37.7804
 20
8.0668
 30
0.0000
 40
0.3977
 50
180.0000
 51
205.9882
  0
ARC
  8
27
 10
37.5167
 20
7.9247
 30
0.0000
 40
0.0992
 50
198.9260
 51
270.0001
  0
ARC
  8
27
 10
37.2530
 20
8.0668
 30
0.0000
 40
0.3977
 50
334.0119
 51
359.9999
  0
ARC
  8
27
 10
37.5167
 20
7.9247
 30
0.0000
 40
0.0992
 50
269.9995
 51
341.0726
  0
LINE
  8
27
 10
37.4094
 20
7.9327
 30
0.0000
 11
37.6239
 21
8.2009
 31
0.0000
  0
LINE
  8
27
 10
37.9515
 20
7.8255
 30
0.0000
 11
37.9515
 21
8.3081
 31
0.0000
  0
LINE
  8
27
 10
38.1660
 20
8.1472
 30
0.0000
 11
37.9515
 21
7.9864
 31
0.0000
  0
LINE
  8
27
 10
38.1660
 20
7.8255
 30
0.0000
 11
38.0453
 21
8.0534
 31
0.0000
  0
POINT
  8
23
 10
37.5000
 20
12.0000
 30
0.0000
  0
LINE
  8
39
 10
39.1000
 20
11.3000
 30
0.0000
 11
35.9000
 21
11.3000
 31
0.0000
  0
LINE
  8
39
 10
35.9000
 20
11.3000
 30
0.0000
 11
35.9000
 21
12.7000
 31
0.0000
  0
LINE
  8
39
 10
35.9000
 20
12.7000
 30
0.0000
 11
39.1000
 21
12.7000
 31
0.0000
  0
LINE
  8
39
 10
39.1000
 20
12.7000
 30
0.0000
 11
39.1000
 21
11.3000
 31
0.0000
  0
LINE
  8
51
 10
37.8560
 20
11.5680
 30
0.0000
 11
37.1440
 21
11.5680
 31
0.0000
  0
LINE
  8
51
 10
37.8560
 20
12.4190
 30
0.0000
 11
37.1440
 21
12.4190
 31
0.0000
  0
INSERT
  8
51
  2
RECT
 10
38.0881
 20
11.9949
 30
0.0000
 41
0.5001
 42
0.9500
 43
1.0000
 50
180.0000
  0
INSERT
  8
51
  2
RECT
 10
36.9198
 20
11.9949
 30
0.0000
 41
0.5001
 42
0.9500
 43
1.0000
 50
180.0000
  0
INSERT
  8
1
  2
RECT
 10
38.3500
 20
12.0000
 30
0.0000
 41
1.1000
 42
1.0000
 43
1.0000
 50
180.0000
  0
INSERT
  8
1
  2
RECT
 10
36.6500
 20
12.0000
 30
0.0000
 41
1.1000
 42
1.0000
 43
1.0000
 50
180.0000
  0
LINE
  8
25
 10
37.0948
 20
10.0919
 30
0.0000
 11
37.0948
 21
10.5745
 31
0.0000
  0
LINE
  8
25
 10
37.0948
 20
10.5745
 30
0.0000
 11
37.2289
 21
10.5745
 31
0.0000
  0
ARC
  8
25
 10
37.2289
 20
10.4404
 30
0.0000
 40
0.1341
 50
270.0000
 51
90.0000
  0
LINE
  8
25
 10
37.2289
 20
10.3064
 30
0.0000
 11
37.0948
 21
10.3064
 31
0.0000
  0
LINE
  8
25
 10
37.3629
 20
10.0919
 30
0.0000
 11
37.2557
 21
10.3064
 31
0.0000
  0
LINE
  8
25
 10
37.6371
 20
10.5209
 30
0.0000
 11
37.6371
 21
10.5745
 31
0.0000
  0
LINE
  8
25
 10
37.6371
 20
10.5745
 30
0.0000
 11
37.9052
 21
10.5745
 31
0.0000
  0
LINE
  8
25
 10
37.9052
 20
10.5745
 30
0.0000
 11
37.7711
 21
10.0919
 31
0.0000
  0
LINE
  8
27
 10
36.8340
 20
12.2009
 30
0.0000
 11
36.9681
 21
12.3081
 31
0.0000
  0
LINE
  8
27
 10
36.9681
 20
12.3081
 30
0.0000
 11
36.9681
 21
11.8255
 31
0.0000
  0
LINE
  8
27
 10
36.8340
 20
11.8255
 30
0.0000
 11
37.1021
 21
11.8255
 31
0.0000
  0
ARC
  8
27
 10
37.7803
 20
12.0668
 30
0.0000
 40
0.3977
 50
154.0111
 51
180.0003
  0
ARC
  8
27
 10
37.5167
 20
12.2089
 30
0.0000
 40
0.0992
 50
90.0003
 51
161.0762
  0
ARC
  8
27
 10
37.5167
 20
12.2089
 30
0.0000
 40
0.0992
 50
18.9253
 51
90.0001
  0
ARC
  8
27
 10
37.2530
 20
12.0668
 30
0.0000
 40
0.3977
 50
359.9998
 51
25.9888
  0
ARC
  8
27
 10
37.7804
 20
12.0668
 30
0.0000
 40
0.3977
 50
180.0000
 51
205.9882
  0
ARC
  8
27
 10
37.5167
 20
11.9247
 30
0.0000
 40
0.0992
 50
198.9260
 51
270.0001
  0
ARC
  8
27
 10
37.2530
 20
12.0668
 30
0.0000
 40
0.3977
 50
334.0119
 51
359.9999
  0
ARC
  8
27
 10
37.5167
 20
11.9247
 30
0.0000
 40
0.0992
 50
269.9995
 51
341.0726
  0
LINE
  8
27
 10
37.4094
 20
11.9327
 30
0.0000
 11
37.6239
 21
12.2009
 31
0.0000
  0
LINE
  8
27
 10
37.9515
 20
11.8255
 30
0.0000
 11
37.9515
 21
12.3081
 31
0.0000
  0
LINE
  8
27
 10
38.1660
 20
12.1472
 30
0.0000
 11
37.9515
 21
11.9864
 31
0.0000
  0
LINE
  8
27
 10
38.1660
 20
11.8255
 30
0.0000
 11
38.0453
 21
12.0534
 31
0.0000
  0
POINT
  8
23
 10
37.5000
 20
16.0000
 30
0.0000
  0
LINE
  8
39
 10
39.1000
 20
15.3000
 30
0.0000
 11
35.9000
 21
15.3000
 31
0.0000
  0
LINE
  8
39
 10
35.9000
 20
15.3000
 30
0.0000
 11
35.9000
 21
16.7000
 31
0.0000
  0
LINE
  8
39
 10
35.9000
 20
16.7000
 30
0.0000
 11
39.1000
 21
16.7000
 31
0.0000
  0
LINE
  8
39
 10
39.1000
 20
16.7000
 30
0.0000
 11
39.1000
 21
15.3000
 31
0.0000
  0
LINE
  8
51
 10
37.8560
 20
15.5680
 30
0.0000
 11
37.1440
 21
15.5680
 31
0.0000
  0
LINE
  8
51
 10
37.8560
 20
16.4190
 30
0.0000
 11
37.1440
 21
16.4190
 31
0.0000
  0
INSERT
  8
51
  2
RECT
 10
38.0881
 20
15.9949
 30
0.0000
 41
0.5001
 42
0.9500
 43
1.0000
 50
180.0000
  0
INSERT
  8
51
  2
RECT
 10
36.9198
 20
15.9949
 30
0.0000
 41
0.5001
 42
0.9500
 43
1.0000
 50
180.0000
  0
INSERT
  8
1
  2
RECT
 10
38.3500
 20
16.0000
 30
0.0000
 41
1.1000
 42
1.0000
 43
1.0000
 50
180.0000
  0
INSERT
  8
1
  2
RECT
 10
36.6500
 20
16.0000
 30
0.0000
 41
1.1000
 42
1.0000
 43
1.0000
 50
180.0000
  0
LINE
  8
25
 10
36.8948
 20
14.1919
 30
0.0000
 11
36.8948
 21
14.6745
 31
0.0000
  0
LINE
  8
25
 10
36.8948
 20
14.6745
 30
0.0000
 11
37.0289
 21
14.6745
 31
0.0000
  0
ARC
  8
25
 10
37.0289
 20
14.5404
 30
0.0000
 40
0.1341
 50
270.0000
 51
90.0000
  0
LINE
  8
25
 10
37.0289
 20
14.4064
 30
0.0000
 11
36.8948
 21
14.4064
 31
0.0000
  0
LINE
  8
25
 10
37.1629
 20
14.1919
 30
0.0000
 11
37.0557
 21
14.4064
 31
0.0000
  0
ARC
  8
25
 10
37.5711
 20
14.3260
 30
0.0000
 40
0.1341
 50
0.0000
 51
180.0000
  0
ARC
  8
25
 10
37.5711
 20
14.3260
 30
0.0000
 40
0.1341
 50
180.0000
 51
0.0000
  0
ARC
  8
25
 10
37.5711
 20
14.5673
 30
0.0000
 40
0.1072
 50
0.0000
 51
180.0000
  0
ARC
  8
25
 10
37.5711
 20
14.5673
 30
0.0000
 40
0.1072
 50
180.0000
 51
0.0000
  0
POINT
  8
23
 10
113.0000
 20
14.0000
 30
0.0000
  0
LINE
  8
21
 10
111.0950
 20
15.9050
 30
0.0000
 11
114.9050
 21
15.9050
 31
0.0000
  0
LINE
  8
21
 10
114.9050
 20
12.0950
 30
0.0000
 11
114.9050
 21
15.9050
 31
0.0000
  0
LINE
  8
21
 10
114.9050
 20
12.0950
 30
0.0000
 11
111.0950
 21
12.0950
 31
0.0000
  0
LINE
  8
21
 10
111.0950
 20
15.9050
 30
0.0000
 11
111.0950
 21
12.0950
 31
0.0000
  0
LINE
  8
21
 10
111.3490
 20
15.6510
 30
0.0000
 11
114.6510
 21
15.6510
 31
0.0000
  0
LINE
  8
21
 10
114.6510
 20
12.3490
 30
0.0000
 11
114.6510
 21
15.6510
 31
0.0000
  0
LINE
  8
21
 10
114.6510
 20
12.3490
 30
0.0000
 11
111.3490
 21
12.3490
 31
0.0000
  0
LINE
  8
21
 10
111.3490
 20
15.6510
 30
0.0000
 11
111.3490
 21
12.3490
 31
0.0000
  0
LINE
  8
21
 10
111.9840
 20
20.0960
 30
0.0000
 11
111.9840
 21
20.4770
 31
0.0000
  0
LINE
  8
21
 10
111.9840
 20
20.0960
 30
0.0000
 11
114.0160
 21
20.0960
 31
0.0000
  0
LINE
  8
21
 10
111.9840
 20
20.4770
 30
0.0000
 11
114.0160
 21
20.4770
 31
0.0000
  0
LINE
  8
21
 10
114.0160
 20
20.4770
 30
0.0000
 11
114.0160
 21
20.0960
 31
0.0000
  0
LINE
  8
21
 10
119.0960
 20
19.0800
 30
0.0000
 11
118.0800
 21
20.0960
 31
0.0000
  0
LINE
  8
21
 10
118.0800
 20
20.0960
 30
0.0000
 11
114.7780
 21
20.0960
 31
0.0000
  0
LINE
  8
21
 10
119.0960
 20
19.0800
 30
0.0000
 11
119.0960
 21
17.8100
 31
0.0000
  0
LINE
  8
51
 10
119.0960
 20
15.1430
 30
0.0000
 11
119.0960
 21
17.8100
 31
0.0000
  0
LINE
  8
21
 10
119.0960
 20
15.1430
 30
0.0000
 11
119.0960
 21
12.8570
 31
0.0000
  0
LINE
  8
51
 10
119.0960
 20
10.1900
 30
0.0000
 11
119.0960
 21
12.8570
 31
0.0000
  0
LINE
  8
21
 10
118.0800
 20
7.9040
 30
0.0000
 11
119.0960
 21
8.9200
 31
0.0000
  0
LINE
  8
21
 10
119.0960
 20
8.9200
 30
0.0000
 11
119.0960
 21
10.1900
 31
0.0000
  0
LINE
  8
51
 10
106.9040
 20
15.1430
 30
0.0000
 11
106.9040
 21
17.8100
 31
0.0000
  0
LINE
  8
21
 10
106.9040
 20
15.1430
 30
0.0000
 11
106.9040
 21
12.8570
 31
0.0000
  0
LINE
  8
51
 10
106.9040
 20
10.1900
 30
0.0000
 11
106.9040
 21
12.8570
 31
0.0000
  0
LINE
  8
21
 10
106.9040
 20
10.1900
 30
0.0000
 11
106.9040
 21
8.9200
 31
0.0000
  0
LINE
  8
21
 10
106.9040
 20
8.9200
 30
0.0000
 11
107.9200
 21
7.9040
 31
0.0000
  0
LINE
  8
21
 10
107.9200
 20
7.9040
 30
0.0000
 11
111.2220
 21
7.9040
 31
0.0000
  0
LINE
  8
21
 10
107.9200
 20
20.0960
 30
0.0000
 11
111.2220
 21
20.0960
 31
0.0000
  0
LINE
  8
21
 10
107.9200
 20
20.0960
 30
0.0000
 11
106.9040
 21
19.0800
 31
0.0000
  0
LINE
  8
21
 10
106.9040
 20
19.0800
 30
0.0000
 11
106.9040
 21
17.8100
 31
0.0000
  0
LINE
  8
21
 10
111.9840
 20
7.5230
 30
0.0000
 11
114.0160
 21
7.5230
 31
0.0000
  0
LINE
  8
21
 10
111.9840
 20
7.5230
 30
0.0000
 11
111.9840
 21
7.9040
 31
0.0000
  0
LINE
  8
21
 10
114.0160
 20
7.9040
 30
0.0000
 11
114.0160
 21
7.5230
 31
0.0000
  0
LINE
  8
21
 10
118.0800
 20
20.0960
 30
0.0000
 11
117.8260
 21
20.3500
 31
0.0000
  0
LINE
  8
21
 10
117.8260
 20
20.3500
 30
0.0000
 11
114.7780
 21
20.3500
 31
0.0000
  0
LINE
  8
21
 10
114.7780
 20
20.3500
 30
0.0000
 11
114.7780
 21
20.0960
 31
0.0000
  0
LINE
  8
21
 10
114.7780
 20
20.0960
 30
0.0000
 11
114.0160
 21
20.0960
 31
0.0000
  0
LINE
  8
21
 10
111.2220
 20
20.3500
 30
0.0000
 11
111.2220
 21
20.0960
 31
0.0000
  0
LINE
  8
21
 10
111.2220
 20
20.0960
 30
0.0000
 11
111.9840
 21
20.0960
 31
0.0000
  0
LINE
  8
21
 10
111.2220
 20
20.3500
 30
0.0000
 11
108.1740
 21
20.3500
 31
0.0000
  0
LINE
  8
21
 10
107.9200
 20
20.0960
 30
0.0000
 11
108.1740
 21
20.3500
 31
0.0000
  0
LINE
  8
21
 10
111.9840
 20
7.9040
 30
0.0000
 11
114.0160
 21
7.9040
 31
0.0000
  0
LINE
  8
21
 10
114.0160
 20
7.9040
 30
0.0000
 11
114.7780
 21
7.9040
 31
0.0000
  0
LINE
  8
21
 10
111.2220
 20
7.9040
 30
0.0000
 11
111.2220
 21
7.6500
 31
0.0000
  0
LINE
  8
21
 10
111.2220
 20
7.9040
 30
0.0000
 11
111.9840
 21
7.9040
 31
0.0000
  0
LINE
  8
21
 10
111.2220
 20
7.6500
 30
0.0000
 11
108.1740
 21
7.6500
 31
0.0000
  0
LINE
  8
21
 10
108.1740
 20
7.6500
 30
0.0000
 11
107.9200
 21
7.9040
 31
0.0000
  0
LINE
  8
21
 10
114.7780
 20
7.9040
 30
0.0000
 11
114.7780
 21
7.6500
 31
0.0000
  0
LINE
  8
21
 10
114.7780
 20
7.9040
 30
0.0000
 11
118.0800
 21
7.9040
 31
0.0000
  0
LINE
  8
21
 10
117.8260
 20
7.6500
 30
0.0000
 11
114.7780
 21
7.6500
 31
0.0000
  0
LINE
  8
21
 10
118.0800
 20
7.9040
 30
0.0000
 11
117.8260
 21
7.6500
 31
0.0000
  0
LINE
  8
51
 10
107.9200
 20
16.5400
 30
0.0000
 11
108.4280
 21
16.5400
 31
0.0000
  0
LINE
  8
51
 10
115.9210
 20
16.5400
 30
0.0000
 11
118.0800
 21
16.5400
 31
0.0000
  0
LINE
  8
51
 10
107.9200
 20
11.4600
 30
0.0000
 11
108.4280
 21
11.4600
 31
0.0000
  0
LINE
  8
51
 10
115.9210
 20
11.4600
 30
0.0000
 11
118.0800
 21
11.4600
 31
0.0000
  0
LINE
  8
51
 10
108.4280
 20
16.5400
 30
0.0000
 11
108.4280
 21
14.7620
 31
0.0000
  0
LINE
  8
51
 10
108.4280
 20
16.5400
 30
0.0000
 11
110.0790
 21
16.5400
 31
0.0000
  0
LINE
  8
51
 10
108.4280
 20
14.7620
 30
0.0000
 11
107.9200
 21
13.2380
 31
0.0000
  0
LINE
  8
51
 10
108.4280
 20
13.2380
 30
0.0000
 11
108.4280
 21
11.4600
 31
0.0000
  0
LINE
  8
51
 10
108.4280
 20
11.4600
 30
0.0000
 11
110.0790
 21
11.4600
 31
0.0000
  0
TEXT
  7
ISOCP
  8
21
 10
107.7930
 20
17.3020
 30
0.0000
 40
1.2700
  1
1
  0
TEXT
  7
ISOCP
  8
21
 10
116.9370
 20
17.3020
 30
0.0000
 40
1.2700
  1
2
  0
TEXT
  7
ISOCP
  8
21
 10
107.7930
 20
9.3010
 30
0.0000
 40
1.2700
  1
3
  0
TEXT
  7
ISOCP
  8
21
 10
117.0640
 20
9.3010
 30
0.0000
 40
1.2700
  1
4
  0
CIRCLE
  8
21
 10
113.0000
 20
14.0000
 30
0.0000
 40
3.5560
  0
CIRCLE
  8
21
 10
113.0000
 20
14.0000
 30
0.0000
 40
1.0160
  0
CIRCLE
  8
21
 10
113.0000
 20
14.0000
 30
0.0000
 40
0.7620
  0
CIRCLE
  8
51
 10
108.4280
 20
16.5400
 30
0.0000
 40
0.1270
  0
CIRCLE
  8
51
 10
108.4280
 20
11.4600
 30
0.0000
 40
0.1270
  0
INSERT
  8
51
  2
RECT
 10
119.3500
 20
11.5235
 30
0.0000
 41
0.5080
 42
0.8890
 43
1.0000
 50
0.0000
  0
INSERT
  8
51
  2
RECT
 10
119.3500
 20
16.4765
 30
0.0000
 41
0.5080
 42
0.8890
 43
1.0000
 50
0.0000
  0
INSERT
  8
51
  2
RECT
 10
106.6500
 20
16.4765
 30
0.0000
 41
0.5080
 42
0.8890
 43
1.0000
 50
0.0000
  0
INSERT
  8
51
  2
RECT
 10
106.6500
 20
11.5235
 30
0.0000
 41
0.5080
 42
0.8890
 43
1.0000
 50
0.0000
  0
INSERT
  8
21
  2
RECT
 10
116.3655
 20
20.0960
 30
0.0000
 41
2.1590
 42
0.5080
 43
1.0000
 50
0.0000
  0
INSERT
  8
21
  2
RECT
 10
109.6345
 20
20.0960
 30
0.0000
 41
2.1590
 42
0.5080
 43
1.0000
 50
0.0000
  0
INSERT
  8
21
  2
RECT
 10
116.3655
 20
7.9040
 30
0.0000
 41
2.1590
 42
0.5080
 43
1.0000
 50
0.0000
  0
INSERT
  8
21
  2
RECT
 10
109.6345
 20
7.9040
 30
0.0000
 41
2.1590
 42
0.5080
 43
1.0000
 50
0.0000
  0
CIRCLE
  8
20
 10
113.0000
 20
9.5042
 30
0.0000
 40
0.9017
  0
CIRCLE
  8
20
 10
113.0000
 20
18.4958
 30
0.0000
 40
0.9017
  0
INSERT
  8
17
  2
LONGP100
 10
106.7516
 20
16.4892
 30
0.0000
 41
1.7907
 42
1.7907
 43
1.0000
 50
0.0000
  0
INSERT
  8
17
  2
LONGP100
 10
106.7516
 20
16.4892
 30
0.0000
 41
1.7907
 42
1.7907
 43
1.0000
 50
0.0000
  0
INSERT
  8
17
  2
LONGP100
 10
119.2484
 20
16.4892
 30
0.0000
 41
1.7907
 42
1.7907
 43
1.0000
 50
0.0000
  0
INSERT
  8
17
  2
LONGP100
 10
119.2484
 20
16.4892
 30
0.0000
 41
1.7907
 42
1.7907
 43
1.0000
 50
0.0000
  0
INSERT
  8
17
  2
LONGP100
 10
106.7516
 20
11.5108
 30
0.0000
 41
1.7907
 42
1.7907
 43
1.0000
 50
0.0000
  0
INSERT
  8
17
  2
LONGP100
 10
106.7516
 20
11.5108
 30
0.0000
 41
1.7907
 42
1.7907
 43
1.0000
 50
0.0000
  0
INSERT
  8
17
  2
LONGP100
 10
119.2484
 20
11.5108
 30
0.0000
 41
1.7907
 42
1.7907
 43
1.0000
 50
0.0000
  0
INSERT
  8
17
  2
LONGP100
 10
119.2484
 20
11.5108
 30
0.0000
 41
1.7907
 42
1.7907
 43
1.0000
 50
0.0000
  0
TEXT
  7
ISOCP
  8
25
 10
111.4200
 20
21.4850
 30
0.0000
 40
1.2700
  1
S1
  0
TEXT
  7
ISOCP
  8
27
 10
109.8250
 20
8.9200
 30
0.0000
 40
1.2700
  1

  0
POINT
  8
23
 10
10.0000
 20
14.0000
 30
0.0000
  0
LINE
  8
21
 10
8.0950
 20
15.9050
 30
0.0000
 11
11.9050
 21
15.9050
 31
0.0000
  0
LINE
  8
21
 10
11.9050
 20
12.0950
 30
0.0000
 11
11.9050
 21
15.9050
 31
0.0000
  0
LINE
  8
21
 10
11.9050
 20
12.0950
 30
0.0000
 11
8.0950
 21
12.0950
 31
0.0000
  0
LINE
  8
21
 10
8.0950
 20
15.9050
 30
0.0000
 11
8.0950
 21
12.0950
 31
0.0000
  0
LINE
  8
21
 10
8.3490
 20
15.6510
 30
0.0000
 11
11.6510
 21
15.6510
 31
0.0000
  0
LINE
  8
21
 10
11.6510
 20
12.3490
 30
0.0000
 11
11.6510
 21
15.6510
 31
0.0000
  0
LINE
  8
21
 10
11.6510
 20
12.3490
 30
0.0000
 11
8.3490
 21
12.3490
 31
0.0000
  0
LINE
  8
21
 10
8.3490
 20
15.6510
 30
0.0000
 11
8.3490
 21
12.3490
 31
0.0000
  0
LINE
  8
21
 10
8.9840
 20
20.0960
 30
0.0000
 11
8.9840
 21
20.4770
 31
0.0000
  0
LINE
  8
21
 10
8.9840
 20
20.0960
 30
0.0000
 11
11.0160
 21
20.0960
 31
0.0000
  0
LINE
  8
21
 10
8.9840
 20
20.4770
 30
0.0000
 11
11.0160
 21
20.4770
 31
0.0000
  0
LINE
  8
21
 10
11.0160
 20
20.4770
 30
0.0000
 11
11.0160
 21
20.0960
 31
0.0000
  0
LINE
  8
21
 10
16.0960
 20
19.0800
 30
0.0000
 11
15.0800
 21
20.0960
 31
0.0000
  0
LINE
  8
21
 10
15.0800
 20
20.0960
 30
0.0000
 11
11.7780
 21
20.0960
 31
0.0000
  0
LINE
  8
21
 10
16.0960
 20
19.0800
 30
0.0000
 11
16.0960
 21
17.8100
 31
0.0000
  0
LINE
  8
51
 10
16.0960
 20
15.1430
 30
0.0000
 11
16.0960
 21
17.8100
 31
0.0000
  0
LINE
  8
21
 10
16.0960
 20
15.1430
 30
0.0000
 11
16.0960
 21
12.8570
 31
0.0000
  0
LINE
  8
51
 10
16.0960
 20
10.1900
 30
0.0000
 11
16.0960
 21
12.8570
 31
0.0000
  0
LINE
  8
21
 10
15.0800
 20
7.9040
 30
0.0000
 11
16.0960
 21
8.9200
 31
0.0000
  0
LINE
  8
21
 10
16.0960
 20
8.9200
 30
0.0000
 11
16.0960
 21
10.1900
 31
0.0000
  0
LINE
  8
51
 10
3.9040
 20
15.1430
 30
0.0000
 11
3.9040
 21
17.8100
 31
0.0000
  0
LINE
  8
21
 10
3.9040
 20
15.1430
 30
0.0000
 11
3.9040
 21
12.8570
 31
0.0000
  0
LINE
  8
51
 10
3.9040
 20
10.1900
 30
0.0000
 11
3.9040
 21
12.8570
 31
0.0000
  0
LINE
  8
21
 10
3.9040
 20
10.1900
 30
0.0000
 11
3.9040
 21
8.9200
 31
0.0000
  0
LINE
  8
21
 10
3.9040
 20
8.9200
 30
0.0000
 11
4.9200
 21
7.9040
 31
0.0000
  0
LINE
  8
21
 10
4.9200
 20
7.9040
 30
0.0000
 11
8.2220
 21
7.9040
 31
0.0000
  0
LINE
  8
21
 10
4.9200
 20
20.0960
 30
0.0000
 11
8.2220
 21
20.0960
 31
0.0000
  0
LINE
  8
21
 10
4.9200
 20
20.0960
 30
0.0000
 11
3.9040
 21
19.0800
 31
0.0000
  0
LINE
  8
21
 10
3.9040
 20
19.0800
 30
0.0000
 11
3.9040
 21
17.8100
 31
0.0000
  0
LINE
  8
21
 10
8.9840
 20
7.5230
 30
0.0000
 11
11.0160
 21
7.5230
 31
0.0000
  0
LINE
  8
21
 10
8.9840
 20
7.5230
 30
0.0000
 11
8.9840
 21
7.9040
 31
0.0000
  0
LINE
  8
21
 10
11.0160
 20
7.9040
 30
0.0000
 11
11.0160
 21
7.5230
 31
0.0000
  0
LINE
  8
21
 10
15.0800
 20
20.0960
 30
0.0000
 11
14.8260
 21
20.3500
 31
0.0000
  0
LINE
  8
21
 10
14.8260
 20
20.3500
 30
0.0000
 11
11.7780
 21
20.3500
 31
0.0000
  0
LINE
  8
21
 10
11.7780
 20
20.3500
 30
0.0000
 11
11.7780
 21
20.0960
 31
0.0000
  0
LINE
  8
21
 10
11.7780
 20
20.0960
 30
0.0000
 11
11.0160
 21
20.0960
 31
0.0000
  0
LINE
  8
21
 10
8.2220
 20
20.3500
 30
0.0000
 11
8.2220
 21
20.0960
 31
0.0000
  0
LINE
  8
21
 10
8.2220
 20
20.0960
 30
0.0000
 11
8.9840
 21
20.0960
 31
0.0000
  0
LINE
  8
21
 10
8.2220
 20
20.3500
 30
0.0000
 11
5.1740
 21
20.3500
 31
0.0000
  0
LINE
  8
21
 10
4.9200
 20
20.0960
 30
0.0000
 11
5.1740
 21
20.3500
 31
0.0000
  0
LINE
  8
21
 10
8.9840
 20
7.9040
 30
0.0000
 11
11.0160
 21
7.9040
 31
0.0000
  0
LINE
  8
21
 10
11.0160
 20
7.9040
 30
0.0000
 11
11.7780
 21
7.9040
 31
0.0000
  0
LINE
  8
21
 10
8.2220
 20
7.9040
 30
0.0000
 11
8.2220
 21
7.6500
 31
0.0000
  0
LINE
  8
21
 10
8.2220
 20
7.9040
 30
0.0000
 11
8.9840
 21
7.9040
 31
0.0000
  0
LINE
  8
21
 10
8.2220
 20
7.6500
 30
0.0000
 11
5.1740
 21
7.6500
 31
0.0000
  0
LINE
  8
21
 10
5.1740
 20
7.6500
 30
0.0000
 11
4.9200
 21
7.9040
 31
0.0000
  0
LINE
  8
21
 10
11.7780
 20
7.9040
 30
0.0000
 11
11.7780
 21
7.6500
 31
0.0000
  0
LINE
  8
21
 10
11.7780
 20
7.9040
 30
0.0000
 11
15.0800
 21
7.9040
 31
0.0000
  0
LINE
  8
21
 10
14.8260
 20
7.6500
 30
0.0000
 11
11.7780
 21
7.6500
 31
0.0000
  0
LINE
  8
21
 10
15.0800
 20
7.9040
 30
0.0000
 11
14.8260
 21
7.6500
 31
0.0000
  0
LINE
  8
51
 10
4.9200
 20
16.5400
 30
0.0000
 11
5.4280
 21
16.5400
 31
0.0000
  0
LINE
  8
51
 10
12.9210
 20
16.5400
 30
0.0000
 11
15.0800
 21
16.5400
 31
0.0000
  0
LINE
  8
51
 10
4.9200
 20
11.4600
 30
0.0000
 11
5.4280
 21
11.4600
 31
0.0000
  0
LINE
  8
51
 10
12.9210
 20
11.4600
 30
0.0000
 11
15.0800
 21
11.4600
 31
0.0000
  0
LINE
  8
51
 10
5.4280
 20
16.5400
 30
0.0000
 11
5.4280
 21
14.7620
 31
0.0000
  0
LINE
  8
51
 10
5.4280
 20
16.5400
 30
0.0000
 11
7.0790
 21
16.5400
 31
0.0000
  0
LINE
  8
51
 10
5.4280
 20
14.7620
 30
0.0000
 11
4.9200
 21
13.2380
 31
0.0000
  0
LINE
  8
51
 10
5.4280
 20
13.2380
 30
0.0000
 11
5.4280
 21
11.4600
 31
0.0000
  0
LINE
  8
51
 10
5.4280
 20
11.4600
 30
0.0000
 11
7.0790
 21
11.4600
 31
0.0000
  0
TEXT
  7
ISOCP
  8
21
 10
4.7930
 20
17.3020
 30
0.0000
 40
1.2700
  1
1
  0
TEXT
  7
ISOCP
  8
21
 10
13.9370
 20
17.3020
 30
0.0000
 40
1.2700
  1
2
  0
TEXT
  7
ISOCP
  8
21
 10
4.7930
 20
9.3010
 30
0.0000
 40
1.2700
  1
3
  0
TEXT
  7
ISOCP
  8
21
 10
14.0640
 20
9.3010
 30
0.0000
 40
1.2700
  1
4
  0
CIRCLE
  8
21
 10
10.0000
 20
14.0000
 30
0.0000
 40
3.5560
  0
CIRCLE
  8
21
 10
10.0000
 20
14.0000
 30
0.0000
 40
1.0160
  0
CIRCLE
  8
21
 10
10.0000
 20
14.0000
 30
0.0000
 40
0.7620
  0
CIRCLE
  8
51
 10
5.4280
 20
16.5400
 30
0.0000
 40
0.1270
  0
CIRCLE
  8
51
 10
5.4280
 20
11.4600
 30
0.0000
 40
0.1270
  0
INSERT
  8
51
  2
RECT
 10
16.3500
 20
11.5235
 30
0.0000
 41
0.5080
 42
0.8890
 43
1.0000
 50
0.0000
  0
INSERT
  8
51
  2
RECT
 10
16.3500
 20
16.4765
 30
0.0000
 41
0.5080
 42
0.8890
 43
1.0000
 50
0.0000
  0
INSERT
  8
51
  2
RECT
 10
3.6500
 20
16.4765
 30
0.0000
 41
0.5080
 42
0.8890
 43
1.0000
 50
0.0000
  0
INSERT
  8
51
  2
RECT
 10
3.6500
 20
11.5235
 30
0.0000
 41
0.5080
 42
0.8890
 43
1.0000
 50
0.0000
  0
INSERT
  8
21
  2
RECT
 10
13.3655
 20
20.0960
 30
0.0000
 41
2.1590
 42
0.5080
 43
1.0000
 50
0.0000
  0
INSERT
  8
21
  2
RECT
 10
6.6345
 20
20.0960
 30
0.0000
 41
2.1590
 42
0.5080
 43
1.0000
 50
0.0000
  0
INSERT
  8
21
  2
RECT
 10
13.3655
 20
7.9040
 30
0.0000
 41
2.1590
 42
0.5080
 43
1.0000
 50
0.0000
  0
INSERT
  8
21
  2
RECT
 10
6.6345
 20
7.9040
 30
0.0000
 41
2.1590
 42
0.5080
 43
1.0000
 50
0.0000
  0
CIRCLE
  8
20
 10
10.0000
 20
9.5042
 30
0.0000
 40
0.9017
  0
CIRCLE
  8
20
 10
10.0000
 20
18.4958
 30
0.0000
 40
0.9017
  0
INSERT
  8
17
  2
LONGP100
 10
3.7516
 20
16.4892
 30
0.0000
 41
1.7907
 42
1.7907
 43
1.0000
 50
0.0000
  0
INSERT
  8
17
  2
LONGP100
 10
3.7516
 20
16.4892
 30
0.0000
 41
1.7907
 42
1.7907
 43
1.0000
 50
0.0000
  0
INSERT
  8
17
  2
LONGP100
 10
16.2484
 20
16.4892
 30
0.0000
 41
1.7907
 42
1.7907
 43
1.0000
 50
0.0000
  0
INSERT
  8
17
  2
LONGP100
 10
16.2484
 20
16.4892
 30
0.0000
 41
1.7907
 42
1.7907
 43
1.0000
 50
0.0000
  0
INSERT
  8
17
  2
LONGP100
 10
3.7516
 20
11.5108
 30
0.0000
 41
1.7907
 42
1.7907
 43
1.0000
 50
0.0000
  0
INSERT
  8
17
  2
LONGP100
 10
3.7516
 20
11.5108
 30
0.0000
 41
1.7907
 42
1.7907
 43
1.0000
 50
0.0000
  0
INSERT
  8
17
  2
LONGP100
 10
16.2484
 20
11.5108
 30
0.0000
 41
1.7907
 42
1.7907
 43
1.0000
 50
0.0000
  0
INSERT
  8
17
  2
LONGP100
 10
16.2484
 20
11.5108
 30
0.0000
 41
1.7907
 42
1.7907
 43
1.0000
 50
0.0000
  0
TEXT
  7
ISOCP
  8
25
 10
8.4200
 20
21.4850
 30
0.0000
 40
1.2700
  1
S2
  0
TEXT
  7
ISOCP
  8
27
 10
6.8250
 20
8.9200
 30
0.0000
 40
1.2700
  1

  0
POINT
  8
23
 10
74.0000
 20
28.0000
 30
0.0000
  0
LINE
  8
21
 10
75.9050
 20
26.0950
 30
0.0000
 11
72.0950
 21
26.0950
 31
0.0000
  0
LINE
  8
21
 10
72.0950
 20
29.9050
 30
0.0000
 11
72.0950
 21
26.0950
 31
0.0000
  0
LINE
  8
21
 10
72.0950
 20
29.9050
 30
0.0000
 11
75.9050
 21
29.9050
 31
0.0000
  0
LINE
  8
21
 10
75.9050
 20
26.0950
 30
0.0000
 11
75.9050
 21
29.9050
 31
0.0000
  0
LINE
  8
21
 10
75.6510
 20
26.3490
 30
0.0000
 11
72.3490
 21
26.3490
 31
0.0000
  0
LINE
  8
21
 10
72.3490
 20
29.6510
 30
0.0000
 11
72.3490
 21
26.3490
 31
0.0000
  0
LINE
  8
21
 10
72.3490
 20
29.6510
 30
0.0000
 11
75.6510
 21
29.6510
 31
0.0000
  0
LINE
  8
21
 10
75.6510
 20
26.3490
 30
0.0000
 11
75.6510
 21
29.6510
 31
0.0000
  0
LINE
  8
21
 10
75.0160
 20
21.9040
 30
0.0000
 11
75.0160
 21
21.5230
 31
0.0000
  0
LINE
  8
21
 10
75.0160
 20
21.9040
 30
0.0000
 11
72.9840
 21
21.9040
 31
0.0000
  0
LINE
  8
21
 10
75.0160
 20
21.5230
 30
0.0000
 11
72.9840
 21
21.5230
 31
0.0000
  0
LINE
  8
21
 10
72.9840
 20
21.5230
 30
0.0000
 11
72.9840
 21
21.9040
 31
0.0000
  0
LINE
  8
21
 10
67.9040
 20
22.9200
 30
0.0000
 11
68.9200
 21
21.9040
 31
0.0000
  0
LINE
  8
21
 10
68.9200
 20
21.9040
 30
0.0000
 11
72.2220
 21
21.9040
 31
0.0000
  0
LINE
  8
21
 10
67.9040
 20
22.9200
 30
0.0000
 11
67.9040
 21
24.1900
 31
0.0000
  0
LINE
  8
51
 10
67.9040
 20
26.8570
 30
0.0000
 11
67.9040
 21
24.1900
 31
0.0000
  0
LINE
  8
21
 10
67.9040
 20
26.8570
 30
0.0000
 11
67.9040
 21
29.1430
 31
0.0000
  0
LINE
  8
51
 10
67.9040
 20
31.8100
 30
0.0000
 11
67.9040
 21
29.1430
 31
0.0000
  0
LINE
  8
21
 10
68.9200
 20
34.0960
 30
0.0000
 11
67.9040
 21
33.0800
 31
0.0000
  0
LINE
  8
21
 10
67.9040
 20
33.0800
 30
0.0000
 11
67.9040
 21
31.8100
 31
0.0000
  0
LINE
  8
51
 10
80.0960
 20
26.8570
 30
0.0000
 11
80.0960
 21
24.1900
 31
0.0000
  0
LINE
  8
21
 10
80.0960
 20
26.8570
 30
0.0000
 11
80.0960
 21
29.1430
 31
0.0000
  0
LINE
  8
51
 10
80.0960
 20
31.8100
 30
0.0000
 11
80.0960
 21
29.1430
 31
0.0000
  0
LINE
  8
21
 10
80.0960
 20
31.8100
 30
0.0000
 11
80.0960
 21
33.0800
 31
0.0000
  0
LINE
  8
21
 10
80.0960
 20
33.0800
 30
0.0000
 11
79.0800
 21
34.0960
 31
0.0000
  0
LINE
  8
21
 10
79.0800
 20
34.0960
 30
0.0000
 11
75.7780
 21
34.0960
 31
0.0000
  0
LINE
  8
21
 10
79.0800
 20
21.9040
 30
0.0000
 11
75.7780
 21
21.9040
 31
0.0000
  0
LINE
  8
21
 10
79.0800
 20
21.9040
 30
0.0000
 11
80.0960
 21
22.9200
 31
0.0000
  0
LINE
  8
21
 10
80.0960
 20
22.9200
 30
0.0000
 11
80.0960
 21
24.1900
 31
0.0000
  0
LINE
  8
21
 10
75.0160
 20
34.4770
 30
0.0000
 11
72.9840
 21
34.4770
 31
0.0000
  0
LINE
  8
21
 10
75.0160
 20
34.4770
 30
0.0000
 11
75.0160
 21
34.0960
 31
0.0000
  0
LINE
  8
21
 10
72.9840
 20
34.0960
 30
0.0000
 11
72.9840
 21
34.4770
 31
0.0000
  0
LINE
  8
21
 10
68.9200
 20
21.9040
 30
0.0000
 11
69.1740
 21
21.6500
 31
0.0000
  0
LINE
  8
21
 10
69.1740
 20
21.6500
 30
0.0000
 11
72.2220
 21
21.6500
 31
0.0000
  0
LINE
  8
21
 10
72.2220
 20
21.6500
 30
0.0000
 11
72.2220
 21
21.9040
 31
0.0000
  0
LINE
  8
21
 10
72.2220
 20
21.9040
 30
0.0000
 11
72.9840
 21
21.9040
 31
0.0000
  0
LINE
  8
21
 10
75.7780
 20
21.6500
 30
0.0000
 11
75.7780
 21
21.9040
 31
0.0000
  0
LINE
  8
21
 10
75.7780
 20
21.9040
 30
0.0000
 11
75.0160
 21
21.9040
 31
0.0000
  0
LINE
  8
21
 10
75.7780
 20
21.6500
 30
0.0000
 11
78.8260
 21
21.6500
 31
0.0000
  0
LINE
  8
21
 10
79.0800
 20
21.9040
 30
0.0000
 11
78.8260
 21
21.6500
 31
0.0000
  0
LINE
  8
21
 10
75.0160
 20
34.0960
 30
0.0000
 11
72.9840
 21
34.0960
 31
0.0000
  0
LINE
  8
21
 10
72.9840
 20
34.0960
 30
0.0000
 11
72.2220
 21
34.0960
 31
0.0000
  0
LINE
  8
21
 10
75.7780
 20
34.0960
 30
0.0000
 11
75.7780
 21
34.3500
 31
0.0000
  0
LINE
  8
21
 10
75.7780
 20
34.0960
 30
0.0000
 11
75.0160
 21
34.0960
 31
0.0000
  0
LINE
  8
21
 10
75.7780
 20
34.3500
 30
0.0000
 11
78.8260
 21
34.3500
 31
0.0000
  0
LINE
  8
21
 10
78.8260
 20
34.3500
 30
0.0000
 11
79.0800
 21
34.0960
 31
0.0000
  0
LINE
  8
21
 10
72.2220
 20
34.0960
 30
0.0000
 11
72.2220
 21
34.3500
 31
0.0000
  0
LINE
  8
21
 10
72.2220
 20
34.0960
 30
0.0000
 11
68.9200
 21
34.0960
 31
0.0000
  0
LINE
  8
21
 10
69.1740
 20
34.3500
 30
0.0000
 11
72.2220
 21
34.3500
 31
0.0000
  0
LINE
  8
21
 10
68.9200
 20
34.0960
 30
0.0000
 11
69.1740
 21
34.3500
 31
0.0000
  0
LINE
  8
51
 10
79.0800
 20
25.4600
 30
0.0000
 11
78.5720
 21
25.4600
 31
0.0000
  0
LINE
  8
51
 10
71.0790
 20
25.4600
 30
0.0000
 11
68.9200
 21
25.4600
 31
0.0000
  0
LINE
  8
51
 10
79.0800
 20
30.5400
 30
0.0000
 11
78.5720
 21
30.5400
 31
0.0000
  0
LINE
  8
51
 10
71.0790
 20
30.5400
 30
0.0000
 11
68.9200
 21
30.5400
 31
0.0000
  0
LINE
  8
51
 10
78.5720
 20
25.4600
 30
0.0000
 11
78.5720
 21
27.2380
 31
0.0000
  0
LINE
  8
51
 10
78.5720
 20
25.4600
 30
0.0000
 11
76.9210
 21
25.4600
 31
0.0000
  0
LINE
  8
51
 10
78.5720
 20
27.2380
 30
0.0000
 11
79.0800
 21
28.7620
 31
0.0000
  0
LINE
  8
51
 10
78.5720
 20
28.7620
 30
0.0000
 11
78.5720
 21
30.5400
 31
0.0000
  0
LINE
  8
51
 10
78.5720
 20
30.5400
 30
0.0000
 11
76.9210
 21
30.5400
 31
0.0000
  0
TEXT
  7
ISOCP
  8
21
 10
79.2070
 20
24.6980
 30
0.0000
 40
1.2700
  1
1
 72
2
 73
3
 11
79.2070
 21
24.6980
 31
0.0000
  0
TEXT
  7
ISOCP
  8
21
 10
70.0630
 20
24.6980
 30
0.0000
 40
1.2700
  1
2
 72
2
 73
3
 11
70.0630
 21
24.6980
 31
0.0000
  0
TEXT
  7
ISOCP
  8
21
 10
79.2070
 20
32.6990
 30
0.0000
 40
1.2700
  1
3
 72
2
 73
3
 11
79.2070
 21
32.6990
 31
0.0000
  0
TEXT
  7
ISOCP
  8
21
 10
69.9360
 20
32.6990
 30
0.0000
 40
1.2700
  1
4
 72
2
 73
3
 11
69.9360
 21
32.6990
 31
0.0000
  0
CIRCLE
  8
21
 10
74.0000
 20
28.0000
 30
0.0000
 40
3.5560
  0
CIRCLE
  8
21
 10
74.0000
 20
28.0000
 30
0.0000
 40
1.0160
  0
CIRCLE
  8
21
 10
74.0000
 20
28.0000
 30
0.0000
 40
0.7620
  0
CIRCLE
  8
51
 10
78.5720
 20
25.4600
 30
0.0000
 40
0.1270
  0
CIRCLE
  8
51
 10
78.5720
 20
30.5400
 30
0.0000
 40
0.1270
  0
INSERT
  8
51
  2
RECT
 10
67.6500
 20
30.4765
 30
0.0000
 41
0.5080
 42
0.8890
 43
1.0000
 50
180.0000
  0
INSERT
  8
51
  2
RECT
 10
67.6500
 20
25.5235
 30
0.0000
 41
0.5080
 42
0.8890
 43
1.0000
 50
180.0000
  0
INSERT
  8
51
  2
RECT
 10
80.3500
 20
25.5235
 30
0.0000
 41
0.5080
 42
0.8890
 43
1.0000
 50
180.0000
  0
INSERT
  8
51
  2
RECT
 10
80.3500
 20
30.4765
 30
0.0000
 41
0.5080
 42
0.8890
 43
1.0000
 50
180.0000
  0
INSERT
  8
21
  2
RECT
 10
70.6345
 20
21.9040
 30
0.0000
 41
2.1590
 42
0.5080
 43
1.0000
 50
180.0000
  0
INSERT
  8
21
  2
RECT
 10
77.3655
 20
21.9040
 30
0.0000
 41
2.1590
 42
0.5080
 43
1.0000
 50
180.0000
  0
INSERT
  8
21
  2
RECT
 10
70.6345
 20
34.0960
 30
0.0000
 41
2.1590
 42
0.5080
 43
1.0000
 50
180.0000
  0
INSERT
  8
21
  2
RECT
 10
77.3655
 20
34.0960
 30
0.0000
 41
2.1590
 42
0.5080
 43
1.0000
 50
180.0000
  0
CIRCLE
  8
20
 10
74.0000
 20
32.4958
 30
0.0000
 40
0.9017
  0
CIRCLE
  8
20
 10
74.0000
 20
23.5042
 30
0.0000
 40
0.9017
  0
INSERT
  8
17
  2
LONGP100
 10
80.2484
 20
25.5108
 30
0.0000
 41
1.7907
 42
1.7907
 43
1.0000
 50
180.0000
  0
INSERT
  8
17
  2
LONGP100
 10
80.2484
 20
25.5108
 30
0.0000
 41
1.7907
 42
1.7907
 43
1.0000
 50
180.0000
  0
INSERT
  8
17
  2
LONGP100
 10
67.7516
 20
25.5108
 30
0.0000
 41
1.7907
 42
1.7907
 43
1.0000
 50
180.0000
  0
INSERT
  8
17
  2
LONGP100
 10
67.7516
 20
25.5108
 30
0.0000
 41
1.7907
 42
1.7907
 43
1.0000
 50
180.0000
  0
INSERT
  8
17
  2
LONGP100
 10
80.2484
 20
30.4892
 30
0.0000
 41
1.7907
 42
1.7907
 43
1.0000
 50
180.0000
  0
INSERT
  8
17
  2
LONGP100
 10
80.2484
 20
30.4892
 30
0.0000
 41
1.7907
 42
1.7907
 43
1.0000
 50
180.0000
  0
INSERT
  8
17
  2
LONGP100
 10
67.7516
 20
30.4892
 30
0.0000
 41
1.7907
 42
1.7907
 43
1.0000
 50
180.0000
  0
INSERT
  8
17
  2
LONGP100
 10
67.7516
 20
30.4892
 30
0.0000
 41
1.7907
 42
1.7907
 43
1.0000
 50
180.0000
  0
TEXT
  7
ISOCP
  8
25
 10
75.2700
 20
21.0150
 30
0.0000
 40
1.2700
  1
S3
 72
2
 73
3
 11
75.2700
 21
21.0150
 31
0.0000
  0
TEXT
  7
ISOCP
  8
27
 10
77.1750
 20
33.0800
 30
0.0000
 40
1.2700
  1

 72
2
 73
3
 11
77.1750
 21
33.0800
 31
0.0000
  0
POINT
  8
23
 10
99.0000
 20
28.0000
 30
0.0000
  0
LINE
  8
21
 10
97.0950
 20
29.9050
 30
0.0000
 11
100.9050
 21
29.9050
 31
0.0000
  0
LINE
  8
21
 10
100.9050
 20
26.0950
 30
0.0000
 11
100.9050
 21
29.9050
 31
0.0000
  0
LINE
  8
21
 10
100.9050
 20
26.0950
 30
0.0000
 11
97.0950
 21
26.0950
 31
0.0000
  0
LINE
  8
21
 10
97.0950
 20
29.9050
 30
0.0000
 11
97.0950
 21
26.0950
 31
0.0000
  0
LINE
  8
21
 10
97.3490
 20
29.6510
 30
0.0000
 11
100.6510
 21
29.6510
 31
0.0000
  0
LINE
  8
21
 10
100.6510
 20
26.3490
 30
0.0000
 11
100.6510
 21
29.6510
 31
0.0000
  0
LINE
  8
21
 10
100.6510
 20
26.3490
 30
0.0000
 11
97.3490
 21
26.3490
 31
0.0000
  0
LINE
  8
21
 10
97.3490
 20
29.6510
 30
0.0000
 11
97.3490
 21
26.3490
 31
0.0000
  0
LINE
  8
21
 10
97.9840
 20
34.0960
 30
0.0000
 11
97.9840
 21
34.4770
 31
0.0000
  0
LINE
  8
21
 10
97.9840
 20
34.0960
 30
0.0000
 11
100.0160
 21
34.0960
 31
0.0000
  0
LINE
  8
21
 10
97.9840
 20
34.4770
 30
0.0000
 11
100.0160
 21
34.4770
 31
0.0000
  0
LINE
  8
21
 10
100.0160
 20
34.4770
 30
0.0000
 11
100.0160
 21
34.0960
 31
0.0000
  0
LINE
  8
21
 10
105.0960
 20
33.0800
 30
0.0000
 11
104.0800
 21
34.0960
 31
0.0000
  0
LINE
  8
21
 10
104.0800
 20
34.0960
 30
0.0000
 11
100.7780
 21
34.0960
 31
0.0000
  0
LINE
  8
21
 10
105.0960
 20
33.0800
 30
0.0000
 11
105.0960
 21
31.8100
 31
0.0000
  0
LINE
  8
51
 10
105.0960
 20
29.1430
 30
0.0000
 11
105.0960
 21
31.8100
 31
0.0000
  0
LINE
  8
21
 10
105.0960
 20
29.1430
 30
0.0000
 11
105.0960
 21
26.8570
 31
0.0000
  0
LINE
  8
51
 10
105.0960
 20
24.1900
 30
0.0000
 11
105.0960
 21
26.8570
 31
0.0000
  0
LINE
  8
21
 10
104.0800
 20
21.9040
 30
0.0000
 11
105.0960
 21
22.9200
 31
0.0000
  0
LINE
  8
21
 10
105.0960
 20
22.9200
 30
0.0000
 11
105.0960
 21
24.1900
 31
0.0000
  0
LINE
  8
51
 10
92.9040
 20
29.1430
 30
0.0000
 11
92.9040
 21
31.8100
 31
0.0000
  0
LINE
  8
21
 10
92.9040
 20
29.1430
 30
0.0000
 11
92.9040
 21
26.8570
 31
0.0000
  0
LINE
  8
51
 10
92.9040
 20
24.1900
 30
0.0000
 11
92.9040
 21
26.8570
 31
0.0000
  0
LINE
  8
21
 10
92.9040
 20
24.1900
 30
0.0000
 11
92.9040
 21
22.9200
 31
0.0000
  0
LINE
  8
21
 10
92.9040
 20
22.9200
 30
0.0000
 11
93.9200
 21
21.9040
 31
0.0000
  0
LINE
  8
21
 10
93.9200
 20
21.9040
 30
0.0000
 11
97.2220
 21
21.9040
 31
0.0000
  0
LINE
  8
21
 10
93.9200
 20
34.0960
 30
0.0000
 11
97.2220
 21
34.0960
 31
0.0000
  0
LINE
  8
21
 10
93.9200
 20
34.0960
 30
0.0000
 11
92.9040
 21
33.0800
 31
0.0000
  0
LINE
  8
21
 10
92.9040
 20
33.0800
 30
0.0000
 11
92.9040
 21
31.8100
 31
0.0000
  0
LINE
  8
21
 10
97.9840
 20
21.5230
 30
0.0000
 11
100.0160
 21
21.5230
 31
0.0000
  0
LINE
  8
21
 10
97.9840
 20
21.5230
 30
0.0000
 11
97.9840
 21
21.9040
 31
0.0000
  0
LINE
  8
21
 10
100.0160
 20
21.9040
 30
0.0000
 11
100.0160
 21
21.5230
 31
0.0000
  0
LINE
  8
21
 10
104.0800
 20
34.0960
 30
0.0000
 11
103.8260
 21
34.3500
 31
0.0000
  0
LINE
  8
21
 10
103.8260
 20
34.3500
 30
0.0000
 11
100.7780
 21
34.3500
 31
0.0000
  0
LINE
  8
21
 10
100.7780
 20
34.3500
 30
0.0000
 11
100.7780
 21
34.0960
 31
0.0000
  0
LINE
  8
21
 10
100.7780
 20
34.0960
 30
0.0000
 11
100.0160
 21
34.0960
 31
0.0000
  0
LINE
  8
21
 10
97.2220
 20
34.3500
 30
0.0000
 11
97.2220
 21
34.0960
 31
0.0000
  0
LINE
  8
21
 10
97.2220
 20
34.0960
 30
0.0000
 11
97.9840
 21
34.0960
 31
0.0000
  0
LINE
  8
21
 10
97.2220
 20
34.3500
 30
0.0000
 11
94.1740
 21
34.3500
 31
0.0000
  0
LINE
  8
21
 10
93.9200
 20
34.0960
 30
0.0000
 11
94.1740
 21
34.3500
 31
0.0000
  0
LINE
  8
21
 10
97.9840
 20
21.9040
 30
0.0000
 11
100.0160
 21
21.9040
 31
0.0000
  0
LINE
  8
21
 10
100.0160
 20
21.9040
 30
0.0000
 11
100.7780
 21
21.9040
 31
0.0000
  0
LINE
  8
21
 10
97.2220
 20
21.9040
 30
0.0000
 11
97.2220
 21
21.6500
 31
0.0000
  0
LINE
  8
21
 10
97.2220
 20
21.9040
 30
0.0000
 11
97.9840
 21
21.9040
 31
0.0000
  0
LINE
  8
21
 10
97.2220
 20
21.6500
 30
0.0000
 11
94.1740
 21
21.6500
 31
0.0000
  0
LINE
  8
21
 10
94.1740
 20
21.6500
 30
0.0000
 11
93.9200
 21
21.9040
 31
0.0000
  0
LINE
  8
21
 10
100.7780
 20
21.9040
 30
0.0000
 11
100.7780
 21
21.6500
 31
0.0000
  0
LINE
  8
21
 10
100.7780
 20
21.9040
 30
0.0000
 11
104.0800
 21
21.9040
 31
0.0000
  0
LINE
  8
21
 10
103.8260
 20
21.6500
 30
0.0000
 11
100.7780
 21
21.6500
 31
0.0000
  0
LINE
  8
21
 10
104.0800
 20
21.9040
 30
0.0000
 11
103.8260
 21
21.6500
 31
0.0000
  0
LINE
  8
51
 10
93.9200
 20
30.5400
 30
0.0000
 11
94.4280
 21
30.5400
 31
0.0000
  0
LINE
  8
51
 10
101.9210
 20
30.5400
 30
0.0000
 11
104.0800
 21
30.5400
 31
0.0000
  0
LINE
  8
51
 10
93.9200
 20
25.4600
 30
0.0000
 11
94.4280
 21
25.4600
 31
0.0000
  0
LINE
  8
51
 10
101.9210
 20
25.4600
 30
0.0000
 11
104.0800
 21
25.4600
 31
0.0000
  0
LINE
  8
51
 10
94.4280
 20
30.5400
 30
0.0000
 11
94.4280
 21
28.7620
 31
0.0000
  0
LINE
  8
51
 10
94.4280
 20
30.5400
 30
0.0000
 11
96.0790
 21
30.5400
 31
0.0000
  0
LINE
  8
51
 10
94.4280
 20
28.7620
 30
0.0000
 11
93.9200
 21
27.2380
 31
0.0000
  0
LINE
  8
51
 10
94.4280
 20
27.2380
 30
0.0000
 11
94.4280
 21
25.4600
 31
0.0000
  0
LINE
  8
51
 10
94.4280
 20
25.4600
 30
0.0000
 11
96.0790
 21
25.4600
 31
0.0000
  0
TEXT
  7
ISOCP
  8
21
 10
93.7930
 20
31.3020
 30
0.0000
 40
1.2700
  1
1
  0
TEXT
  7
ISOCP
  8
21
 10
102.9370
 20
31.3020
 30
0.0000
 40
1.2700
  1
2
  0
TEXT
  7
ISOCP
  8
21
 10
93.7930
 20
23.3010
 30
0.0000
 40
1.2700
  1
3
  0
TEXT
  7
ISOCP
  8
21
 10
103.0640
 20
23.3010
 30
0.0000
 40
1.2700
  1
4
  0
CIRCLE
  8
21
 10
99.0000
 20
28.0000
 30
0.0000
 40
3.5560
  0
CIRCLE
  8
21
 10
99.0000
 20
28.0000
 30
0.0000
 40
1.0160
  0
CIRCLE
  8
21
 10
99.0000
 20
28.0000
 30
0.0000
 40
0.7620
  0
CIRCLE
  8
51
 10
94.4280
 20
30.5400
 30
0.0000
 40
0.1270
  0
CIRCLE
  8
51
 10
94.4280
 20
25.4600
 30
0.0000
 40
0.1270
  0
INSERT
  8
51
  2
RECT
 10
105.3500
 20
25.5235
 30
0.0000
 41
0.5080
 42
0.8890
 43
1.0000
 50
0.0000
  0
INSERT
  8
51
  2
RECT
 10
105.3500
 20
30.4765
 30
0.0000
 41
0.5080
 42
0.8890
 43
1.0000
 50
0.0000
  0
INSERT
  8
51
  2
RECT
 10
92.6500
 20
30.4765
 30
0.0000
 41
0.5080
 42
0.8890
 43
1.0000
 50
0.0000
  0
INSERT
  8
51
  2
RECT
 10
92.6500
 20
25.5235
 30
0.0000
 41
0.5080
 42
0.8890
 43
1.0000
 50
0.0000
  0
INSERT
  8
21
  2
RECT
 10
102.3655
 20
34.0960
 30
0.0000
 41
2.1590
 42
0.5080
 43
1.0000
 50
0.0000
  0
INSERT
  8
21
  2
RECT
 10
95.6345
 20
34.0960
 30
0.0000
 41
2.1590
 42
0.5080
 43
1.0000
 50
0.0000
  0
INSERT
  8
21
  2
RECT
 10
102.3655
 20
21.9040
 30
0.0000
 41
2.1590
 42
0.5080
 43
1.0000
 50
0.0000
  0
INSERT
  8
21
  2
RECT
 10
95.6345
 20
21.9040
 30
0.0000
 41
2.1590
 42
0.5080
 43
1.0000
 50
0.0000
  0
CIRCLE
  8
20
 10
99.0000
 20
23.5042
 30
0.0000
 40
0.9017
  0
CIRCLE
  8
20
 10
99.0000
 20
32.4958
 30
0.0000
 40
0.9017
  0
INSERT
  8
17
  2
LONGP100
 10
92.7516
 20
30.4892
 30
0.0000
 41
1.7907
 42
1.7907
 43
1.0000
 50
0.0000
  0
INSERT
  8
17
  2
LONGP100
 10
92.7516
 20
30.4892
 30
0.0000
 41
1.7907
 42
1.7907
 43
1.0000
 50
0.0000
  0
INSERT
  8
17
  2
LONGP100
 10
105.2484
 20
30.4892
 30
0.0000
 41
1.7907
 42
1.7907
 43
1.0000
 50
0.0000
  0
INSERT
  8
17
  2
LONGP100
 10
105.2484
 20
30.4892
 30
0.0000
 41
1.7907
 42
1.7907
 43
1.0000
 50
0.0000
  0
INSERT
  8
17
  2
LONGP100
 10
92.7516
 20
25.5108
 30
0.0000
 41
1.7907
 42
1.7907
 43
1.0000
 50
0.0000
  0
INSERT
  8
17
  2
LONGP100
 10
92.7516
 20
25.5108
 30
0.0000
 41
1.7907
 42
1.7907
 43
1.0000
 50
0.0000
  0
INSERT
  8
17
  2
LONGP100
 10
105.2484
 20
25.5108
 30
0.0000
 41
1.7907
 42
1.7907
 43
1.0000
 50
0.0000
  0
INSERT
  8
17
  2
LONGP100
 10
105.2484
 20
25.5108
 30
0.0000
 41
1.7907
 42
1.7907
 43
1.0000
 50
0.0000
  0
TEXT
  7
ISOCP
  8
25
 10
98.2700
 20
19.7050
 30
0.0000
 40
1.2700
  1
S4
  0
TEXT
  7
ISOCP
  8
27
 10
95.8250
 20
22.9200
 30
0.0000
 40
1.2700
  1

  0
POINT
  8
23
 10
24.0000
 20
28.0000
 30
0.0000
  0
LINE
  8
21
 10
22.0950
 20
29.9050
 30
0.0000
 11
25.9050
 21
29.9050
 31
0.0000
  0
LINE
  8
21
 10
25.9050
 20
26.0950
 30
0.0000
 11
25.9050
 21
29.9050
 31
0.0000
  0
LINE
  8
21
 10
25.9050
 20
26.0950
 30
0.0000
 11
22.0950
 21
26.0950
 31
0.0000
  0
LINE
  8
21
 10
22.0950
 20
29.9050
 30
0.0000
 11
22.0950
 21
26.0950
 31
0.0000
  0
LINE
  8
21
 10
22.3490
 20
29.6510
 30
0.0000
 11
25.6510
 21
29.6510
 31
0.0000
  0
LINE
  8
21
 10
25.6510
 20
26.3490
 30
0.0000
 11
25.6510
 21
29.6510
 31
0.0000
  0
LINE
  8
21
 10
25.6510
 20
26.3490
 30
0.0000
 11
22.3490
 21
26.3490
 31
0.0000
  0
LINE
  8
21
 10
22.3490
 20
29.6510
 30
0.0000
 11
22.3490
 21
26.3490
 31
0.0000
  0
LINE
  8
21
 10
22.9840
 20
34.0960
 30
0.0000
 11
22.9840
 21
34.4770
 31
0.0000
  0
LINE
  8
21
 10
22.9840
 20
34.0960
 30
0.0000
 11
25.0160
 21
34.0960
 31
0.0000
  0
LINE
  8
21
 10
22.9840
 20
34.4770
 30
0.0000
 11
25.0160
 21
34.4770
 31
0.0000
  0
LINE
  8
21
 10
25.0160
 20
34.4770
 30
0.0000
 11
25.0160
 21
34.0960
 31
0.0000
  0
LINE
  8
21
 10
30.0960
 20
33.0800
 30
0.0000
 11
29.0800
 21
34.0960
 31
0.0000
  0
LINE
  8
21
 10
29.0800
 20
34.0960
 30
0.0000
 11
25.7780
 21
34.0960
 31
0.0000
  0
LINE
  8
21
 10
30.0960
 20
33.0800
 30
0.0000
 11
30.0960
 21
31.8100
 31
0.0000
  0
LINE
  8
51
 10
30.0960
 20
29.1430
 30
0.0000
 11
30.0960
 21
31.8100
 31
0.0000
  0
LINE
  8
21
 10
30.0960
 20
29.1430
 30
0.0000
 11
30.0960
 21
26.8570
 31
0.0000
  0
LINE
  8
51
 10
30.0960
 20
24.1900
 30
0.0000
 11
30.0960
 21
26.8570
 31
0.0000
  0
LINE
  8
21
 10
29.0800
 20
21.9040
 30
0.0000
 11
30.0960
 21
22.9200
 31
0.0000
  0
LINE
  8
21
 10
30.0960
 20
22.9200
 30
0.0000
 11
30.0960
 21
24.1900
 31
0.0000
  0
LINE
  8
51
 10
17.9040
 20
29.1430
 30
0.0000
 11
17.9040
 21
31.8100
 31
0.0000
  0
LINE
  8
21
 10
17.9040
 20
29.1430
 30
0.0000
 11
17.9040
 21
26.8570
 31
0.0000
  0
LINE
  8
51
 10
17.9040
 20
24.1900
 30
0.0000
 11
17.9040
 21
26.8570
 31
0.0000
  0
LINE
  8
21
 10
17.9040
 20
24.1900
 30
0.0000
 11
17.9040
 21
22.9200
 31
0.0000
  0
LINE
  8
21
 10
17.9040
 20
22.9200
 30
0.0000
 11
18.9200
 21
21.9040
 31
0.0000
  0
LINE
  8
21
 10
18.9200
 20
21.9040
 30
0.0000
 11
22.2220
 21
21.9040
 31
0.0000
  0
LINE
  8
21
 10
18.9200
 20
34.0960
 30
0.0000
 11
22.2220
 21
34.0960
 31
0.0000
  0
LINE
  8
21
 10
18.9200
 20
34.0960
 30
0.0000
 11
17.9040
 21
33.0800
 31
0.0000
  0
LINE
  8
21
 10
17.9040
 20
33.0800
 30
0.0000
 11
17.9040
 21
31.8100
 31
0.0000
  0
LINE
  8
21
 10
22.9840
 20
21.5230
 30
0.0000
 11
25.0160
 21
21.5230
 31
0.0000
  0
LINE
  8
21
 10
22.9840
 20
21.5230
 30
0.0000
 11
22.9840
 21
21.9040
 31
0.0000
  0
LINE
  8
21
 10
25.0160
 20
21.9040
 30
0.0000
 11
25.0160
 21
21.5230
 31
0.0000
  0
LINE
  8
21
 10
29.0800
 20
34.0960
 30
0.0000
 11
28.8260
 21
34.3500
 31
0.0000
  0
LINE
  8
21
 10
28.8260
 20
34.3500
 30
0.0000
 11
25.7780
 21
34.3500
 31
0.0000
  0
LINE
  8
21
 10
25.7780
 20
34.3500
 30
0.0000
 11
25.7780
 21
34.0960
 31
0.0000
  0
LINE
  8
21
 10
25.7780
 20
34.0960
 30
0.0000
 11
25.0160
 21
34.0960
 31
0.0000
  0
LINE
  8
21
 10
22.2220
 20
34.3500
 30
0.0000
 11
22.2220
 21
34.0960
 31
0.0000
  0
LINE
  8
21
 10
22.2220
 20
34.0960
 30
0.0000
 11
22.9840
 21
34.0960
 31
0.0000
  0
LINE
  8
21
 10
22.2220
 20
34.3500
 30
0.0000
 11
19.1740
 21
34.3500
 31
0.0000
  0
LINE
  8
21
 10
18.9200
 20
34.0960
 30
0.0000
 11
19.1740
 21
34.3500
 31
0.0000
  0
LINE
  8
21
 10
22.9840
 20
21.9040
 30
0.0000
 11
25.0160
 21
21.9040
 31
0.0000
  0
LINE
  8
21
 10
25.0160
 20
21.9040
 30
0.0000
 11
25.7780
 21
21.9040
 31
0.0000
  0
LINE
  8
21
 10
22.2220
 20
21.9040
 30
0.0000
 11
22.2220
 21
21.6500
 31
0.0000
  0
LINE
  8
21
 10
22.2220
 20
21.9040
 30
0.0000
 11
22.9840
 21
21.9040
 31
0.0000
  0
LINE
  8
21
 10
22.2220
 20
21.6500
 30
0.0000
 11
19.1740
 21
21.6500
 31
0.0000
  0
LINE
  8
21
 10
19.1740
 20
21.6500
 30
0.0000
 11
18.9200
 21
21.9040
 31
0.0000
  0
LINE
  8
21
 10
25.7780
 20
21.9040
 30
0.0000
 11
25.7780
 21
21.6500
 31
0.0000
  0
LINE
  8
21
 10
25.7780
 20
21.9040
 30
0.0000
 11
29.0800
 21
21.9040
 31
0.0000
  0
LINE
  8
21
 10
28.8260
 20
21.6500
 30
0.0000
 11
25.7780
 21
21.6500
 31
0.0000
  0
LINE
  8
21
 10
29.0800
 20
21.9040
 30
0.0000
 11
28.8260
 21
21.6500
 31
0.0000
  0
LINE
  8
51
 10
18.9200
 20
30.5400
 30
0.0000
 11
19.4280
 21
30.5400
 31
0.0000
  0
LINE
  8
51
 10
26.9210
 20
30.5400
 30
0.0000
 11
29.0800
 21
30.5400
 31
0.0000
  0
LINE
  8
51
 10
18.9200
 20
25.4600
 30
0.0000
 11
19.4280
 21
25.4600
 31
0.0000
  0
LINE
  8
51
 10
26.9210
 20
25.4600
 30
0.0000
 11
29.0800
 21
25.4600
 31
0.0000
  0
LINE
  8
51
 10
19.4280
 20
30.5400
 30
0.0000
 11
19.4280
 21
28.7620
 31
0.0000
  0
LINE
  8
51
 10
19.4280
 20
30.5400
 30
0.0000
 11
21.0790
 21
30.5400
 31
0.0000
  0
LINE
  8
51
 10
19.4280
 20
28.7620
 30
0.0000
 11
18.9200
 21
27.2380
 31
0.0000
  0
LINE
  8
51
 10
19.4280
 20
27.2380
 30
0.0000
 11
19.4280
 21
25.4600
 31
0.0000
  0
LINE
  8
51
 10
19.4280
 20
25.4600
 30
0.0000
 11
21.0790
 21
25.4600
 31
0.0000
  0
TEXT
  7
ISOCP
  8
21
 10
18.7930
 20
31.3020
 30
0.0000
 40
1.2700
  1
1
  0
TEXT
  7
ISOCP
  8
21
 10
27.9370
 20
31.3020
 30
0.0000
 40
1.2700
  1
2
  0
TEXT
  7
ISOCP
  8
21
 10
18.7930
 20
23.3010
 30
0.0000
 40
1.2700
  1
3
  0
TEXT
  7
ISOCP
  8
21
 10
28.0640
 20
23.3010
 30
0.0000
 40
1.2700
  1
4
  0
CIRCLE
  8
21
 10
24.0000
 20
28.0000
 30
0.0000
 40
3.5560
  0
CIRCLE
  8
21
 10
24.0000
 20
28.0000
 30
0.0000
 40
1.0160
  0
CIRCLE
  8
21
 10
24.0000
 20
28.0000
 30
0.0000
 40
0.7620
  0
CIRCLE
  8
51
 10
19.4280
 20
30.5400
 30
0.0000
 40
0.1270
  0
CIRCLE
  8
51
 10
19.4280
 20
25.4600
 30
0.0000
 40
0.1270
  0
INSERT
  8
51
  2
RECT
 10
30.3500
 20
25.5235
 30
0.0000
 41
0.5080
 42
0.8890
 43
1.0000
 50
0.0000
  0
INSERT
  8
51
  2
RECT
 10
30.3500
 20
30.4765
 30
0.0000
 41
0.5080
 42
0.8890
 43
1.0000
 50
0.0000
  0
INSERT
  8
51
  2
RECT
 10
17.6500
 20
30.4765
 30
0.0000
 41
0.5080
 42
0.8890
 43
1.0000
 50
0.0000
  0
INSERT
  8
51
  2
RECT
 10
17.6500
 20
25.5235
 30
0.0000
 41
0.5080
 42
0.8890
 43
1.0000
 50
0.0000
  0
INSERT
  8
21
  2
RECT
 10
27.3655
 20
34.0960
 30
0.0000
 41
2.1590
 42
0.5080
 43
1.0000
 50
0.0000
  0
INSERT
  8
21
  2
RECT
 10
20.6345
 20
34.0960
 30
0.0000
 41
2.1590
 42
0.5080
 43
1.0000
 50
0.0000
  0
INSERT
  8
21
  2
RECT
 10
27.3655
 20
21.9040
 30
0.0000
 41
2.1590
 42
0.5080
 43
1.0000
 50
0.0000
  0
INSERT
  8
21
  2
RECT
 10
20.6345
 20
21.9040
 30
0.0000
 41
2.1590
 42
0.5080
 43
1.0000
 50
0.0000
  0
CIRCLE
  8
20
 10
24.0000
 20
23.5042
 30
0.0000
 40
0.9017
  0
CIRCLE
  8
20
 10
24.0000
 20
32.4958
 30
0.0000
 40
0.9017
  0
INSERT
  8
17
  2
LONGP100
 10
17.7516
 20
30.4892
 30
0.0000
 41
1.7907
 42
1.7907
 43
1.0000
 50
0.0000
  0
INSERT
  8
17
  2
LONGP100
 10
17.7516
 20
30.4892
 30
0.0000
 41
1.7907
 42
1.7907
 43
1.0000
 50
0.0000
  0
INSERT
  8
17
  2
LONGP100
 10
30.2484
 20
30.4892
 30
0.0000
 41
1.7907
 42
1.7907
 43
1.0000
 50
0.0000
  0
INSERT
  8
17
  2
LONGP100
 10
30.2484
 20
30.4892
 30
0.0000
 41
1.7907
 42
1.7907
 43
1.0000
 50
0.0000
  0
INSERT
  8
17
  2
LONGP100
 10
17.7516
 20
25.5108
 30
0.0000
 41
1.7907
 42
1.7907
 43
1.0000
 50
0.0000
  0
INSERT
  8
17
  2
LONGP100
 10
17.7516
 20
25.5108
 30
0.0000
 41
1.7907
 42
1.7907
 43
1.0000
 50
0.0000
  0
INSERT
  8
17
  2
LONGP100
 10
30.2484
 20
25.5108
 30
0.0000
 41
1.7907
 42
1.7907
 43
1.0000
 50
0.0000
  0
INSERT
  8
17
  2
LONGP100
 10
30.2484
 20
25.5108
 30
0.0000
 41
1.7907
 42
1.7907
 43
1.0000
 50
0.0000
  0
TEXT
  7
ISOCP
  8
25
 10
20.5000
 20
19.7450
 30
0.0000
 40
1.2700
  1
S5
  0
TEXT
  7
ISOCP
  8
27
 10
20.8250
 20
22.9200
 30
0.0000
 40
1.2700
  1

  0
POINT
  8
23
 10
49.0000
 20
28.0000
 30
0.0000
  0
LINE
  8
21
 10
50.9050
 20
26.0950
 30
0.0000
 11
47.0950
 21
26.0950
 31
0.0000
  0
LINE
  8
21
 10
47.0950
 20
29.9050
 30
0.0000
 11
47.0950
 21
26.0950
 31
0.0000
  0
LINE
  8
21
 10
47.0950
 20
29.9050
 30
0.0000
 11
50.9050
 21
29.9050
 31
0.0000
  0
LINE
  8
21
 10
50.9050
 20
26.0950
 30
0.0000
 11
50.9050
 21
29.9050
 31
0.0000
  0
LINE
  8
21
 10
50.6510
 20
26.3490
 30
0.0000
 11
47.3490
 21
26.3490
 31
0.0000
  0
LINE
  8
21
 10
47.3490
 20
29.6510
 30
0.0000
 11
47.3490
 21
26.3490
 31
0.0000
  0
LINE
  8
21
 10
47.3490
 20
29.6510
 30
0.0000
 11
50.6510
 21
29.6510
 31
0.0000
  0
LINE
  8
21
 10
50.6510
 20
26.3490
 30
0.0000
 11
50.6510
 21
29.6510
 31
0.0000
  0
LINE
  8
21
 10
50.0160
 20
21.9040
 30
0.0000
 11
50.0160
 21
21.5230
 31
0.0000
  0
LINE
  8
21
 10
50.0160
 20
21.9040
 30
0.0000
 11
47.9840
 21
21.9040
 31
0.0000
  0
LINE
  8
21
 10
50.0160
 20
21.5230
 30
0.0000
 11
47.9840
 21
21.5230
 31
0.0000
  0
LINE
  8
21
 10
47.9840
 20
21.5230
 30
0.0000
 11
47.9840
 21
21.9040
 31
0.0000
  0
LINE
  8
21
 10
42.9040
 20
22.9200
 30
0.0000
 11
43.9200
 21
21.9040
 31
0.0000
  0
LINE
  8
21
 10
43.9200
 20
21.9040
 30
0.0000
 11
47.2220
 21
21.9040
 31
0.0000
  0
LINE
  8
21
 10
42.9040
 20
22.9200
 30
0.0000
 11
42.9040
 21
24.1900
 31
0.0000
  0
LINE
  8
51
 10
42.9040
 20
26.8570
 30
0.0000
 11
42.9040
 21
24.1900
 31
0.0000
  0
LINE
  8
21
 10
42.9040
 20
26.8570
 30
0.0000
 11
42.9040
 21
29.1430
 31
0.0000
  0
LINE
  8
51
 10
42.9040
 20
31.8100
 30
0.0000
 11
42.9040
 21
29.1430
 31
0.0000
  0
LINE
  8
21
 10
43.9200
 20
34.0960
 30
0.0000
 11
42.9040
 21
33.0800
 31
0.0000
  0
LINE
  8
21
 10
42.9040
 20
33.0800
 30
0.0000
 11
42.9040
 21
31.8100
 31
0.0000
  0
LINE
  8
51
 10
55.0960
 20
26.8570
 30
0.0000
 11
55.0960
 21
24.1900
 31
0.0000
  0
LINE
  8
21
 10
55.0960
 20
26.8570
 30
0.0000
 11
55.0960
 21
29.1430
 31
0.0000
  0
LINE
  8
51
 10
55.0960
 20
31.8100
 30
0.0000
 11
55.0960
 21
29.1430
 31
0.0000
  0
LINE
  8
21
 10
55.0960
 20
31.8100
 30
0.0000
 11
55.0960
 21
33.0800
 31
0.0000
  0
LINE
  8
21
 10
55.0960
 20
33.0800
 30
0.0000
 11
54.0800
 21
34.0960
 31
0.0000
  0
LINE
  8
21
 10
54.0800
 20
34.0960
 30
0.0000
 11
50.7780
 21
34.0960
 31
0.0000
  0
LINE
  8
21
 10
54.0800
 20
21.9040
 30
0.0000
 11
50.7780
 21
21.9040
 31
0.0000
  0
LINE
  8
21
 10
54.0800
 20
21.9040
 30
0.0000
 11
55.0960
 21
22.9200
 31
0.0000
  0
LINE
  8
21
 10
55.0960
 20
22.9200
 30
0.0000
 11
55.0960
 21
24.1900
 31
0.0000
  0
LINE
  8
21
 10
50.0160
 20
34.4770
 30
0.0000
 11
47.9840
 21
34.4770
 31
0.0000
  0
LINE
  8
21
 10
50.0160
 20
34.4770
 30
0.0000
 11
50.0160
 21
34.0960
 31
0.0000
  0
LINE
  8
21
 10
47.9840
 20
34.0960
 30
0.0000
 11
47.9840
 21
34.4770
 31
0.0000
  0
LINE
  8
21
 10
43.9200
 20
21.9040
 30
0.0000
 11
44.1740
 21
21.6500
 31
0.0000
  0
LINE
  8
21
 10
44.1740
 20
21.6500
 30
0.0000
 11
47.2220
 21
21.6500
 31
0.0000
  0
LINE
  8
21
 10
47.2220
 20
21.6500
 30
0.0000
 11
47.2220
 21
21.9040
 31
0.0000
  0
LINE
  8
21
 10
47.2220
 20
21.9040
 30
0.0000
 11
47.9840
 21
21.9040
 31
0.0000
  0
LINE
  8
21
 10
50.7780
 20
21.6500
 30
0.0000
 11
50.7780
 21
21.9040
 31
0.0000
  0
LINE
  8
21
 10
50.7780
 20
21.9040
 30
0.0000
 11
50.0160
 21
21.9040
 31
0.0000
  0
LINE
  8
21
 10
50.7780
 20
21.6500
 30
0.0000
 11
53.8260
 21
21.6500
 31
0.0000
  0
LINE
  8
21
 10
54.0800
 20
21.9040
 30
0.0000
 11
53.8260
 21
21.6500
 31
0.0000
  0
LINE
  8
21
 10
50.0160
 20
34.0960
 30
0.0000
 11
47.9840
 21
34.0960
 31
0.0000
  0
LINE
  8
21
 10
47.9840
 20
34.0960
 30
0.0000
 11
47.2220
 21
34.0960
 31
0.0000
  0
LINE
  8
21
 10
50.7780
 20
34.0960
 30
0.0000
 11
50.7780
 21
34.3500
 31
0.0000
  0
LINE
  8
21
 10
50.7780
 20
34.0960
 30
0.0000
 11
50.0160
 21
34.0960
 31
0.0000
  0
LINE
  8
21
 10
50.7780
 20
34.3500
 30
0.0000
 11
53.8260
 21
34.3500
 31
0.0000
  0
LINE
  8
21
 10
53.8260
 20
34.3500
 30
0.0000
 11
54.0800
 21
34.0960
 31
0.0000
  0
LINE
  8
21
 10
47.2220
 20
34.0960
 30
0.0000
 11
47.2220
 21
34.3500
 31
0.0000
  0
LINE
  8
21
 10
47.2220
 20
34.0960
 30
0.0000
 11
43.9200
 21
34.0960
 31
0.0000
  0
LINE
  8
21
 10
44.1740
 20
34.3500
 30
0.0000
 11
47.2220
 21
34.3500
 31
0.0000
  0
LINE
  8
21
 10
43.9200
 20
34.0960
 30
0.0000
 11
44.1740
 21
34.3500
 31
0.0000
  0
LINE
  8
51
 10
54.0800
 20
25.4600
 30
0.0000
 11
53.5720
 21
25.4600
 31
0.0000
  0
LINE
  8
51
 10
46.0790
 20
25.4600
 30
0.0000
 11
43.9200
 21
25.4600
 31
0.0000
  0
LINE
  8
51
 10
54.0800
 20
30.5400
 30
0.0000
 11
53.5720
 21
30.5400
 31
0.0000
  0
LINE
  8
51
 10
46.0790
 20
30.5400
 30
0.0000
 11
43.9200
 21
30.5400
 31
0.0000
  0
LINE
  8
51
 10
53.5720
 20
25.4600
 30
0.0000
 11
53.5720
 21
27.2380
 31
0.0000
  0
LINE
  8
51
 10
53.5720
 20
25.4600
 30
0.0000
 11
51.9210
 21
25.4600
 31
0.0000
  0
LINE
  8
51
 10
53.5720
 20
27.2380
 30
0.0000
 11
54.0800
 21
28.7620
 31
0.0000
  0
LINE
  8
51
 10
53.5720
 20
28.7620
 30
0.0000
 11
53.5720
 21
30.5400
 31
0.0000
  0
LINE
  8
51
 10
53.5720
 20
30.5400
 30
0.0000
 11
51.9210
 21
30.5400
 31
0.0000
  0
TEXT
  7
ISOCP
  8
21
 10
54.2070
 20
24.6980
 30
0.0000
 40
1.2700
  1
1
 72
2
 73
3
 11
54.2070
 21
24.6980
 31
0.0000
  0
TEXT
  7
ISOCP
  8
21
 10
45.0630
 20
24.6980
 30
0.0000
 40
1.2700
  1
2
 72
2
 73
3
 11
45.0630
 21
24.6980
 31
0.0000
  0
TEXT
  7
ISOCP
  8
21
 10
54.2070
 20
32.6990
 30
0.0000
 40
1.2700
  1
3
 72
2
 73
3
 11
54.2070
 21
32.6990
 31
0.0000
  0
TEXT
  7
ISOCP
  8
21
 10
44.9360
 20
32.6990
 30
0.0000
 40
1.2700
  1
4
 72
2
 73
3
 11
44.9360
 21
32.6990
 31
0.0000
  0
CIRCLE
  8
21
 10
49.0000
 20
28.0000
 30
0.0000
 40
3.5560
  0
CIRCLE
  8
21
 10
49.0000
 20
28.0000
 30
0.0000
 40
1.0160
  0
CIRCLE
  8
21
 10
49.0000
 20
28.0000
 30
0.0000
 40
0.7620
  0
CIRCLE
  8
51
 10
53.5720
 20
25.4600
 30
0.0000
 40
0.1270
  0
CIRCLE
  8
51
 10
53.5720
 20
30.5400
 30
0.0000
 40
0.1270
  0
INSERT
  8
51
  2
RECT
 10
42.6500
 20
30.4765
 30
0.0000
 41
0.5080
 42
0.8890
 43
1.0000
 50
180.0000
  0
INSERT
  8
51
  2
RECT
 10
42.6500
 20
25.5235
 30
0.0000
 41
0.5080
 42
0.8890
 43
1.0000
 50
180.0000
  0
INSERT
  8
51
  2
RECT
 10
55.3500
 20
25.5235
 30
0.0000
 41
0.5080
 42
0.8890
 43
1.0000
 50
180.0000
  0
INSERT
  8
51
  2
RECT
 10
55.3500
 20
30.4765
 30
0.0000
 41
0.5080
 42
0.8890
 43
1.0000
 50
180.0000
  0
INSERT
  8
21
  2
RECT
 10
45.6345
 20
21.9040
 30
0.0000
 41
2.1590
 42
0.5080
 43
1.0000
 50
180.0000
  0
INSERT
  8
21
  2
RECT
 10
52.3655
 20
21.9040
 30
0.0000
 41
2.1590
 42
0.5080
 43
1.0000
 50
180.0000
  0
INSERT
  8
21
  2
RECT
 10
45.6345
 20
34.0960
 30
0.0000
 41
2.1590
 42
0.5080
 43
1.0000
 50
180.0000
  0
INSERT
  8
21
  2
RECT
 10
52.3655
 20
34.0960
 30
0.0000
 41
2.1590
 42
0.5080
 43
1.0000
 50
180.0000
  0
CIRCLE
  8
20
 10
49.0000
 20
32.4958
 30
0.0000
 40
0.9017
  0
CIRCLE
  8
20
 10
49.0000
 20
23.5042
 30
0.0000
 40
0.9017
  0
INSERT
  8
17
  2
LONGP100
 10
55.2484
 20
25.5108
 30
0.0000
 41
1.7907
 42
1.7907
 43
1.0000
 50
180.0000
  0
INSERT
  8
17
  2
LONGP100
 10
55.2484
 20
25.5108
 30
0.0000
 41
1.7907
 42
1.7907
 43
1.0000
 50
180.0000
  0
INSERT
  8
17
  2
LONGP100
 10
42.7516
 20
25.5108
 30
0.0000
 41
1.7907
 42
1.7907
 43
1.0000
 50
180.0000
  0
INSERT
  8
17
  2
LONGP100
 10
42.7516
 20
25.5108
 30
0.0000
 41
1.7907
 42
1.7907
 43
1.0000
 50
180.0000
  0
INSERT
  8
17
  2
LONGP100
 10
55.2484
 20
30.4892
 30
0.0000
 41
1.7907
 42
1.7907
 43
1.0000
 50
180.0000
  0
INSERT
  8
17
  2
LONGP100
 10
55.2484
 20
30.4892
 30
0.0000
 41
1.7907
 42
1.7907
 43
1.0000
 50
180.0000
  0
INSERT
  8
17
  2
LONGP100
 10
42.7516
 20
30.4892
 30
0.0000
 41
1.7907
 42
1.7907
 43
1.0000
 50
180.0000
  0
INSERT
  8
17
  2
LONGP100
 10
42.7516
 20
30.4892
 30
0.0000
 41
1.7907
 42
1.7907
 43
1.0000
 50
180.0000
  0
TEXT
  7
ISOCP
  8
25
 10
53.2700
 20
21.0150
 30
0.0000
 40
1.2700
  1
S6
 72
2
 73
3
 11
53.2700
 21
21.0150
 31
0.0000
  0
TEXT
  7
ISOCP
  8
27
 10
52.1750
 20
33.0800
 30
0.0000
 40
1.2700
  1

 72
2
 73
3
 11
52.1750
 21
33.0800
 31
0.0000
  0
LINE
  8
1
 10
-2.0000
 20
86.0000
 30
0.0000
 11
130.0000
 21
86.0000
 31
0.0000
  0
LINE
  8
1
 10
130.0000
 20
86.0000
 30
0.0000
 11
130.0000
 21
-6.0000
 31
0.0000
  0
LINE
  8
1
 10
130.0000
 20
-6.0000
 30
0.0000
 11
-2.0000
 21
-6.0000
 31
0.0000
  0
LINE
  8
1
 10
-2.0000
 20
-6.0000
 30
0.0000
 11
-2.0000
 21
86.0000
 31
0.0000
  0
LINE
  8
16
 10
-2.0000
 20
86.0000
 30
0.0000
 11
130.0000
 21
86.0000
 31
0.0000
  0
LINE
  8
16
 10
130.0000
 20
86.0000
 30
0.0000
 11
130.0000
 21
-6.0000
 31
0.0000
  0
LINE
  8
16
 10
130.0000
 20
-6.0000
 30
0.0000
 11
-2.0000
 21
-6.0000
 31
0.0000
  0
LINE
  8
16
 10
-2.0000
 20
-6.0000
 30
0.0000
 11
-2.0000
 21
86.0000
 31
0.0000
  0
INSERT
  8
18
  2
ROUNDV
 10
23.0000
 20
8.3000
 30
0.0000
 41
1.5240
 42
1.5240
 43
1.0000
 50
0.0000
  0
INSERT
  8
18
  2
ROUNDV
 10
23.0000
 20
8.3000
 30
0.0000
 41
1.5240
 42
1.5240
 43
1.0000
 50
0.0000
  0
LINE
  8
1
 10
36.5760
 20
5.5880
 30
0.0000
 11
36.5760
 21
4.0640
 31
0.0000
  0
LINE
  8
1
 10
36.0680
 20
6.0960
 30
0.0000
 11
36.5760
 21
5.5880
 31
0.0000
  0
LINE
  8
16
 10
34.0360
 20
6.0960
 30
0.0000
 11
36.0680
 21
6.0960
 31
0.0000
  0
LINE
  8
16
 10
33.0200
 20
7.1120
 30
0.0000
 11
34.0360
 21
6.0960
 31
0.0000
  0
LINE
  8
16
 10
33.0200
 20
13.2080
 30
0.0000
 11
33.0200
 21
8.6360
 31
0.0000
  0
LINE
  8
16
 10
33.0200
 20
8.6360
 30
0.0000
 11
33.0200
 21
7.1120
 31
0.0000
  0
LINE
  8
16
 10
36.5760
 20
16.7640
 30
0.0000
 11
33.0200
 21
13.2080
 31
0.0000
  0
LINE
  8
16
 10
36.5760
 20
23.3680
 30
0.0000
 11
36.5760
 21
16.7640
 31
0.0000
  0
LINE
  8
16
 10
32.0040
 20
27.9400
 30
0.0000
 11
36.5760
 21
23.3680
 31
0.0000
  0
LINE
  8
16
 10
31.4960
 20
27.9400
 30
0.0000
 11
32.0040
 21
27.9400
 31
0.0000
  0
LINE
  8
16
 10
29.9720
 20
29.4640
 30
0.0000
 11
30.9880
 21
28.4480
 31
0.0000
  0
LINE
  8
16
 10
30.9880
 20
28.4480
 30
0.0000
 11
31.4960
 21
27.9400
 31
0.0000
  0
LINE
  8
16
 10
29.9720
 20
30.4800
 30
0.0000
 11
29.9720
 21
29.4640
 31
0.0000
  0
LINE
  8
1
 10
36.5760
 20
4.0640
 30
0.0000
 11
36.6500
 21
4.0000
 31
0.0000
  0
LINE
  8
16
 10
29.9720
 20
30.4800
 30
0.0000
 11
30.2484
 21
30.4892
 31
0.0000
  0
LINE
  8
1
 10
30.9880
 20
8.1280
 30
0.0000
 11
32.0040
 21
8.1280
 31
0.0000
  0
LINE
  8
1
 10
29.9720
 20
7.1120
 30
0.0000
 11
30.9880
 21
8.1280
 31
0.0000
  0
LINE
  8
1
 10
29.4640
 20
7.6200
 30
0.0000
 11
29.9720
 21
7.1120
 31
0.0000
  0
LINE
  8
1
 10
29.4640
 20
8.6360
 30
0.0000
 11
29.4640
 21
7.6200
 31
0.0000
  0
LINE
  8
16
 10
33.0200
 20
8.6360
 30
0.0000
 11
29.4640
 21
8.6360
 31
0.0000
  0
LINE
  8
1
 10
32.0040
 20
8.1280
 30
0.0000
 11
32.0734
 21
7.9950
 31
0.0000
  0
LINE
  8
16
 10
17.7800
 20
28.9560
 30
0.0000
 11
17.7800
 21
30.4800
 31
0.0000
  0
LINE
  8
16
 10
18.7960
 20
27.9400
 30
0.0000
 11
17.7800
 21
28.9560
 31
0.0000
  0
LINE
  8
16
 10
30.4800
 20
27.9400
 30
0.0000
 11
18.7960
 21
27.9400
 31
0.0000
  0
LINE
  8
16
 10
30.9880
 20
28.4480
 30
0.0000
 11
30.4800
 21
27.9400
 31
0.0000
  0
LINE
  8
16
 10
17.7800
 20
30.4800
 30
0.0000
 11
17.7516
 21
30.4892
 31
0.0000
  0
INSERT
  8
18
  2
ROUNDV
 10
36.0680
 20
6.0960
 30
0.0000
 41
1.5240
 42
1.5240
 43
1.0000
 50
0.0000
  0
INSERT
  8
18
  2
ROUNDV
 10
36.0680
 20
6.0960
 30
0.0000
 41
1.5240
 42
1.5240
 43
1.0000
 50
0.0000
  0
INSERT
  8
18
  2
ROUNDV
 10
29.4640
 20
8.6360
 30
0.0000
 41
1.5240
 42
1.5240
 43
1.0000
 50
0.0000
  0
INSERT
  8
18
  2
ROUNDV
 10
29.4640
 20
8.6360
 30
0.0000
 41
1.5240
 42
1.5240
 43
1.0000
 50
0.0000
  0
LINE
  8
1
 10
35.0520
 20
12.1920
 30
0.0000
 11
36.5760
 21
12.1920
 31
0.0000
  0
LINE
  8
1
 10
33.5280
 20
10.6680
 30
0.0000
 11
34.0360
 21
11.1760
 31
0.0000
  0
LINE
  8
1
 10
34.0360
 20
11.1760
 30
0.0000
 11
35.0520
 21
12.1920
 31
0.0000
  0
LINE
  8
1
 10
32.5120
 20
10.6680
 30
0.0000
 11
33.5280
 21
10.6680
 31
0.0000
  0
LINE
  8
1
 10
36.5760
 20
12.1920
 30
0.0000
 11
36.6500
 21
12.0000
 31
0.0000
  0
LINE
  8
1
 10
32.5120
 20
10.6680
 30
0.0000
 11
32.0734
 21
10.5350
 31
0.0000
  0
LINE
  8
1
 10
57.4040
 20
2.5400
 30
0.0000
 11
58.9280
 21
2.5400
 31
0.0000
  0
LINE
  8
1
 10
49.7840
 20
10.1600
 30
0.0000
 11
57.4040
 21
2.5400
 31
0.0000
  0
LINE
  8
1
 10
49.7840
 20
16.7640
 30
0.0000
 11
49.7840
 21
10.1600
 31
0.0000
  0
LINE
  8
1
 10
48.7680
 20
17.7800
 30
0.0000
 11
49.7840
 21
16.7640
 31
0.0000
  0
LINE
  8
1
 10
43.6880
 20
17.7800
 30
0.0000
 11
48.7680
 21
17.7800
 31
0.0000
  0
LINE
  8
1
 10
40.1320
 20
14.2240
 30
0.0000
 11
43.6880
 21
17.7800
 31
0.0000
  0
LINE
  8
16
 10
36.0680
 20
10.1600
 30
0.0000
 11
40.1320
 21
14.2240
 31
0.0000
  0
LINE
  8
1
 10
35.0520
 20
10.1600
 30
0.0000
 11
36.0680
 21
10.1600
 31
0.0000
  0
LINE
  8
1
 10
34.0360
 20
11.1760
 30
0.0000
 11
35.0520
 21
10.1600
 31
0.0000
  0
LINE
  8
1
 10
58.9280
 20
2.5400
 30
0.0000
 11
59.0000
 21
2.5000
 31
0.0000
  0
INSERT
  8
18
  2
ROUNDV
 10
40.1320
 20
14.2240
 30
0.0000
 41
1.5240
 42
1.5240
 43
1.0000
 50
0.0000
  0
INSERT
  8
18
  2
ROUNDV
 10
40.1320
 20
14.2240
 30
0.0000
 41
1.5240
 42
1.5240
 43
1.0000
 50
0.0000
  0
INSERT
  8
18
  2
ROUNDV
 10
36.0680
 20
10.1600
 30
0.0000
 41
1.5240
 42
1.5240
 43
1.0000
 50
0.0000
  0
INSERT
  8
18
  2
ROUNDV
 10
36.0680
 20
10.1600
 30
0.0000
 41
1.5240
 42
1.5240
 43
1.0000
 50
0.0000
  0
LINE
  8
1
 10
34.5440
 20
8.1280
 30
0.0000
 11
36.5760
 21
8.1280
 31
0.0000
  0
LINE
  8
1
 10
33.5280
 20
9.1440
 30
0.0000
 11
34.5440
 21
8.1280
 31
0.0000
  0
LINE
  8
1
 10
32.5120
 20
9.1440
 30
0.0000
 11
33.5280
 21
9.1440
 31
0.0000
  0
LINE
  8
1
 10
36.5760
 20
8.1280
 30
0.0000
 11
36.6500
 21
8.0000
 31
0.0000
  0
LINE
  8
1
 10
32.5120
 20
9.1440
 30
0.0000
 11
32.0734
 21
9.2650
 31
0.0000
  0
LINE
  8
16
 10
34.5440
 20
13.2080
 30
0.0000
 11
34.5440
 21
8.1280
 31
0.0000
  0
LINE
  8
16
 10
42.6720
 20
21.3360
 30
0.0000
 11
34.5440
 21
13.2080
 31
0.0000
  0
LINE
  8
16
 10
42.6720
 20
25.4000
 30
0.0000
 11
42.6720
 21
22.8600
 31
0.0000
  0
LINE
  8
16
 10
42.6720
 20
22.8600
 30
0.0000
 11
42.6720
 21
21.3360
 31
0.0000
  0
LINE
  8
16
 10
42.6720
 20
25.4000
 30
0.0000
 11
42.7516
 21
25.5108
 31
0.0000
  0
LINE
  8
16
 10
55.3720
 20
26.9240
 30
0.0000
 11
55.3720
 21
25.9080
 31
0.0000
  0
LINE
  8
16
 10
54.3560
 20
27.9400
 30
0.0000
 11
55.3720
 21
26.9240
 31
0.0000
  0
LINE
  8
16
 10
49.2760
 20
27.9400
 30
0.0000
 11
54.3560
 21
27.9400
 31
0.0000
  0
LINE
  8
16
 10
44.1960
 20
22.8600
 30
0.0000
 11
49.2760
 21
27.9400
 31
0.0000
  0
LINE
  8
16
 10
42.6720
 20
22.8600
 30
0.0000
 11
44.1960
 21
22.8600
 31
0.0000
  0
LINE
  8
16
 10
55.3720
 20
25.9080
 30
0.0000
 11
55.2484
 21
25.5108
 31
0.0000
  0
INSERT
  8
18
  2
ROUNDV
 10
34.5440
 20
8.1280
 30
0.0000
 41
1.5240
 42
1.5240
 43
1.0000
 50
0.0000
  0
INSERT
  8
18
  2
ROUNDV
 10
34.5440
 20
8.1280
 30
0.0000
 41
1.5240
 42
1.5240
 43
1.0000
 50
0.0000
  0
LINE
  8
1
 10
24.0000
 20
14.2240
 30
0.0000
 11
25.9080
 21
14.2240
 31
0.0000
  0
LINE
  8
1
 10
23.8760
 20
14.3480
 30
0.0000
 11
24.0000
 21
14.2240
 31
0.0000
  0
LINE
  8
16
 10
23.8760
 20
13.0760
 30
0.0000
 11
23.8760
 21
14.3480
 31
0.0000
  0
LINE
  8
16
 10
18.6120
 20
7.8120
 30
0.0000
 11
23.8760
 21
13.0760
 31
0.0000
  0
LINE
  8
16
 10
18.6120
 20
4.4800
 30
0.0000
 11
18.6120
 21
7.8120
 31
0.0000
  0
LINE
  8
16
 10
20.0440
 20
3.0480
 30
0.0000
 11
18.6120
 21
4.4800
 31
0.0000
  0
LINE
  8
16
 10
48.2600
 20
3.0480
 30
0.0000
 11
20.0440
 21
3.0480
 31
0.0000
  0
LINE
  8
16
 10
49.7840
 20
4.5720
 30
0.0000
 11
48.2600
 21
3.0480
 31
0.0000
  0
LINE
  8
16
 10
49.7840
 20
9.1440
 30
0.0000
 11
49.7840
 21
4.5720
 31
0.0000
  0
LINE
  8
16
 10
48.2600
 20
10.6680
 30
0.0000
 11
49.7840
 21
9.1440
 31
0.0000
  0
LINE
  8
16
 10
47.7520
 20
10.1600
 30
0.0000
 11
48.2600
 21
10.6680
 31
0.0000
  0
LINE
  8
16
 10
47.2440
 20
10.6680
 30
0.0000
 11
47.7520
 21
10.1600
 31
0.0000
  0
LINE
  8
1
 10
25.9080
 20
14.2240
 30
0.0000
 11
25.9266
 21
14.3450
 31
0.0000
  0
LINE
  8
16
 10
47.2440
 20
10.6680
 30
0.0000
 11
47.4370
 21
10.7100
 31
0.0000
  0
INSERT
  8
18
  2
ROUNDV
 10
23.8760
 20
14.3480
 30
0.0000
 41
1.5240
 42
1.5240
 43
1.0000
 50
0.0000
  0
INSERT
  8
18
  2
ROUNDV
 10
23.8760
 20
14.3480
 30
0.0000
 41
1.5240
 42
1.5240
 43
1.0000
 50
0.0000
  0
LINE
  8
1
 10
23.8760
 20
4.0640
 30
0.0000
 11
22.3520
 21
4.0640
 31
0.0000
  0
LINE
  8
1
 10
24.3840
 20
3.5560
 30
0.0000
 11
23.8760
 21
4.0640
 31
0.0000
  0
LINE
  8
1
 10
27.4320
 20
3.5560
 30
0.0000
 11
24.3840
 21
3.5560
 31
0.0000
  0
LINE
  8
1
 10
28.4480
 20
4.5720
 30
0.0000
 11
27.4320
 21
3.5560
 31
0.0000
  0
LINE
  8
1
 10
28.4480
 20
7.1120
 30
0.0000
 11
28.4480
 21
4.5720
 31
0.0000
  0
LINE
  8
1
 10
27.4320
 20
8.1280
 30
0.0000
 11
28.4480
 21
7.1120
 31
0.0000
  0
LINE
  8
1
 10
26.4160
 20
8.1280
 30
0.0000
 11
27.4320
 21
8.1280
 31
0.0000
  0
LINE
  8
1
 10
22.3520
 20
4.0640
 30
0.0000
 11
22.2500
 21
4.2000
 31
0.0000
  0
LINE
  8
1
 10
26.4160
 20
8.1280
 30
0.0000
 11
25.9266
 21
7.9950
 31
0.0000
  0
LINE
  8
1
 10
92.9640
 20
28.4480
 30
0.0000
 11
92.9640
 21
30.4800
 31
0.0000
  0
LINE
  8
1
 10
93.4720
 20
27.9400
 30
0.0000
 11
92.9640
 21
28.4480
 31
0.0000
  0
LINE
  8
1
 10
104.1400
 20
27.9400
 30
0.0000
 11
93.4720
 21
27.9400
 31
0.0000
  0
LINE
  8
1
 10
105.6640
 20
29.4640
 30
0.0000
 11
104.1400
 21
27.9400
 31
0.0000
  0
LINE
  8
1
 10
105.6640
 20
30.4800
 30
0.0000
 11
105.6640
 21
29.4640
 31
0.0000
  0
LINE
  8
1
 10
92.9640
 20
30.4800
 30
0.0000
 11
92.7516
 21
30.4892
 31
0.0000
  0
LINE
  8
1
 10
105.6640
 20
30.4800
 30
0.0000
 11
105.2484
 21
30.4892
 31
0.0000
  0
LINE
  8
1
 10
31.4960
 20
1.5240
 30
0.0000
 11
28.4480
 21
4.5720
 31
0.0000
  0
LINE
  8
1
 10
32.0040
 20
1.5240
 30
0.0000
 11
31.4960
 21
1.5240
 31
0.0000
  0
LINE
  8
16
 10
53.8480
 20
1.5240
 30
0.0000
 11
32.0040
 21
1.5240
 31
0.0000
  0
LINE
  8
16
 10
72.6440
 20
20.3200
 30
0.0000
 11
53.8480
 21
1.5240
 31
0.0000
  0
LINE
  8
16
 10
83.8200
 20
20.3200
 30
0.0000
 11
72.6440
 21
20.3200
 31
0.0000
  0
LINE
  8
16
 10
92.9640
 20
29.4640
 30
0.0000
 11
83.8200
 21
20.3200
 31
0.0000
  0
LINE
  8
16
 10
92.9640
 20
30.4800
 30
0.0000
 11
92.9640
 21
29.4640
 31
0.0000
  0
LINE
  8
16
 10
92.9640
 20
30.4800
 30
0.0000
 11
92.7516
 21
30.4892
 31
0.0000
  0
INSERT
  8
18
  2
ROUNDV
 10
32.0040
 20
1.5240
 30
0.0000
 41
1.5240
 42
1.5240
 43
1.0000
 50
0.0000
  0
INSERT
  8
18
  2
ROUNDV
 10
32.0040
 20
1.5240
 30
0.0000
 41
1.5240
 42
1.5240
 43
1.0000
 50
0.0000
  0
LINE
  8
1
 10
22.3680
 20
9.8520
 30
0.0000
 11
21.1500
 21
8.6340
 31
0.0000
  0
LINE
  8
1
 10
21.1500
 20
8.2000
 30
0.0000
 11
21.1500
 21
8.6340
 31
0.0000
  0
LINE
  8
1
 10
23.6840
 20
9.8520
 30
0.0000
 11
22.3680
 21
9.8520
 31
0.0000
  0
LINE
  8
1
 10
24.1920
 20
9.3440
 30
0.0000
 11
23.6840
 21
9.8520
 31
0.0000
  0
LINE
  8
1
 10
25.9266
 20
9.2650
 30
0.0000
 11
25.8476
 21
9.3440
 31
0.0000
  0
LINE
  8
1
 10
25.8476
 20
9.3440
 30
0.0000
 11
24.1920
 21
9.3440
 31
0.0000
  0
LINE
  8
1
 10
21.1500
 20
8.2000
 30
0.0000
 11
20.8500
 21
7.9000
 31
0.0000
  0
LINE
  8
1
 10
20.8500
 20
7.9000
 30
0.0000
 11
20.8500
 21
6.2100
 31
0.0000
  0
LINE
  8
1
 10
20.6360
 20
5.9960
 30
0.0000
 11
20.8500
 21
6.2100
 31
0.0000
  0
LINE
  8
16
 10
20.6360
 20
5.9960
 30
0.0000
 11
20.9280
 21
5.9960
 31
0.0000
  0
LINE
  8
16
 10
22.3520
 20
4.5720
 30
0.0000
 11
20.9280
 21
5.9960
 31
0.0000
  0
LINE
  8
16
 10
37.0840
 20
4.5720
 30
0.0000
 11
22.3520
 21
4.5720
 31
0.0000
  0
LINE
  8
16
 10
42.1640
 20
9.6520
 30
0.0000
 11
37.0840
 21
4.5720
 31
0.0000
  0
LINE
  8
16
 10
42.1640
 20
16.2560
 30
0.0000
 11
42.1640
 21
9.6520
 31
0.0000
  0
LINE
  8
16
 10
47.2440
 20
21.3360
 30
0.0000
 11
42.1640
 21
16.2560
 31
0.0000
  0
LINE
  8
16
 10
65.0240
 20
21.3360
 30
0.0000
 11
47.2440
 21
21.3360
 31
0.0000
  0
LINE
  8
16
 10
68.0720
 20
24.3840
 30
0.0000
 11
67.0560
 21
23.3680
 31
0.0000
  0
LINE
  8
16
 10
67.0560
 20
23.3680
 30
0.0000
 11
65.0240
 21
21.3360
 31
0.0000
  0
LINE
  8
16
 10
68.0720
 20
25.4000
 30
0.0000
 11
68.0720
 21
24.3840
 31
0.0000
  0
LINE
  8
16
 10
68.0720
 20
25.4000
 30
0.0000
 11
67.7516
 21
25.5108
 31
0.0000
  0
LINE
  8
16
 10
78.7400
 20
25.4000
 30
0.0000
 11
79.7560
 21
25.4000
 31
0.0000
  0
LINE
  8
16
 10
74.6760
 20
21.3360
 30
0.0000
 11
78.7400
 21
25.4000
 31
0.0000
  0
LINE
  8
16
 10
69.0880
 20
21.3360
 30
0.0000
 11
74.6760
 21
21.3360
 31
0.0000
  0
LINE
  8
16
 10
67.0560
 20
23.3680
 30
0.0000
 11
69.0880
 21
21.3360
 31
0.0000
  0
LINE
  8
16
 10
79.7560
 20
25.4000
 30
0.0000
 11
80.2484
 21
25.5108
 31
0.0000
  0
INSERT
  8
18
  2
ROUNDV
 10
20.6360
 20
5.9960
 30
0.0000
 41
1.5240
 42
1.5240
 43
1.0000
 50
0.0000
  0
INSERT
  8
18
  2
ROUNDV
 10
20.6360
 20
5.9960
 30
0.0000
 41
1.5240
 42
1.5240
 43
1.0000
 50
0.0000
  0
LINE
  8
1
 10
23.3680
 20
11.6840
 30
0.0000
 11
22.3520
 21
11.6840
 31
0.0000
  0
LINE
  8
1
 10
24.3840
 20
10.6680
 30
0.0000
 11
23.3680
 21
11.6840
 31
0.0000
  0
LINE
  8
1
 10
25.9080
 20
10.6680
 30
0.0000
 11
24.3840
 21
10.6680
 31
0.0000
  0
LINE
  8
1
 10
22.3520
 20
11.6840
 30
0.0000
 11
21.9500
 21
12.0000
 31
0.0000
  0
LINE
  8
1
 10
25.9080
 20
10.6680
 30
0.0000
 11
25.9266
 21
10.5350
 31
0.0000
  0
LINE
  8
1
 10
22.3520
 20
13.2080
 30
0.0000
 11
22.3520
 21
12.1920
 31
0.0000
  0
LINE
  8
1
 10
21.8440
 20
13.7160
 30
0.0000
 11
22.3520
 21
13.2080
 31
0.0000
  0
LINE
  8
1
 10
21.8440
 20
14.2240
 30
0.0000
 11
21.8440
 21
13.7160
 31
0.0000
  0
LINE
  8
16
 10
16.7640
 20
14.2240
 30
0.0000
 11
21.8440
 21
14.2240
 31
0.0000
  0
LINE
  8
16
 10
16.2560
 20
14.7320
 30
0.0000
 11
16.7640
 21
14.2240
 31
0.0000
  0
LINE
  8
16
 10
16.2560
 20
16.2560
 30
0.0000
 11
16.2560
 21
14.7320
 31
0.0000
  0
LINE
  8
1
 10
22.3520
 20
12.1920
 30
0.0000
 11
21.9500
 21
12.0000
 31
0.0000
  0
LINE
  8
16
 10
16.2560
 20
16.2560
 30
0.0000
 11
16.2484
 21
16.4892
 31
0.0000
  0
LINE
  8
16
 10
4.0640
 20
14.7320
 30
0.0000
 11
4.0640
 21
16.2560
 31
0.0000
  0
LINE
  8
16
 10
4.5720
 20
14.2240
 30
0.0000
 11
4.0640
 21
14.7320
 31
0.0000
  0
LINE
  8
16
 10
15.7480
 20
14.2240
 30
0.0000
 11
4.5720
 21
14.2240
 31
0.0000
  0
LINE
  8
16
 10
16.2560
 20
14.7320
 30
0.0000
 11
15.7480
 21
14.2240
 31
0.0000
  0
LINE
  8
16
 10
4.0640
 20
16.2560
 30
0.0000
 11
3.7516
 21
16.4892
 31
0.0000
  0
INSERT
  8
18
  2
ROUNDV
 10
21.8440
 20
14.2240
 30
0.0000
 41
1.5240
 42
1.5240
 43
1.0000
 50
0.0000
  0
INSERT
  8
18
  2
ROUNDV
 10
21.8440
 20
14.2240
 30
0.0000
 41
1.5240
 42
1.5240
 43
1.0000
 50
0.0000
  0
LINE
  8
1
 10
22.3520
 20
17.7800
 30
0.0000
 11
22.3520
 21
16.7640
 31
0.0000
  0
LINE
  8
1
 10
22.8600
 20
18.2880
 30
0.0000
 11
22.3520
 21
17.7800
 31
0.0000
  0
LINE
  8
1
 10
24.8920
 20
18.2880
 30
0.0000
 11
22.8600
 21
18.2880
 31
0.0000
  0
LINE
  8
16
 10
26.9160
 20
18.2880
 30
0.0000
 11
24.8920
 21
18.2880
 31
0.0000
  0
LINE
  8
16
 10
28.9480
 20
16.2560
 30
0.0000
 11
26.9160
 21
18.2880
 31
0.0000
  0
LINE
  8
16
 10
28.4480
 20
13.7160
 30
0.0000
 11
28.4480
 21
16.2560
 31
0.0000
  0
LINE
  8
1
 10
28.4480
 20
12.7000
 30
0.0000
 11
28.4480
 21
13.7160
 31
0.0000
  0
LINE
  8
1
 10
27.4320
 20
11.6840
 30
0.0000
 11
28.4480
 21
12.7000
 31
0.0000
  0
LINE
  8
1
 10
26.4160
 20
11.6840
 30
0.0000
 11
27.4320
 21
11.6840
 31
0.0000
  0
LINE
  8
1
 10
22.3520
 20
16.7640
 30
0.0000
 11
22.0500
 21
16.3000
 31
0.0000
  0
LINE
  8
1
 10
26.4160
 20
11.6840
 30
0.0000
 11
25.9266
 21
11.8050
 31
0.0000
  0
LINE
  8
1
 10
106.6800
 20
15.2400
 30
0.0000
 11
106.6800
 21
16.2560
 31
0.0000
  0
LINE
  8
1
 10
107.6960
 20
14.2240
 30
0.0000
 11
107.1880
 21
14.7320
 31
0.0000
  0
LINE
  8
1
 10
107.1880
 20
14.7320
 30
0.0000
 11
106.6800
 21
15.2400
 31
0.0000
  0
LINE
  8
1
 10
118.3640
 20
14.2240
 30
0.0000
 11
107.6960
 21
14.2240
 31
0.0000
  0
LINE
  8
1
 10
119.8880
 20
15.7480
 30
0.0000
 11
118.3640
 21
14.2240
 31
0.0000
  0
LINE
  8
1
 10
119.8880
 20
16.2560
 30
0.0000
 11
119.8880
 21
15.7480
 31
0.0000
  0
LINE
  8
1
 10
119.3800
 20
16.7640
 30
0.0000
 11
119.8880
 21
16.2560
 31
0.0000
  0
LINE
  8
1
 10
106.6800
 20
16.2560
 30
0.0000
 11
106.7516
 21
16.4892
 31
0.0000
  0
LINE
  8
1
 10
119.3800
 20
16.7640
 30
0.0000
 11
119.2484
 21
16.4892
 31
0.0000
  0
LINE
  8
16
 10
30.9880
 20
16.2560
 30
0.0000
 11
28.9480
 21
16.2560
 31
0.0000
  0
LINE
  8
16
 10
28.9480
 20
16.2560
 30
0.0000
 11
28.4480
 21
16.2560
 31
0.0000
  0
LINE
  8
16
 10
35.0520
 20
20.3200
 30
0.0000
 11
30.9880
 21
16.2560
 31
0.0000
  0
LINE
  8
1
 10
98.5520
 20
20.3200
 30
0.0000
 11
35.0520
 21
20.3200
 31
0.0000
  0
LINE
  8
1
 10
104.6480
 20
14.2240
 30
0.0000
 11
98.5520
 21
20.3200
 31
0.0000
  0
LINE
  8
1
 10
106.6800
 20
14.2240
 30
0.0000
 11
104.6480
 21
14.2240
 31
0.0000
  0
LINE
  8
1
 10
107.1880
 20
14.7320
 30
0.0000
 11
106.6800
 21
14.2240
 31
0.0000
  0
INSERT
  8
18
  2
ROUNDV
 10
24.8920
 20
18.2880
 30
0.0000
 41
1.5240
 42
1.5240
 43
1.0000
 50
0.0000
  0
INSERT
  8
18
  2
ROUNDV
 10
24.8920
 20
18.2880
 30
0.0000
 41
1.5240
 42
1.5240
 43
1.0000
 50
0.0000
  0
INSERT
  8
18
  2
ROUNDV
 10
28.4480
 20
13.7160
 30
0.0000
 41
1.5240
 42
1.5240
 43
1.0000
 50
0.0000
  0
INSERT
  8
18
  2
ROUNDV
 10
28.4480
 20
13.7160
 30
0.0000
 41
1.5240
 42
1.5240
 43
1.0000
 50
0.0000
  0
INSERT
  8
18
  2
ROUNDV
 10
35.0520
 20
20.3200
 30
0.0000
 41
1.5240
 42
1.5240
 43
1.0000
 50
0.0000
  0
INSERT
  8
18
  2
ROUNDV
 10
35.0520
 20
20.3200
 30
0.0000
 41
1.5240
 42
1.5240
 43
1.0000
 50
0.0000
  0
LINE
  8
1
 10
36.5760
 20
17.2720
 30
0.0000
 11
36.5760
 21
16.2560
 31
0.0000
  0
LINE
  8
1
 10
38.1000
 20
18.7960
 30
0.0000
 11
37.0840
 21
17.7800
 31
0.0000
  0
LINE
  8
1
 10
37.0840
 20
17.7800
 30
0.0000
 11
36.5760
 21
17.2720
 31
0.0000
  0
LINE
  8
1
 10
51.8160
 20
18.7960
 30
0.0000
 11
38.1000
 21
18.7960
 31
0.0000
  0
LINE
  8
1
 10
64.0080
 20
6.6040
 30
0.0000
 11
51.8160
 21
18.7960
 31
0.0000
  0
LINE
  8
1
 10
64.0080
 20
2.5400
 30
0.0000
 11
64.0080
 21
6.6040
 31
0.0000
  0
LINE
  8
1
 10
36.5760
 20
16.2560
 30
0.0000
 11
36.6500
 21
16.0000
 31
0.0000
  0
LINE
  8
1
 10
64.0080
 20
2.5400
 30
0.0000
 11
64.0000
 21
2.5000
 31
0.0000
  0
LINE
  8
1
 10
30.9880
 20
11.6840
 30
0.0000
 11
32.0040
 21
11.6840
 31
0.0000
  0
LINE
  8
1
 10
30.4800
 20
12.1920
 30
0.0000
 11
30.9880
 21
11.6840
 31
0.0000
  0
LINE
  8
1
 10
29.4640
 20
11.1760
 30
0.0000
 11
30.4800
 21
12.1920
 31
0.0000
  0
LINE
  8
16
 10
29.4640
 20
12.1920
 30
0.0000
 11
29.4640
 21
11.1760
 31
0.0000
  0
LINE
  8
16
 10
35.0520
 20
17.7800
 30
0.0000
 11
29.4640
 21
12.1920
 31
0.0000
  0
LINE
  8
1
 10
35.5600
 20
18.2880
 30
0.0000
 11
35.0520
 21
17.7800
 31
0.0000
  0
LINE
  8
1
 10
36.5760
 20
18.2880
 30
0.0000
 11
35.5600
 21
18.2880
 31
0.0000
  0
LINE
  8
1
 10
37.0840
 20
17.7800
 30
0.0000
 11
36.5760
 21
18.2880
 31
0.0000
  0
LINE
  8
1
 10
32.0040
 20
11.6840
 30
0.0000
 11
32.0734
 21
11.8050
 31
0.0000
  0
INSERT
  8
18
  2
ROUNDV
 10
29.4640
 20
11.1760
 30
0.0000
 41
1.5240
 42
1.5240
 43
1.0000
 50
0.0000
  0
INSERT
  8
18
  2
ROUNDV
 10
29.4640
 20
11.1760
 30
0.0000
 41
1.5240
 42
1.5240
 43
1.0000
 50
0.0000
  0
INSERT
  8
18
  2
ROUNDV
 10
35.0520
 20
17.7800
 30
0.0000
 41
1.5240
 42
1.5240
 43
1.0000
 50
0.0000
  0
INSERT
  8
18
  2
ROUNDV
 10
35.0520
 20
17.7800
 30
0.0000
 41
1.5240
 42
1.5240
 43
1.0000
 50
0.0000
  0
LINE
  8
1
 10
70.6120
 20
17.2720
 30
0.0000
 11
64.0080
 21
17.2720
 31
0.0000
  0
LINE
  8
1
 10
72.1360
 20
18.7960
 30
0.0000
 11
70.6120
 21
17.2720
 31
0.0000
  0
LINE
  8
1
 10
72.1360
 20
18.7960
 30
0.0000
 11
74.1680
 21
18.7960
 31
0.0000
  0
LINE
  8
1
 10
64.0080
 20
17.2720
 30
0.0000
 11
64.0000
 21
17.0000
 31
0.0000
  0
LINE
  8
1
 10
74.1680
 20
18.7960
 30
0.0000
 11
75.7400
 21
17.2240
 31
0.0000
  0
LINE
  8
1
 10
75.7400
 20
17.2240
 30
0.0000
 11
75.7400
 21
16.3000
 31
0.0000
  0
LINE
  8
1
 10
26.5080
 20
17.2720
 30
0.0000
 11
27.9400
 21
17.2720
 31
0.0000
  0
LINE
  8
1
 10
26.5080
 20
16.4560
 30
0.0000
 11
26.5080
 21
17.2720
 31
0.0000
  0
LINE
  8
16
 10
26.5080
 20
16.4560
 30
0.0000
 11
26.5080
 21
9.4360
 31
0.0000
  0
LINE
  8
16
 10
26.5080
 20
9.4360
 30
0.0000
 11
23.2680
 21
6.1960
 31
0.0000
  0
LINE
  8
16
 10
22.9680
 20
6.1960
 30
0.0000
 11
23.2680
 21
6.1960
 31
0.0000
  0
LINE
  8
1
 10
24.0840
 20
5.0800
 30
0.0000
 11
22.9680
 21
6.1960
 31
0.0000
  0
LINE
  8
1
 10
24.8920
 20
5.0800
 30
0.0000
 11
24.0840
 21
5.0800
 31
0.0000
  0
LINE
  8
1
 10
25.4000
 20
5.5880
 30
0.0000
 11
24.8920
 21
5.0800
 31
0.0000
  0
LINE
  8
1
 10
25.9080
 20
5.5880
 30
0.0000
 11
25.4000
 21
5.5880
 31
0.0000
  0
LINE
  8
1
 10
27.9400
 20
17.2720
 30
0.0000
 11
28.0500
 21
17.4000
 31
0.0000
  0
LINE
  8
1
 10
25.9080
 20
5.5880
 30
0.0000
 11
25.9266
 21
5.4550
 31
0.0000
  0
INSERT
  8
18
  2
ROUNDV
 10
26.5080
 20
16.4560
 30
0.0000
 41
1.5240
 42
1.5240
 43
1.0000
 50
0.0000
  0
INSERT
  8
18
  2
ROUNDV
 10
26.5080
 20
16.4560
 30
0.0000
 41
1.5240
 42
1.5240
 43
1.0000
 50
0.0000
  0
INSERT
  8
18
  2
ROUNDV
 10
22.9680
 20
6.1960
 30
0.0000
 41
1.5240
 42
1.5240
 43
1.0000
 50
0.0000
  0
INSERT
  8
18
  2
ROUNDV
 10
22.9680
 20
6.1960
 30
0.0000
 41
1.5240
 42
1.5240
 43
1.0000
 50
0.0000
  0
LINE
  8
1
 10
30.4800
 20
17.2720
 30
0.0000
 11
29.9720
 21
17.2720
 31
0.0000
  0
LINE
  8
1
 10
32.5120
 20
15.2400
 30
0.0000
 11
30.4800
 21
17.2720
 31
0.0000
  0
LINE
  8
1
 10
32.5120
 20
14.2240
 30
0.0000
 11
32.5120
 21
15.2400
 31
0.0000
  0
LINE
  8
1
 10
29.9720
 20
17.2720
 30
0.0000
 11
29.7500
 21
17.4000
 31
0.0000
  0
LINE
  8
1
 10
32.5120
 20
14.2240
 30
0.0000
 11
32.0734
 21
14.3450
 31
0.0000
  0
LINE
  8
1
 10
32.0040
 20
4.0640
 30
0.0000
 11
32.0040
 21
5.5880
 31
0.0000
  0
LINE
  8
1
 10
35.0520
 20
1.0160
 30
0.0000
 11
32.0040
 21
4.0640
 31
0.0000
  0
LINE
  8
1
 10
40.1320
 20
1.0160
 30
0.0000
 11
35.0520
 21
1.0160
 31
0.0000
  0
LINE
  8
1
 10
44.1960
 20
5.0800
 30
0.0000
 11
40.1320
 21
1.0160
 31
0.0000
  0
LINE
  8
1
 10
44.7040
 20
5.0800
 30
0.0000
 11
44.1960
 21
5.0800
 31
0.0000
  0
LINE
  8
1
 10
44.7040
 20
5.5880
 30
0.0000
 11
44.7040
 21
5.0800
 31
0.0000
  0
LINE
  8
1
 10
32.0040
 20
5.5880
 30
0.0000
 11
32.0734
 21
5.4550
 31
0.0000
  0
LINE
  8
1
 10
44.7040
 20
5.5880
 30
0.0000
 11
44.6430
 21
5.6300
 31
0.0000
  0
LINE
  8
1
 10
44.7040
 20
6.0960
 30
0.0000
 11
47.2440
 21
6.0960
 31
0.0000
  0
LINE
  8
1
 10
47.2440
 20
6.0960
 30
0.0000
 11
47.4370
 21
5.6300
 31
0.0000
  0
LINE
  8
1
 10
44.7040
 20
6.0960
 30
0.0000
 11
44.6430
 21
5.6300
 31
0.0000
  0
LINE
  8
1
 10
33.5280
 20
6.6040
 30
0.0000
 11
32.5120
 21
6.6040
 31
0.0000
  0
LINE
  8
1
 10
34.5440
 20
5.5880
 30
0.0000
 11
33.5280
 21
6.6040
 31
0.0000
  0
LINE
  8
1
 10
34.5440
 20
3.0480
 30
0.0000
 11
34.5440
 21
5.5880
 31
0.0000
  0
LINE
  8
1
 10
35.5600
 20
2.0320
 30
0.0000
 11
34.5440
 21
3.0480
 31
0.0000
  0
LINE
  8
1
 10
39.6240
 20
2.0320
 30
0.0000
 11
35.5600
 21
2.0320
 31
0.0000
  0
LINE
  8
1
 10
42.1640
 20
4.5720
 30
0.0000
 11
39.6240
 21
2.0320
 31
0.0000
  0
LINE
  8
1
 10
42.1640
 20
6.6040
 30
0.0000
 11
42.1640
 21
4.5720
 31
0.0000
  0
LINE
  8
1
 10
43.6880
 20
8.1280
 30
0.0000
 11
42.1640
 21
6.6040
 31
0.0000
  0
LINE
  8
1
 10
44.1960
 20
7.6200
 30
0.0000
 11
43.6880
 21
8.1280
 31
0.0000
  0
LINE
  8
1
 10
44.7040
 20
7.6200
 30
0.0000
 11
44.1960
 21
7.6200
 31
0.0000
  0
LINE
  8
1
 10
44.7040
 20
8.1280
 30
0.0000
 11
44.7040
 21
7.6200
 31
0.0000
  0
LINE
  8
1
 10
32.5120
 20
6.6040
 30
0.0000
 11
32.0734
 21
6.7250
 31
0.0000
  0
LINE
  8
1
 10
44.7040
 20
8.1280
 30
0.0000
 11
47.2440
 21
8.1280
 31
0.0000
  0
LINE
  8
1
 10
47.2440
 20
8.1280
 30
0.0000
 11
47.4370
 21
8.1700
 31
0.0000
  0
LINE
  8
1
 10
44.7040
 20
8.1280
 30
0.0000
 11
44.6430
 21
8.1700
 31
0.0000
  0
LINE
  8
1
 10
20.5500
 20
4.2000
 30
0.0000
 11
19.8920
 21
4.2000
 31
0.0000
  0
LINE
  8
1
 10
19.8920
 20
4.2000
 30
0.0000
 11
18.8040
 21
5.2880
 31
0.0000
  0
LINE
  8
1
 10
18.8040
 20
7.1040
 30
0.0000
 11
18.8040
 21
5.2880
 31
0.0000
  0
LINE
  8
1
 10
19.8074
 20
8.1074
 30
0.0000
 11
18.8040
 21
7.1040
 31
0.0000
  0
LINE
  8
1
 10
19.8074
 20
8.1074
 30
0.0000
 11
19.4500
 21
8.2000
 31
0.0000
  0
LINE
  8
1
 10
20.3200
 20
9.8492
 30
0.0000
 11
20.3200
 21
11.6840
 31
0.0000
  0
LINE
  8
1
 10
20.3200
 20
11.6840
 30
0.0000
 11
20.2500
 21
12.0000
 31
0.0000
  0
LINE
  8
1
 10
20.3200
 20
9.8492
 30
0.0000
 11
19.4500
 21
8.2000
 31
0.0000
  0
LINE
  8
1
 10
20.3200
 20
12.1920
 30
0.0000
 11
20.3200
 21
16.2560
 31
0.0000
  0
LINE
  8
1
 10
20.3200
 20
16.2560
 30
0.0000
 11
20.3500
 21
16.3000
 31
0.0000
  0
LINE
  8
1
 10
20.3200
 20
12.1920
 30
0.0000
 11
20.2500
 21
12.0000
 31
0.0000
  0
LINE
  8
1
 10
45.2120
 20
13.2080
 30
0.0000
 11
44.7040
 21
13.2080
 31
0.0000
  0
LINE
  8
1
 10
45.7200
 20
12.7000
 30
0.0000
 11
45.2120
 21
13.2080
 31
0.0000
  0
LINE
  8
1
 10
46.7360
 20
12.7000
 30
0.0000
 11
45.7200
 21
12.7000
 31
0.0000
  0
LINE
  8
1
 10
47.2440
 20
13.2080
 30
0.0000
 11
46.7360
 21
12.7000
 31
0.0000
  0
LINE
  8
1
 10
44.7040
 20
13.2080
 30
0.0000
 11
44.6430
 21
13.2500
 31
0.0000
  0
LINE
  8
1
 10
47.2440
 20
13.2080
 30
0.0000
 11
47.4370
 21
13.2500
 31
0.0000
  0
LINE
  8
1
 10
38.6080
 20
7.6200
 30
0.0000
 11
38.6080
 21
4.0640
 31
0.0000
  0
LINE
  8
1
 10
38.6080
 20
4.0640
 30
0.0000
 11
38.3500
 21
4.0000
 31
0.0000
  0
LINE
  8
1
 10
38.6080
 20
7.6200
 30
0.0000
 11
38.3500
 21
8.0000
 31
0.0000
  0
LINE
  8
1
 10
38.6080
 20
15.7480
 30
0.0000
 11
38.6080
 21
14.2240
 31
0.0000
  0
LINE
  8
1
 10
38.6080
 20
14.2240
 30
0.0000
 11
38.6080
 21
12.1920
 31
0.0000
  0
LINE
  8
1
 10
38.6080
 20
15.7480
 30
0.0000
 11
38.3500
 21
16.0000
 31
0.0000
  0
LINE
  8
1
 10
38.6080
 20
11.6840
 30
0.0000
 11
38.6080
 21
8.1280
 31
0.0000
  0
LINE
  8
1
 10
38.6080
 20
8.1280
 30
0.0000
 11
38.3500
 21
8.0000
 31
0.0000
  0
LINE
  8
1
 10
38.6080
 20
11.6840
 30
0.0000
 11
38.3500
 21
12.0000
 31
0.0000
  0
LINE
  8
1
 10
43.1800
 20
13.2080
 30
0.0000
 11
44.1960
 21
13.2080
 31
0.0000
  0
LINE
  8
1
 10
42.6720
 20
13.7160
 30
0.0000
 11
43.1800
 21
13.2080
 31
0.0000
  0
LINE
  8
1
 10
42.1640
 20
13.7160
 30
0.0000
 11
42.6720
 21
13.7160
 31
0.0000
  0
LINE
  8
1
 10
40.6400
 20
12.1920
 30
0.0000
 11
42.1640
 21
13.7160
 31
0.0000
  0
LINE
  8
1
 10
38.6080
 20
12.1920
 30
0.0000
 11
40.6400
 21
12.1920
 31
0.0000
  0
LINE
  8
1
 10
44.1960
 20
13.2080
 30
0.0000
 11
44.6430
 21
13.2500
 31
0.0000
  0
LINE
  8
1
 10
38.6080
 20
12.1920
 30
0.0000
 11
38.3500
 21
12.0000
 31
0.0000
  0
LINE
  8
1
 10
20.3200
 20
17.7800
 30
0.0000
 11
20.3200
 21
16.7640
 31
0.0000
  0
LINE
  8
1
 10
22.3520
 20
19.8120
 30
0.0000
 11
20.3200
 21
17.7800
 31
0.0000
  0
LINE
  8
1
 10
30.4800
 20
19.8120
 30
0.0000
 11
22.3520
 21
19.8120
 31
0.0000
  0
LINE
  8
1
 10
36.0680
 20
14.2240
 30
0.0000
 11
30.4800
 21
19.8120
 31
0.0000
  0
LINE
  8
1
 10
38.6080
 20
14.2240
 30
0.0000
 11
36.0680
 21
14.2240
 31
0.0000
  0
LINE
  8
1
 10
20.3200
 20
16.7640
 30
0.0000
 11
20.3500
 21
16.3000
 31
0.0000
  0
ENDSEC
  0
EOF
